SplineFontDB: 3.0
FontName: Nahid
FullName: Nahid
FamilyName: Nahid
Weight: Regular
Copyright: Copyright (c) 2003 by Bitstream, Inc. All Rights Reserved.\nDejaVu changes are in public domain\nChanges by Saber Rastikerdar are in public domain.\nNon-Arabic(Latin) glyphs and data in extended version are imported from Roboto font under the Apache License, Version 2.0.
Version: 0.3.0
ItalicAngle: 0
UnderlinePosition: -500
UnderlineWidth: 100
Ascent: 1638
Descent: 410
InvalidEm: 0
LayerCount: 2
Layer: 0 1 "Back" 1
Layer: 1 1 "Fore" 0
PreferredKerning: 4
XUID: [1021 502 1027637223 2761605]
UniqueID: 4208522
UseUniqueID: 1
FSType: 0
OS2Version: 1
OS2_WeightWidthSlopeOnly: 0
OS2_UseTypoMetrics: 1
CreationTime: 1431850356
ModificationTime: 1522486674
PfmFamily: 33
TTFWeight: 400
TTFWidth: 5
LineGap: 0
VLineGap: 0
Panose: 2 11 6 3 3 8 4 2 2 4
OS2TypoAscent: 2100
OS2TypoAOffset: 0
OS2TypoDescent: -1100
OS2TypoDOffset: 0
OS2TypoLinegap: 0
OS2WinAscent: 2100
OS2WinAOffset: 0
OS2WinDescent: 1100
OS2WinDOffset: 0
HheadAscent: 2100
HheadAOffset: 0
HheadDescent: -1100
HheadDOffset: 0
OS2SubXSize: 1331
OS2SubYSize: 1433
OS2SubXOff: 0
OS2SubYOff: 286
OS2SupXSize: 1331
OS2SupYSize: 1433
OS2SupXOff: 0
OS2SupYOff: 983
OS2StrikeYSize: 102
OS2StrikeYPos: 530
OS2CapHeight: 1638
OS2XHeight: 1082
OS2Vendor: '    '
OS2CodePages: 00000041.20080000
OS2UnicodeRanges: 80002003.80000000.00000008.00000000
Lookup: 1 9 0 "'fina' Terminal Forms in Arabic lookup 9" { "'fina' Terminal Forms in Arabic lookup 9 subtable"  } ['fina' ('arab' <'KUR ' 'SND ' 'URD ' 'dflt' > ) ]
Lookup: 1 9 0 "'medi' Medial Forms in Arabic lookup 11" { "'medi' Medial Forms in Arabic lookup 11 subtable"  } ['medi' ('arab' <'KUR ' 'SND ' 'URD ' 'dflt' > ) ]
Lookup: 1 9 0 "'init' Initial Forms in Arabic lookup 13" { "'init' Initial Forms in Arabic lookup 13 subtable"  } ['init' ('arab' <'KUR ' 'SND ' 'URD ' 'dflt' > ) ]

StartChar: exclam
Encoding: 33 33 1
GlifName: exclam
Width: 577
VWidth: 2762
GlyphClass: 2
Flags: W
LayerCount: 2
Fore
SplineSet
155.091796875 138.493164062 m 0,0,1
 155.091796875 193.540039062 155.091796875 193.540039062 194.162109375 232.609375 c 128,-1,2
 233.231445312 271.6796875 233.231445312 271.6796875 288.278320312 271.6796875 c 0,3,4
 315.84375 271.6796875 315.84375 271.6796875 339.336914062 261.927734375 c 128,-1,5
 362.830078125 252.174804688 362.830078125 252.174804688 382.395507812 232.609375 c 128,-1,6
 401.959960938 213.043945312 401.959960938 213.043945312 411.711914062 189.55078125 c 128,-1,7
 421.463867188 166.057617188 421.463867188 166.057617188 421.463867188 138.493164062 c 0,8,9
 421.463867188 83.4462890625 421.463867188 83.4462890625 382.395507812 44.376953125 c 128,-1,10
 343.326171875 5.306640625 343.326171875 5.306640625 288.278320312 5.306640625 c 0,11,12
 240.078125 5.306640625 240.078125 5.306640625 204.208984375 35.189453125 c 0,13,14
 197.4375 40.830078125 197.4375 40.830078125 191.592773438 46.9150390625 c 128,-1,15
 185.748046875 53 185.748046875 53 180.828125 59.5302734375 c 128,-1,16
 175.909179688 66.0595703125 175.909179688 66.0595703125 171.912109375 73.033203125 c 128,-1,17
 167.915039062 80.005859375 167.915039062 80.005859375 164.83203125 87.4326171875 c 0,18,19
 159.962890625 99.1630859375 159.962890625 99.1630859375 157.52734375 111.921875 c 128,-1,20
 155.091796875 124.681640625 155.091796875 124.681640625 155.091796875 138.493164062 c 0,0,1
183.216796875 1402.07128906 m 5,21,-1
 396.559570312 1402.07128906 l 5,22,-1
 372.146484375 499.32421875 l 1,23,-1
 208.84765625 499.32421875 l 1,24,-1
 183.216796875 1402.07128906 l 5,21,-1
EndSplineSet
EndChar

StartChar: period
Encoding: 46 46 2
GlifName: period
Width: 577
VWidth: 2762
GlyphClass: 2
Flags: W
LayerCount: 2
Fore
SplineSet
155.091796875 138.493164062 m 0,0,1
 155.091796875 193.540039062 155.091796875 193.540039062 194.162109375 232.609375 c 128,-1,2
 233.231445312 271.6796875 233.231445312 271.6796875 288.278320312 271.6796875 c 0,3,4
 315.84375 271.6796875 315.84375 271.6796875 339.336914062 261.927734375 c 128,-1,5
 362.830078125 252.174804688 362.830078125 252.174804688 382.395507812 232.609375 c 128,-1,6
 401.959960938 213.043945312 401.959960938 213.043945312 411.711914062 189.55078125 c 128,-1,7
 421.463867188 166.057617188 421.463867188 166.057617188 421.463867188 138.493164062 c 0,8,9
 421.463867188 83.4462890625 421.463867188 83.4462890625 382.395507812 44.376953125 c 128,-1,10
 343.326171875 5.306640625 343.326171875 5.306640625 288.278320312 5.306640625 c 0,11,12
 240.078125 5.306640625 240.078125 5.306640625 204.208984375 35.189453125 c 0,13,14
 197.4375 40.830078125 197.4375 40.830078125 191.592773438 46.9150390625 c 128,-1,15
 185.748046875 53 185.748046875 53 180.828125 59.5302734375 c 128,-1,16
 175.909179688 66.0595703125 175.909179688 66.0595703125 171.912109375 73.033203125 c 128,-1,17
 167.915039062 80.005859375 167.915039062 80.005859375 164.83203125 87.4326171875 c 0,18,19
 159.962890625 99.1630859375 159.962890625 99.1630859375 157.52734375 111.921875 c 128,-1,20
 155.091796875 124.681640625 155.091796875 124.681640625 155.091796875 138.493164062 c 0,0,1
EndSplineSet
EndChar

StartChar: colon
Encoding: 58 58 3
GlifName: colon
Width: 577
VWidth: 2762
GlyphClass: 2
Flags: W
LayerCount: 2
Fore
SplineSet
155.091796875 1008.49316406 m 0,0,1
 155.091796875 1063.54003906 155.091796875 1063.54003906 194.162109375 1102.609375 c 128,-1,2
 233.231445312 1141.6796875 233.231445312 1141.6796875 288.278320312 1141.6796875 c 128,-1,3
 343.326171875 1141.6796875 343.326171875 1141.6796875 382.395507812 1102.609375 c 0,4,5
 395.44140625 1089.56347656 395.44140625 1089.56347656 404.119140625 1074.77832031 c 128,-1,6
 412.797851562 1059.99414062 412.797851562 1059.99414062 417.130859375 1043.43359375 c 128,-1,7
 421.463867188 1026.87304688 421.463867188 1026.87304688 421.463867188 1008.49316406 c 0,8,9
 421.463867188 953.446289062 421.463867188 953.446289062 382.395507812 914.376953125 c 0,10,11
 362.830078125 894.811523438 362.830078125 894.811523438 339.336914062 885.05859375 c 128,-1,12
 315.84375 875.306640625 315.84375 875.306640625 288.278320312 875.306640625 c 0,13,14
 240.078125 875.306640625 240.078125 875.306640625 204.208984375 905.189453125 c 0,15,16
 177.166992188 927.716796875 177.166992188 927.716796875 164.83203125 957.432617188 c 0,17,18
 159.962890625 969.163085938 159.962890625 969.163085938 157.52734375 981.921875 c 128,-1,19
 155.091796875 994.681640625 155.091796875 994.681640625 155.091796875 1008.49316406 c 0,0,1
155.091796875 138.493164062 m 0,20,21
 155.091796875 193.540039062 155.091796875 193.540039062 194.162109375 232.609375 c 128,-1,22
 233.231445312 271.6796875 233.231445312 271.6796875 288.278320312 271.6796875 c 0,23,24
 315.84375 271.6796875 315.84375 271.6796875 339.336914062 261.927734375 c 128,-1,25
 362.830078125 252.174804688 362.830078125 252.174804688 382.395507812 232.609375 c 128,-1,26
 401.959960938 213.043945312 401.959960938 213.043945312 411.711914062 189.55078125 c 128,-1,27
 421.463867188 166.057617188 421.463867188 166.057617188 421.463867188 138.493164062 c 0,28,29
 421.463867188 83.4462890625 421.463867188 83.4462890625 382.395507812 44.376953125 c 128,-1,30
 343.326171875 5.306640625 343.326171875 5.306640625 288.278320312 5.306640625 c 0,31,32
 240.078125 5.306640625 240.078125 5.306640625 204.208984375 35.189453125 c 0,33,34
 197.4375 40.830078125 197.4375 40.830078125 191.592773438 46.9150390625 c 128,-1,35
 185.748046875 53 185.748046875 53 180.828125 59.5302734375 c 128,-1,36
 175.909179688 66.0595703125 175.909179688 66.0595703125 171.912109375 73.033203125 c 128,-1,37
 167.915039062 80.005859375 167.915039062 80.005859375 164.83203125 87.4326171875 c 0,38,39
 159.962890625 99.1630859375 159.962890625 99.1630859375 157.52734375 111.921875 c 128,-1,40
 155.091796875 124.681640625 155.091796875 124.681640625 155.091796875 138.493164062 c 0,20,21
EndSplineSet
EndChar

StartChar: afii57388
Encoding: 1548 1548 5
GlifName: afii57388
Width: 629
VWidth: 2770
GlyphClass: 2
Flags: W
LayerCount: 2
Fore
SplineSet
167.4609375 287.60546875 m 4,0,1
 216.610351562 530.870117188 216.610351562 530.870117188 412.274414062 680.014648438 c 5,2,-1
 457.084960938 652.140625 l 5,3,4
 299.938476562 509.219726562 299.938476562 509.219726562 283.995117188 287.342773438 c 6,5,-1
 283.838867188 285.169921875 l 5,6,-1
 286.017578125 285.19921875 l 6,7,8
 417.782226562 286.983398438 417.782226562 286.983398438 450.838867188 222.024414062 c 4,9,10
 469.98828125 183.552734375 469.98828125 183.552734375 469.086914062 146.030273438 c 4,11,12
 465.0703125 9.9375 465.0703125 9.9375 325.991210938 8.9072265625 c 4,13,14
 297.9140625 8.7900390625 297.9140625 8.7900390625 274.4765625 13.4365234375 c 4,15,16
 155.720703125 36.984375 155.720703125 36.984375 155.842773438 184 c 4,17,18
 155.880859375 229.80859375 155.880859375 229.80859375 167.4609375 287.60546875 c 4,0,1
EndSplineSet
EndChar

StartChar: uni0615
Encoding: 1557 1557 6
GlifName: uni0615
Width: -29
VWidth: 2712
GlyphClass: 4
Flags: W
AnchorPoint: "Anchor-10" 658.199 1622.46 mark 0
AnchorPoint: "Anchor-9" 658.199 1622.46 mark 0
AnchorPoint: "Anchor-1" 672.366 2445.86 basemark 0
AnchorPoint: "Anchor-1" 658.199 1622.46 mark 0
LayerCount: 2
Fore
SplineSet
541.2421875 1786.00390625 m 1,0,-1
 677.703125 1786.00390625 l 2,1,2
 782.301757812 1786.00390625 782.301757812 1786.00390625 846.846679688 1820.74121094 c 0,3,4
 911.943359375 1855.77441406 911.943359375 1855.77441406 914.579101562 1910.29980469 c 128,-1,5
 917.220703125 1964.95214844 917.220703125 1964.95214844 883.403320312 1983.27148438 c 0,6,7
 828.697265625 2013.80371094 828.697265625 2013.80371094 742.877929688 1965.12109375 c 128,-1,8
 657.05859375 1916.43847656 657.05859375 1916.43847656 539.772460938 1789.36035156 c 2,9,-1
 536.674804688 1786.00390625 l 1,10,-1
 541.2421875 1786.00390625 l 1,0,-1
989.1328125 1926.79882812 m 0,11,12
 989.000976562 1714.07421875 989.000976562 1714.07421875 668.384765625 1714.07421875 c 2,13,-1
 356.936523438 1714.07421875 l 1,14,-1
 356.936523438 1786.00390625 l 1,15,-1
 462.987304688 1786.00390625 l 1,16,-1
 464.987304688 1786.00390625 l 1,17,-1
 464.987304688 1788.00390625 l 1,18,-1
 464.987304688 2318.125 l 1,19,-1
 538.229492188 2317.20898438 l 1,20,-1
 537.275390625 1891.90722656 l 1,21,-1
 537.263671875 1886.58789062 l 1,22,-1
 540.77734375 1890.58105469 l 2,23,24
 747.583007812 2125.63476562 747.583007812 2125.63476562 911.680664062 2062.82324219 c 0,25,26
 989.001953125 2033.6171875 989.001953125 2033.6171875 989.1328125 1926.79882812 c 0,11,12
EndSplineSet
EndChar

StartChar: uni061B
Encoding: 1563 1563 7
GlifName: uni061B_
Width: 629
VWidth: 2770
GlyphClass: 2
Flags: W
LayerCount: 2
Fore
SplineSet
167.4609375 757.60546875 m 0,0,1
 216.610351562 1000.87011719 216.610351562 1000.87011719 412.274414062 1150.01464844 c 1,2,-1
 457.084960938 1122.140625 l 1,3,4
 299.938476562 979.219726562 299.938476562 979.219726562 283.995117188 757.342773438 c 2,5,-1
 283.838867188 755.169921875 l 1,6,-1
 286.017578125 755.19921875 l 2,7,8
 417.782226562 756.983398438 417.782226562 756.983398438 450.838867188 692.024414062 c 0,9,10
 469.98828125 653.552734375 469.98828125 653.552734375 469.086914062 616.030273438 c 0,11,12
 465.0703125 479.9375 465.0703125 479.9375 325.991210938 478.907226562 c 0,13,14
 297.9140625 478.790039062 297.9140625 478.790039062 274.4765625 483.436523438 c 0,15,16
 155.720703125 506.984375 155.720703125 506.984375 155.842773438 654 c 0,17,18
 155.880859375 699.80859375 155.880859375 699.80859375 167.4609375 757.60546875 c 0,0,1
184.091796875 138.493164062 m 0,19,20
 184 194 184 194 223.162109375 232.609375 c 0,21,22
 262 272 262 272 317.278320312 271.6796875 c 0,23,24
 345 272 345 272 368.336914062 261.927734375 c 0,25,26
 392 252 392 252 411.395507812 232.609375 c 0,27,28
 450 194 450 194 450.463867188 138.493164062 c 0,29,30
 450 83 450 83 411.395507812 44.376953125 c 0,31,32
 372 5 372 5 317.278320312 5.306640625 c 0,33,34
 269 5 269 5 233.208984375 35.189453125 c 0,35,36
 224 43 224 43 216.798828125 51.0224609375 c 0,37,38
 209 59 209 59 203.6796875 68.4326171875 c 0,39,40
 198 78 198 78 193.83203125 87.4326171875 c 0,41,42
 189 99 189 99 186.52734375 111.921875 c 128,-1,43
 184 125 184 125 184.091796875 138.493164062 c 0,19,20
EndSplineSet
EndChar

StartChar: uni061F
Encoding: 1567 1567 8
GlifName: uni061F_
Width: 974
VWidth: 2762
GlyphClass: 2
Flags: W
LayerCount: 2
Fore
SplineSet
420.091796875 138.493164062 m 0,0,1
 420.091796875 193.540039062 420.091796875 193.540039062 459.162109375 232.609375 c 128,-1,2
 498.231445312 271.6796875 498.231445312 271.6796875 553.278320312 271.6796875 c 128,-1,3
 608.326171875 271.6796875 608.326171875 271.6796875 647.395507812 232.609375 c 128,-1,4
 686.463867188 193.540039062 686.463867188 193.540039062 686.463867188 138.493164062 c 128,-1,5
 686.463867188 83.4462890625 686.463867188 83.4462890625 647.395507812 44.376953125 c 128,-1,6
 608.326171875 5.306640625 608.326171875 5.306640625 553.278320312 5.306640625 c 0,7,8
 505.078125 5.306640625 505.078125 5.306640625 469.208984375 35.189453125 c 0,9,10
 460.181640625 42.7099609375 460.181640625 42.7099609375 452.798828125 51.0224609375 c 128,-1,11
 445.416015625 59.3349609375 445.416015625 59.3349609375 439.6796875 68.4326171875 c 128,-1,12
 433.943359375 77.529296875 433.943359375 77.529296875 429.83203125 87.4326171875 c 0,13,14
 424.962890625 99.1630859375 424.962890625 99.1630859375 422.52734375 111.921875 c 128,-1,15
 420.091796875 124.681640625 420.091796875 124.681640625 420.091796875 138.493164062 c 0,0,1
454.145507812 496.333007812 m 1,16,17
 441.004104715 583.614451893 441.004104715 583.614451893 336.930664062 678.607421875 c 0,18,19
 113 883 113 883 116 1045.95898438 c 4,20,21
 119 1181 119 1181 198.495117188 1269.671875 c 0,22,23
 315 1401 315 1401 508.94140625 1400.51660156 c 0,24,25
 874 1399 874 1399 874 1014 c 2,26,-1
 874 1006.25 l 1,27,-1
 717.799804688 1006.24804688 l 1,28,-1
 717.799804688 1012.86328125 l 2,29,30
 718 1211 718 1211 517.602539062 1210.89453125 c 0,31,32
 405 1211 405 1211 349.944335938 1155 c 0,33,34
 301 1105 301 1105 301.328125 1036 c 4,35,36
 302 926 302 926 488.134765625 759.353515625 c 0,37,38
 642.192117762 615.207919228 642.192117762 615.207919228 652.827148438 496.333007812 c 1,39,-1
 454.145507812 496.333007812 l 1,16,17
EndSplineSet
EndChar

StartChar: uni0621
Encoding: 1569 1569 9
GlifName: uni0621
Width: 908
VWidth: 2950
GlyphClass: 2
Flags: W
AnchorPoint: "Anchor-7" 485.326 -105.646 basechar 0
AnchorPoint: "Anchor-10" 479.848 1242.06 basechar 0
LayerCount: 2
Fore
SplineSet
119.76953125 13.236328125 m 1,0,-1
 119.76953125 186.692382812 l 1,1,2
 247.40625 267.34765625 247.40625 267.34765625 358.892578125 302.67578125 c 2,3,-1
 363.474609375 304.127929688 l 1,4,-1
 359.21484375 306.354492188 l 2,5,6
 128.00390625 427.209960938 128.00390625 427.209960938 128.553710938 617.31640625 c 0,7,8
 128.997070312 740.26171875 128.997070312 740.26171875 211.850585938 837.80859375 c 0,9,10
 309.91796875 951.999023438 309.91796875 951.999023438 488.575195312 951.806640625 c 0,11,12
 643.256835938 951.998046875 643.256835938 951.998046875 761.5078125 851.813476562 c 1,13,-1
 706.408203125 727.330078125 l 1,14,15
 656.328125 753.91796875 656.328125 753.91796875 605.202148438 767.068359375 c 128,-1,16
 554.077148438 780.21875 554.077148438 780.21875 500.329101562 780.4375 c 0,17,18
 397.100585938 780.217773438 397.100585938 780.217773438 345.057617188 739.364257812 c 128,-1,19
 293.013671875 698.510742188 293.013671875 698.510742188 293.028320312 617.267578125 c 0,20,21
 293 490.7265625 293 490.7265625 516.926757812 386.237304688 c 2,22,-1
 517.5234375 385.958984375 l 1,23,-1
 798.5 442.704101562 l 1,24,-1
 798.5 274.477539062 l 1,25,26
 538.005859375 243.217773438 538.005859375 243.217773438 119.76953125 13.236328125 c 1,0,-1
EndSplineSet
EndChar

StartChar: uni0627
Encoding: 1575 1575 15
GlifName: uni0627
Width: 497
VWidth: 2950
GlyphClass: 2
Flags: W
AnchorPoint: "Anchor-10" 248.871 1525.46 basechar 0
AnchorPoint: "Anchor-7" 245.587 -210.365 basechar 0
LayerCount: 2
Fore
SplineSet
166.890625 1396.15039062 m 1,0,-1
 332.205078125 1396.15039062 l 1,1,-1
 332.205078125 0.751953125 l 1,2,-1
 166.890625 0.751953125 l 1,3,-1
 166.890625 1396.15039062 l 1,0,-1
EndSplineSet
Substitution2: "'fina' Terminal Forms in Arabic lookup 9 subtable" uniFE8E
EndChar

StartChar: uni062D
Encoding: 1581 1581 21
GlifName: uni062D_
Width: 1306
VWidth: 2950
GlyphClass: 2
Flags: W
AnchorPoint: "Anchor-10" 641.478 1214.07 basechar 0
AnchorPoint: "Anchor-7" 616.833 -828.619 basechar 0
LayerCount: 2
Fore
SplineSet
794 535 m 1,0,1
 505 652 505 652 429 652 c 0,2,3
 334 652 334 652 207.9296875 503.7109375 c 1,4,-1
 82.1181640625 610.26171875 l 1,5,6
 234 830 234 830 415 830 c 0,7,8
 505 830 505 830 822 702 c 0,9,10
 1049 610 1049 610 1199 601 c 1,11,-1
 1183.06445312 426.818359375 l 1,12,13
 1008 416 1008 416 892.25 389.517578125 c 0,14,15
 283 247 283 247 283.249023438 -121.301757812 c 0,16,17
 283 -472 283 -472 816.381835938 -471.783203125 c 0,18,19
 1007 -472 1007 -472 1186.30664062 -387.446289062 c 1,20,-1
 1186.00195312 -570.739257812 l 1,21,22
 1034 -643 1034 -643 801.529296875 -643.249023438 c 0,23,24
 315 -643 315 -643 169.65234375 -367.3046875 c 0,25,26
 117 -267 117 -267 116.987304688 -136.852539062 c 0,27,28
 117 385 117 385 794 535 c 1,0,1
EndSplineSet
Substitution2: "'fina' Terminal Forms in Arabic lookup 9 subtable" uniFEA2
Substitution2: "'medi' Medial Forms in Arabic lookup 11 subtable" uniFEA4
Substitution2: "'init' Initial Forms in Arabic lookup 13 subtable" uniFEA3
EndChar

StartChar: uni062F
Encoding: 1583 1583 23
GlifName: uni062F_
Width: 950
VWidth: 2950
GlyphClass: 2
Flags: W
AnchorPoint: "Anchor-10" 372.137 1259.03 basechar 0
AnchorPoint: "Anchor-7" 427.24 -241.316 basechar 0
LayerCount: 2
Fore
SplineSet
102.982421875 204.750976562 m 1,0,1
 223 180 223 180 331.662109375 180.107421875 c 0,2,3
 674 180 674 180 673.954101562 350.380859375 c 0,4,5
 674 545 674 545 305.498046875 776.791015625 c 1,6,-1
 376.952148438 939.935546875 l 1,7,8
 847 656 847 656 846.479492188 352.899414062 c 0,9,10
 846 3 846 3 344.806640625 2.259765625 c 0,11,12
 209 2 209 2 102.982421875 25.462890625 c 1,13,-1
 102.982421875 204.750976562 l 1,0,1
EndSplineSet
Substitution2: "'fina' Terminal Forms in Arabic lookup 9 subtable" uniFEAA
EndChar

StartChar: uni0631
Encoding: 1585 1585 25
GlifName: uni0631
Width: 791
VWidth: 2186
GlyphClass: 2
Flags: W
AnchorPoint: "Anchor-10" 491.256 944.2 basechar 0
AnchorPoint: "Anchor-7" 252.969 -675.998 basechar 0
LayerCount: 2
Fore
SplineSet
545.470200934 159.634027804 m 0,0,1
 545.470200934 308.18364153 545.470200934 308.18364153 453.275 441.023 c 1,2,-1
 599.998 518.564 l 1,3,4
 710.618060962 354.222716857 710.618060962 354.222716857 710.618060962 161.043999476 c 0,5,6
 710.618060962 -398.585585057 710.618060962 -398.585585057 30.0469 -465.593 c 1,7,-1
 0.650391 -302.476 l 1,8,9
 545.470200934 -257.638238221 545.470200934 -257.638238221 545.470200934 159.634027804 c 0,0,1
EndSplineSet
PairPos2: "'kern' Horizontal Kerning lookup 15-2" uniFBFE dx=60 dy=0 dh=60 dv=0 dx=0 dy=0 dh=0 dv=0
PairPos2: "'kern' Horizontal Kerning lookup 15-1" uniFEE7 dx=-178 dy=0 dh=-178 dv=0 dx=0 dy=0 dh=0 dv=0
PairPos2: "'kern' Horizontal Kerning lookup 15-2" uniFB90 dx=-226 dy=0 dh=-226 dv=0 dx=0 dy=0 dh=0 dv=0
PairPos2: "'kern' Horizontal Kerning lookup 15-2" uniFB8E dx=-226 dy=0 dh=-226 dv=0 dx=0 dy=0 dh=0 dv=0
PairPos2: "'kern' Horizontal Kerning lookup 15-2" uni06A9 dx=-226 dy=0 dh=-226 dv=0 dx=0 dy=0 dh=0 dv=0
PairPos2: "'kern' Horizontal Kerning lookup 15-2" uni064A dx=-60 dy=0 dh=-60 dv=0 dx=0 dy=0 dh=0 dv=0
PairPos2: "'kern' Horizontal Kerning lookup 15-2" afii57414 dx=-60 dy=0 dh=-60 dv=0 dx=0 dy=0 dh=0 dv=0
PairPos2: "'kern' Horizontal Kerning lookup 15-2" uni0649 dx=-60 dy=0 dh=-60 dv=0 dx=0 dy=0 dh=0 dv=0
PairPos2: "'kern' Horizontal Kerning lookup 15-2" uniFEEB dx=-178 dy=0 dh=-178 dv=0 dx=0 dy=0 dh=0 dv=0
PairPos2: "'kern' Horizontal Kerning lookup 15-2" uni0647 dx=-178 dy=0 dh=-178 dv=0 dx=0 dy=0 dh=0 dv=0
PairPos2: "'kern' Horizontal Kerning lookup 15-2" uni0646 dx=-60 dy=0 dh=-60 dv=0 dx=0 dy=0 dh=0 dv=0
PairPos2: "'kern' Horizontal Kerning lookup 15-2" uniFEE3 dx=-178 dy=0 dh=-178 dv=0 dx=0 dy=0 dh=0 dv=0
PairPos2: "'kern' Horizontal Kerning lookup 15-2" uni0645 dx=-178 dy=0 dh=-178 dv=0 dx=0 dy=0 dh=0 dv=0
PairPos2: "'kern' Horizontal Kerning lookup 15-2" uniFEFB dx=-143 dy=0 dh=-143 dv=0 dx=0 dy=0 dh=0 dv=0
PairPos2: "'kern' Horizontal Kerning lookup 15-2" uniFEDF dx=-143 dy=0 dh=-143 dv=0 dx=0 dy=0 dh=0 dv=0
PairPos2: "'kern' Horizontal Kerning lookup 15-2" uni0644 dx=-60 dy=0 dh=-60 dv=0 dx=0 dy=0 dh=0 dv=0
PairPos2: "'kern' Horizontal Kerning lookup 15-2" uniFEDB dx=-226 dy=0 dh=-226 dv=0 dx=0 dy=0 dh=0 dv=0
PairPos2: "'kern' Horizontal Kerning lookup 15-2" uni0643 dx=-143 dy=0 dh=-143 dv=0 dx=0 dy=0 dh=0 dv=0
PairPos2: "'kern' Horizontal Kerning lookup 15-2" uniFED7 dx=-178 dy=0 dh=-178 dv=0 dx=0 dy=0 dh=0 dv=0
PairPos2: "'kern' Horizontal Kerning lookup 15-2" uni0642 dx=-60 dy=0 dh=-60 dv=0 dx=0 dy=0 dh=0 dv=0
PairPos2: "'kern' Horizontal Kerning lookup 15-2" uniFED3 dx=-178 dy=0 dh=-178 dv=0 dx=0 dy=0 dh=0 dv=0
PairPos2: "'kern' Horizontal Kerning lookup 15-2" uni0641 dx=-178 dy=0 dh=-178 dv=0 dx=0 dy=0 dh=0 dv=0
PairPos2: "'kern' Horizontal Kerning lookup 15-2" uniFECF dx=-178 dy=0 dh=-178 dv=0 dx=0 dy=0 dh=0 dv=0
PairPos2: "'kern' Horizontal Kerning lookup 15-2" uniFECB dx=-178 dy=0 dh=-178 dv=0 dx=0 dy=0 dh=0 dv=0
PairPos2: "'kern' Horizontal Kerning lookup 15-2" uniFEC7 dx=-178 dy=0 dh=-178 dv=0 dx=0 dy=0 dh=0 dv=0
PairPos2: "'kern' Horizontal Kerning lookup 15-2" uni0638 dx=-178 dy=0 dh=-178 dv=0 dx=0 dy=0 dh=0 dv=0
PairPos2: "'kern' Horizontal Kerning lookup 15-2" uniFEC3 dx=-178 dy=0 dh=-178 dv=0 dx=0 dy=0 dh=0 dv=0
PairPos2: "'kern' Horizontal Kerning lookup 15-2" uni0637 dx=-178 dy=0 dh=-178 dv=0 dx=0 dy=0 dh=0 dv=0
PairPos2: "'kern' Horizontal Kerning lookup 15-2" uniFEBF dx=-178 dy=0 dh=-178 dv=0 dx=0 dy=0 dh=0 dv=0
PairPos2: "'kern' Horizontal Kerning lookup 15-2" uni0636 dx=-178 dy=0 dh=-178 dv=0 dx=0 dy=0 dh=0 dv=0
PairPos2: "'kern' Horizontal Kerning lookup 15-2" uniFEBB dx=-178 dy=0 dh=-178 dv=0 dx=0 dy=0 dh=0 dv=0
PairPos2: "'kern' Horizontal Kerning lookup 15-2" uni0635 dx=-178 dy=0 dh=-178 dv=0 dx=0 dy=0 dh=0 dv=0
PairPos2: "'kern' Horizontal Kerning lookup 15-2" uniFEB7 dx=-178 dy=0 dh=-178 dv=0 dx=0 dy=0 dh=0 dv=0
PairPos2: "'kern' Horizontal Kerning lookup 15-2" uni0634 dx=-178 dy=0 dh=-178 dv=0 dx=0 dy=0 dh=0 dv=0
PairPos2: "'kern' Horizontal Kerning lookup 15-2" uniFEB3 dx=-178 dy=0 dh=-178 dv=0 dx=0 dy=0 dh=0 dv=0
PairPos2: "'kern' Horizontal Kerning lookup 15-2" uni0633 dx=-178 dy=0 dh=-178 dv=0 dx=0 dy=0 dh=0 dv=0
PairPos2: "'kern' Horizontal Kerning lookup 15-2" uni0630 dx=-178 dy=0 dh=-178 dv=0 dx=0 dy=0 dh=0 dv=0
PairPos2: "'kern' Horizontal Kerning lookup 15-2" uni062F dx=-178 dy=0 dh=-178 dv=0 dx=0 dy=0 dh=0 dv=0
PairPos2: "'kern' Horizontal Kerning lookup 15-2" uniFEA7 dx=-178 dy=0 dh=-178 dv=0 dx=0 dy=0 dh=0 dv=0
PairPos2: "'kern' Horizontal Kerning lookup 15-2" uniFEA3 dx=-178 dy=0 dh=-178 dv=0 dx=0 dy=0 dh=0 dv=0
PairPos2: "'kern' Horizontal Kerning lookup 15-2" uniFE9F dx=-178 dy=0 dh=-178 dv=0 dx=0 dy=0 dh=0 dv=0
PairPos2: "'kern' Horizontal Kerning lookup 15-2" uniFE9B dx=-178 dy=0 dh=-178 dv=0 dx=0 dy=0 dh=0 dv=0
PairPos2: "'kern' Horizontal Kerning lookup 15-2" uni062B dx=-178 dy=0 dh=-178 dv=0 dx=0 dy=0 dh=0 dv=0
PairPos2: "'kern' Horizontal Kerning lookup 15-2" uniFE97 dx=-178 dy=0 dh=-178 dv=0 dx=0 dy=0 dh=0 dv=0
PairPos2: "'kern' Horizontal Kerning lookup 15-2" uni062A dx=-178 dy=0 dh=-178 dv=0 dx=0 dy=0 dh=0 dv=0
PairPos2: "'kern' Horizontal Kerning lookup 15-2" uni0629 dx=-178 dy=0 dh=-178 dv=0 dx=0 dy=0 dh=0 dv=0
PairPos2: "'kern' Horizontal Kerning lookup 15-2" uni0628 dx=-178 dy=0 dh=-178 dv=0 dx=0 dy=0 dh=0 dv=0
PairPos2: "'kern' Horizontal Kerning lookup 15-2" uni0627 dx=-143 dy=0 dh=-143 dv=0 dx=0 dy=0 dh=0 dv=0
PairPos2: "'kern' Horizontal Kerning lookup 15-2" uni0623 dx=-143 dy=0 dh=-143 dv=0 dx=0 dy=0 dh=0 dv=0
PairPos2: "'kern' Horizontal Kerning lookup 15-2" uni0622 dx=-143 dy=0 dh=-143 dv=0 dx=0 dy=0 dh=0 dv=0
PairPos2: "'kern' Horizontal Kerning lookup 15-2" uni0621 dx=-178 dy=0 dh=-178 dv=0 dx=0 dy=0 dh=0 dv=0
PairPos2: "'kern' Horizontal Kerning lookup 15-2" uniFB94 dx=-226 dy=0 dh=-226 dv=0 dx=0 dy=0 dh=0 dv=0
PairPos2: "'kern' Horizontal Kerning lookup 15-2" uniFB92 dx=-226 dy=0 dh=-226 dv=0 dx=0 dy=0 dh=0 dv=0
PairPos2: "'kern' Horizontal Kerning lookup 15-2" uni06AF dx=-226 dy=0 dh=-226 dv=0 dx=0 dy=0 dh=0 dv=0
PairPos2: "'kern' Horizontal Kerning lookup 15-2" afii57506 dx=-178 dy=0 dh=-178 dv=0 dx=0 dy=0 dh=0 dv=0
PairPos2: "'kern' Horizontal Kerning lookup 15-2" afii57440 dx=-178 dy=0 dh=-178 dv=0 dx=0 dy=0 dh=0 dv=0
PairPos2: "'kern' Horizontal Kerning lookup 15-2" uniFE8B dx=-178 dy=0 dh=-178 dv=0 dx=0 dy=0 dh=0 dv=0
Substitution2: "'fina' Terminal Forms in Arabic lookup 9 subtable" uniFEAE
EndChar

StartChar: uni0633
Encoding: 1587 1587 27
GlifName: uni0633
Width: 2428
VWidth: 2950
GlyphClass: 2
Flags: W
AnchorPoint: "Anchor-10" 1740.53 1055.1 basechar 0
AnchorPoint: "Anchor-7" 651.902 -704.086 basechar 0
LayerCount: 2
Fore
SplineSet
680.99609375 -467.998046875 m 4,0,1
 500 -468 500 -468 360.99609375 -396.170898438 c 0,2,3
 104 -263 104 -263 104.752929688 99.041015625 c 0,4,5
 105 257 105 257 170.45703125 446.122070312 c 1,6,-1
 328.90234375 400.791992188 l 1,7,8
 275 233 275 233 275.268554688 100.861328125 c 0,9,10
 275 -296 275 -296 694.3984375 -296.201171875 c 0,11,12
 1136 -296 1136 -296 1137.60546875 165.9453125 c 0,13,14
 1138 296 1138 296 1079.19921875 466.825195312 c 1,15,-1
 1245.96875 507.435546875 l 1,16,-1
 1276.84863281 376.262695312 l 2,17,18
 1323 180 1323 180 1503.50097656 179.9921875 c 0,19,20
 1682.1472413 180.000006444 1682.1472413 180.000006444 1700.8125 380.504882812 c 2,21,-1
 1715.69628906 540.388671875 l 1,22,-1
 1836.74707031 540.388671875 l 1,23,-1
 1851.63085938 380.442382812 l 2,24,25
 1870 182 1870 182 2004.91992188 180.418945312 c 8,26,27
 2163 179 2163 179 2161.52050781 420.115234375 c 0,28,29
 2161 526 2161 526 2133.828125 646.545898438 c 1,30,-1
 2296.90820312 676.541992188 l 1,31,32
 2323 540 2323 540 2323.13085938 423.862304688 c 0,33,34
 2322 1 2322 1 2010.16210938 0.912109375 c 16,35,36
 1842 1 1842 1 1776.60449219 133.032226562 c 1,37,38
 1682 0 1682 0 1501.80761719 -0.0810546875 c 0,39,40
 1370 -0 1370 -0 1298.26464844 58.376953125 c 5,41,42
 1283 -124 1283 -124 1194 -251.666992188 c 4,43,44
 1041 -468 1041 -468 680.99609375 -467.998046875 c 4,0,1
EndSplineSet
Substitution2: "'fina' Terminal Forms in Arabic lookup 9 subtable" uniFEB2
Substitution2: "'medi' Medial Forms in Arabic lookup 11 subtable" uniFEB4
Substitution2: "'init' Initial Forms in Arabic lookup 13 subtable" uniFEB3
EndChar

StartChar: uni0635
Encoding: 1589 1589 29
GlifName: uni0635
Width: 2525
VWidth: 2950
GlyphClass: 2
Flags: W
AnchorPoint: "Anchor-7" 651.902 -704.086 basechar 0
AnchorPoint: "Anchor-10" 1952.53 1210.1 basechar 0
LayerCount: 2
Fore
SplineSet
679.99609375 -467.998046875 m 4,0,1
 500 -468 500 -468 360.99609375 -396.170898438 c 0,2,3
 104 -263 104 -263 104.752929688 99.041015625 c 0,4,5
 105 257 105 257 170.45703125 446.122070312 c 1,6,-1
 328.90234375 400.791992188 l 1,7,8
 275 233 275 233 275.268554688 100.861328125 c 0,9,10
 276 -294 276 -294 694.3984375 -296.201171875 c 24,11,12
 1136 -298 1136 -298 1137.60546875 164.9453125 c 0,13,14
 1138 295 1138 295 1079.19921875 465.825195312 c 1,15,-1
 1245.96875 506.435546875 l 1,16,-1
 1276.84863281 375.262695312 l 2,17,18
 1315.04831857 212.996480079 1315.04831857 212.996480079 1365.06933594 209.352539062 c 1,19,20
 1705 782 1705 782 2042.76953125 781.423828125 c 0,21,22
 2257 781 2257 781 2362.79882812 627.892578125 c 0,23,24
 2423 541 2423 541 2422.59667969 425.791015625 c 0,25,26
 2422 0 2422 0 1703.15136719 0 c 2,27,-1
 1652.34082031 0 l 2,28,29
 1414 0 1414 0 1297.26464844 58.376953125 c 1,30,31
 1282 -124 1282 -124 1193 -251.666992188 c 0,32,33
 1042 -468 1042 -468 679.99609375 -467.998046875 c 4,0,1
2042.32226562 598.573242188 m 0,34,35
 1818 598 1818 598 1551.00292969 180.416992188 c 1,36,-1
 1708.75585938 180.534179688 l 2,37,38
 2244 181 2244 181 2244.66113281 407.368164062 c 0,39,40
 2245 493 2245 493 2186.92285156 546 c 128,-1,41
 2129 599 2129 599 2042.32226562 598.573242188 c 0,34,35
EndSplineSet
Substitution2: "'fina' Terminal Forms in Arabic lookup 9 subtable" uniFEBA
Substitution2: "'medi' Medial Forms in Arabic lookup 11 subtable" uniFEBC
Substitution2: "'init' Initial Forms in Arabic lookup 13 subtable" uniFEBB
EndChar

StartChar: uni0637
Encoding: 1591 1591 31
GlifName: uni0637
Width: 1474
VWidth: 2950
GlyphClass: 2
Flags: W
AnchorPoint: "Anchor-10" 481.36 1544.58 basechar 0
AnchorPoint: "Anchor-7" 641.602 -238.453 basechar 0
LayerCount: 2
Fore
SplineSet
566.946289062 520.520507812 m 1,0,1
 767 771 767 771 987.846679688 771.423828125 c 4,2,3
 1202 771 1202 771 1307.87597656 617.892578125 c 4,4,5
 1368 531 1368 531 1367.67382812 415.791015625 c 4,6,7
 1367 0 1367 0 658.228515625 0 c 2,8,-1
 103.302734375 0 l 1,9,-1
 103.302734375 180.22265625 l 1,10,-1
 321.827148438 180.376953125 l 1,11,-1
 323.5546875 180.377929688 l 1,12,-1
 324.70703125 180.37890625 l 1,13,-1
 400.927734375 298.1328125 l 1,14,-1
 401.6328125 299.315429688 l 1,15,-1
 401.6328125 1396.87402344 l 1,16,-1
 566.946289062 1396.87402344 l 1,17,-1
 566.946289062 520.520507812 l 1,0,1
326.107421875 182.795898438 m 1,18,-1
 326.107421875 182.795898438 l 1,18,-1
663.833007812 180.534179688 m 2,19,20
 1188.99841055 180.534179688 1188.99841055 180.534179688 1189.73828125 397.368164062 c 4,21,22
 1190 483 1190 483 1132 536 c 132,-1,23
 1074 589 1074 589 987.399414062 588.573242188 c 4,24,25
 766 589 766 589 506.114257812 180.534179688 c 1,26,-1
 663.833007812 180.534179688 l 2,19,20
EndSplineSet
Substitution2: "'fina' Terminal Forms in Arabic lookup 9 subtable" uniFEC2
Substitution2: "'medi' Medial Forms in Arabic lookup 11 subtable" uniFEC4
Substitution2: "'init' Initial Forms in Arabic lookup 13 subtable" uniFEC3
EndChar

StartChar: uni0639
Encoding: 1593 1593 33
GlifName: uni0639
Width: 1286
VWidth: 2950
GlyphClass: 2
Flags: W
AnchorPoint: "Anchor-10" 717.478 1324.07 basechar 0
AnchorPoint: "Anchor-7" 616.833 -828.619 basechar 0
LayerCount: 2
Fore
SplineSet
489.1328125 405.220703125 m 1,0,1
 361 553 361 553 360.999009232 694.994973585 c 1,2,3
 360.999023438 837.196289062 360.999023438 837.196289062 467.4296875 949.097656251 c 128,-1,4
 573.859887155 1060.99853516 573.859887155 1060.99853516 748.106389511 1060.99853516 c 128,-1,5
 922.355168602 1060.99829103 922.355168602 1060.99829103 1072.21386719 939.09765625 c 1,6,-1
 1007.42773438 793.243164062 l 1,7,8
 868.471050557 881.582842897 868.471050557 881.582842897 765.839424649 881.582842897 c 0,9,10
 637.623095164 881.582842897 637.623095164 881.582842897 577.158203125 782.436523438 c 0,11,12
 546.984978856 733.543456747 546.984978856 733.543456747 546.984978856 681.626141375 c 0,13,14
 546.984978856 635.56669395 546.984978856 635.56669395 570.733398438 587.126953125 c 0,15,16
 593.332644332 541.862119219 593.332644332 541.862119219 657.16015625 459.822265625 c 1,17,18
 826.45948805 489.526349447 826.45948805 489.526349447 976.739241529 489.526349447 c 0,19,20
 1056.94882168 489.526349447 1056.94882168 489.526349447 1131.74023438 481.064453125 c 1,21,-1
 1131.74023438 309.766601562 l 1,22,23
 1067.25013205 312.184155296 1067.25013205 312.184155296 1007.42388417 312.184155296 c 0,24,25
 272.998365322 312.184155296 272.998365322 312.184155296 273.249023438 -111.301757812 c 0,26,27
 272.999269986 -471.64525732 272.999269986 -471.64525732 807.351401348 -471.783752602 c 0,28,29
 997.262672644 -471.783752602 997.262672644 -471.783752602 1176.30664062 -387.446289062 c 1,30,-1
 1176.00195312 -570.739257812 l 1,31,32
 1024.37683223 -643.001630357 1024.37683223 -643.001630357 791.529296875 -643.249023438 c 0,33,34
 254.071487129 -642.912079253 254.071487129 -642.912079253 136.609375 -312.837890625 c 0,35,36
 106.987304688 -229.596679688 106.987304688 -229.596679688 106.987304688 -126.852539062 c 0,37,38
 106.987304688 248.717508783 106.987304688 248.717508783 489.1328125 405.220703125 c 1,0,1
EndSplineSet
Substitution2: "'fina' Terminal Forms in Arabic lookup 9 subtable" uniFECA
Substitution2: "'medi' Medial Forms in Arabic lookup 11 subtable" uniFECC
Substitution2: "'init' Initial Forms in Arabic lookup 13 subtable" uniFECB
EndChar

StartChar: afii57440
Encoding: 1600 1600 35
GlifName: afii57440
Width: 286
VWidth: 2950
GlyphClass: 2
Flags: W
AnchorPoint: "Anchor-10" 143.774 918.11 basechar 0
AnchorPoint: "Anchor-7" 151.7 -188.739 basechar 0
LayerCount: 2
Fore
SplineSet
312.771484375 86.3203125 m 2,0,1
 312.771484375 0 312.771484375 0 294.69140625 0 c 2,2,-1
 -6.9384765625 0 l 2,3,4
 -62.7783203125 0 -62.7783203125 0 -62.7783203125 86.3134765625 c 2,5,-1
 -62.7783203125 105.198242188 l 2,6,7
 -62.9999971059 179.999023438 -62.9999971059 179.999023438 -6.9384765625 179.999023438 c 2,8,-1
 294.64453125 179.999023438 l 2,9,10
 312.771484375 179.999987842 312.771484375 179.999987842 312.771484375 105.174804688 c 2,11,-1
 312.771484375 86.3203125 l 2,0,1
EndSplineSet
EndChar

StartChar: uni0643
Encoding: 1603 1603 38
GlifName: uni0643
Width: 1863
VWidth: 2950
GlyphClass: 2
Flags: W
AnchorPoint: "Anchor-7" 750.268 -238.468 basechar 0
AnchorPoint: "Anchor-10" 864.671 1448.06 basechar 0
LayerCount: 2
Fore
SplineSet
1012.13378906 0 m 2,0,1
 843.061523438 0 l 2,2,3
 106 0 106 0 106.16015625 463.875 c 0,4,5
 106 563 106 563 133.489257812 685 c 1,6,-1
 289.356445312 655 l 1,7,8
 271 569 271 569 271.424804688 482.515625 c 0,9,10
 273 181 273 181 843.061523438 179.993164062 c 18,11,-1
 1025 179.779296875 l 2,12,13
 1545.99558418 179.166870839 1545.99558418 179.166870839 1538.82910156 449.983398438 c 1,14,-1
 1538.82910156 1396.56640625 l 1,15,-1
 1707.70996094 1396.56640625 l 1,16,-1
 1707.70996094 452.336914062 l 2,17,18
 1707.70996094 0 1707.70996094 0 1012.13378906 0 c 2,0,1
649.720703125 611.796875 m 1,19,20
 742 602 742 602 810.09765625 601.272460938 c 0,21,22
 922 601 922 601 970.83203125 623.0625 c 0,23,24
 984 629 984 629 994.674804688 635.883789062 c 0,25,26
 1005 643 1005 643 1011.92578125 651.921875 c 128,-1,27
 1019 661 1019 661 1022.50683594 671.1875 c 0,28,29
 1026 682 1026 682 1026.30761719 693.626953125 c 0,30,31
 1026 716 1026 716 1018.61523438 733.365234375 c 0,32,33
 1011 751 1011 751 995.103515625 764.049804688 c 0,34,35
 980 778 980 778 956.668945312 786.34375 c 0,36,37
 934 795 934 795 902.94140625 799.435546875 c 0,38,39
 691 832 691 832 694.490234375 1010.44921875 c 0,40,41
 699 1214 699 1214 1083.17089844 1243.40429688 c 1,42,-1
 1083.17089844 1118.81738281 l 1,43,44
 954 1107 954 1107 888.60546875 1077.80566406 c 0,45,46
 824 1049 824 1049 823.700195312 1002.45507812 c 0,47,48
 824 926 824 926 964.171875 904.786132812 c 0,49,50
 1060 890 1060 890 1107.68066406 838.440429688 c 0,51,52
 1155 787 1155 787 1154.92480469 698.138671875 c 0,53,54
 1155 578 1155 578 1037 514 c 0,55,56
 962 473 962 473 827.55859375 473.094726562 c 0,57,58
 749 473 749 473 649.720703125 488.088867188 c 1,59,-1
 649.720703125 611.796875 l 1,19,20
EndSplineSet
Substitution2: "'fina' Terminal Forms in Arabic lookup 9 subtable" uniFEDA
Substitution2: "'medi' Medial Forms in Arabic lookup 11 subtable" uniFEDC
Substitution2: "'init' Initial Forms in Arabic lookup 13 subtable" uniFEDB
EndChar

StartChar: uni0644
Encoding: 1604 1604 39
GlifName: uni0644
Width: 1371
VWidth: 2950
GlyphClass: 2
Flags: W
AnchorPoint: "Anchor-7" 637.902 -658.086 basechar 0
AnchorPoint: "Anchor-10" 605.908 1003.66 basechar 0
LayerCount: 2
Fore
SplineSet
668.229492188 -246.216796875 m 4,0,1
 1055.55830859 -246.99910789 1055.55830859 -246.99910789 1056.60449219 147.798828125 c 2,2,-1
 1059.91210938 1395.99316406 l 1,3,-1
 1225.88476562 1395.99316406 l 1,4,-1
 1225.18554688 167.32421875 l 6,5,6
 1225 -417 1225 -417 667.329101562 -416.724609375 c 28,7,8
 444.068655962 -415.298690322 444.068655962 -415.298690322 305 -327.9921875 c 4,9,10
 103 -201 103 -201 103.752929688 99.041015625 c 4,11,12
 104 257 104 257 169.45703125 446.122070312 c 5,13,-1
 328.90234375 400.791992188 l 5,14,15
 275 233 275 233 275.268554688 100.861328125 c 4,16,17
 275 -246 275 -246 668.229492188 -246.216796875 c 4,0,1
EndSplineSet
Substitution2: "'fina' Terminal Forms in Arabic lookup 9 subtable" uniFEDE
Substitution2: "'medi' Medial Forms in Arabic lookup 11 subtable" uniFEE0
Substitution2: "'init' Initial Forms in Arabic lookup 13 subtable" uniFEDF
EndChar

StartChar: uni0645
Encoding: 1605 1605 40
GlifName: uni0645
Width: 1206
VWidth: 2620
GlyphClass: 2
Flags: W
AnchorPoint: "Anchor-7" 738.983 -292.909 basechar 0
AnchorPoint: "Anchor-10" 711.239 1132.48 basechar 0
LayerCount: 2
Fore
SplineSet
419.346679688 147.747070312 m 4,0,1
 267 146 267 146 267.751953125 -290.002929688 c 4,2,3
 268 -485 268 -485 281.634765625 -644.813476562 c 5,4,-1
 112.107421875 -644.813476562 l 1,5,6
 101 -473 101 -473 100.9765625 -316 c 0,7,8
 101 10 101 10 179.782226562 166.091796875 c 0,9,10
 260.039315984 324.077393278 260.039315984 324.077393278 388.060546875 346.029296875 c 6,11,-1
 389.381835938 346.255859375 l 5,12,-1
 389.673828125 347.564453125 l 6,13,14
 423 496 423 496 486.586914062 579.44921875 c 4,15,16
 586 709 586 709 747.333007812 709.532226562 c 4,17,18
 915 710 915 710 1020.86230469 576.84765625 c 4,19,20
 1103 474 1103 474 1102.47460938 309.612304688 c 4,21,22
 1102 162 1102 162 1010 72 c 4,23,24
 930 -7 930 -7 796.20703125 -7.2431640625 c 4,25,26
 641 -7 641 -7 535.3515625 82.3974609375 c 4,27,28
 458 148 458 148 419.346679688 147.747070312 c 4,0,1
780.724609375 166.75 m 4,29,30
 882 167 882 167 921.7421875 238.0625 c 4,31,32
 939 269 939 269 939.864257812 306.965820312 c 4,33,34
 941 356 941 356 921.57421875 405.76171875 c 4,35,36
 895 474 895 474 842.02734375 505.3359375 c 4,37,38
 802 529 802 529 750.611328125 529.158203125 c 4,39,40
 585.861873905 528.999867251 585.861873905 528.999867251 557.557617188 310.28515625 c 6,41,-1
 557.4609375 309.538085938 l 5,42,-1
 557.880859375 308.913085938 l 6,43,44
 653 167 653 167 780.724609375 166.75 c 4,29,30
EndSplineSet
Substitution2: "'init' Initial Forms in Arabic lookup 13 subtable" uniFEE3
Substitution2: "'medi' Medial Forms in Arabic lookup 11 subtable" uniFEE4
Substitution2: "'fina' Terminal Forms in Arabic lookup 9 subtable" uniFEE2
EndChar

StartChar: uni0647
Encoding: 1607 1607 42
GlifName: uni0647
Width: 942
VWidth: 2950
GlyphClass: 2
Flags: W
AnchorPoint: "Anchor-10" 418.775 1227.01 basechar 0
AnchorPoint: "Anchor-7" 450.63 -242.576 basechar 0
LayerCount: 2
Fore
SplineSet
460.549804688 643.671875 m 2,0,1
 270.000976562 476.908203125 270.000976562 476.908203125 269.884765625 348.98828125 c 0,2,3
 270.000976562 181 270.000976562 181 475.345703125 180.9921875 c 0,4,5
 683.006835938 181 683.006835938 181 682.423828125 350.155273438 c 0,6,7
 681.99609375 468.96484375 681.99609375 468.96484375 463.115234375 643.729492188 c 2,8,-1
 461.80859375 644.7734375 l 1,9,-1
 460.549804688 643.671875 l 2,0,1
393 927 m 5,10,11
 849 603 849 603 848.791992188 344.375 c 0,12,13
 849 184 849 184 733 87 c 0,14,15
 633.695373753 4.41001381423 633.695373753 4.41001381423 476.047851562 4.1943359375 c 0,16,17
 334 4 334 4 239 69 c 0,18,19
 105 160 105 160 103.368164062 343.791992188 c 0,20,21
 102 532 102 532 325.002929688 758.74609375 c 1,22,-1
 323.083007812 760.141601562 l 1,23,-1
 293.448242188 781.692382812 l 5,24,-1
 393 927 l 5,10,11
EndSplineSet
Substitution2: "'fina' Terminal Forms in Arabic lookup 9 subtable" uniFEEA
Substitution2: "'medi' Medial Forms in Arabic lookup 11 subtable" uniFEEC
Substitution2: "'init' Initial Forms in Arabic lookup 13 subtable" uniFEEB
EndChar

StartChar: uni0648
Encoding: 1608 1608 43
GlifName: uni0648
Width: 845
VWidth: 2142
GlyphClass: 2
Flags: W
AnchorPoint: "Anchor-7" 312.969 -675.998 basechar 0
AnchorPoint: "Anchor-10" 389.256 1142.2 basechar 0
LayerCount: 2
Fore
SplineSet
687.076171875 531.661132812 m 0,0,1
 743 416 743 416 758.404184015 263 c 0,2,3
 764 207 764 207 764.065788001 155 c 0,4,5
 764 -79 764 -79 647 -222.810724111 c 0,6,7
 481 -427 481 -427 87.046875 -465.592773438 c 1,8,-1
 57.650390625 -302.475585938 l 1,9,10
 497 -268 497 -268 578.123046875 0 c 1,11,-1
 520.192382812 0.8115234375 l 2,12,13
 90 7 90 7 90.0048828125 332.353515625 c 0,14,15
 90 486 90 486 176.5625 595.634765625 c 0,16,17
 264 705 264 705 408.104492188 705.077148438 c 0,18,19
 603 705 603 705 687.076171875 531.661132812 c 0,0,1
592.625976562 182.731445312 m 2,20,21
 570.534074325 525.000353216 570.534074325 525.000353216 407.401367188 525.124023438 c 0,22,23
 334 525 334 525 292.392578125 469.725585938 c 0,24,25
 253 416 253 416 253.159179688 344.564453125 c 0,26,27
 253.000184225 184.185828085 253.000184225 184.185828085 518.935546875 181.36328125 c 2,28,-1
 590.611328125 180.602539062 l 1,29,-1
 592.764648438 180.583007812 l 1,30,-1
 592.625976562 182.731445312 l 2,20,21
EndSplineSet
Substitution2: "'fina' Terminal Forms in Arabic lookup 9 subtable" uniFEEE
EndChar

StartChar: uni0649
Encoding: 1609 1609 44
GlifName: uni0649
Width: 1413
VWidth: 2950
GlyphClass: 2
Flags: MW
AnchorPoint: "Anchor-10" 576.6 1048.22 basechar 0
AnchorPoint: "Anchor-7" 640.902 -632.086 basechar 0
LayerCount: 2
Fore
SplineSet
702.405273438 -227.203125 m 0,0,1
 939 -226 939 -226 1057 -133 c 0,2,3
 1144 -65 1144 -65 1152.55175781 31.4140625 c 1,4,5
 1153.99905044 95.9576534111 1153.99905044 95.9576534111 1062.59667969 97.0146484375 c 2,6,-1
 982.034179688 97.9462890625 l 2,7,8
 745 101 745 101 742 316.024414062 c 0,9,10
 739 560 739 560 928.103515625 685.374023438 c 0,11,12
 1066 777 1066 777 1305.37304688 781.505859375 c 1,13,-1
 1305.07714844 592.713867188 l 1,14,15
 1046 590 1046 590 952.436523438 459.66796875 c 0,16,17
 912 404 912 404 913.303710938 329.970703125 c 0,18,19
 913.998957388 280.074825339 913.998957388 280.074825339 975.998046875 280.037109375 c 2,20,-1
 1037 280 l 2,21,22
 1324 280 1324 280 1322.64941406 68 c 0,23,24
 1322 -101 1322 -101 1210 -220 c 0,25,26
 1045 -397 1045 -397 695.326171875 -397.724609375 c 0,27,28
 475 -398 475 -398 329 -312.764648438 c 4,29,30
 101 -179 101 -179 101.752929688 149.041015625 c 0,31,32
 102 352 102 352 168.5546875 547.330078125 c 1,33,-1
 327 502 l 1,34,35
 273 322 273 322 273.268554688 150.861328125 c 0,36,37
 273 -230 273 -230 702.405273438 -227.203125 c 0,0,1
EndSplineSet
Substitution2: "'fina' Terminal Forms in Arabic lookup 9 subtable" uniFEF0
Substitution2: "'medi' Medial Forms in Arabic lookup 11 subtable" uniFBE9
Substitution2: "'init' Initial Forms in Arabic lookup 13 subtable" uniFBE8
EndChar

StartChar: uni064B
Encoding: 1611 1611 46
GlifName: uni064B_
Width: -26
VWidth: 2314
GlyphClass: 4
Flags: W
AnchorPoint: "Anchor-10" 593.551 1111.65 mark 0
AnchorPoint: "Anchor-9" 593.551 1111.65 mark 0
AnchorPoint: "Anchor-1" 553.285 1664.25 basemark 0
AnchorPoint: "Anchor-1" 593.551 1111.65 mark 0
LayerCount: 2
Fore
SplineSet
328.700195312 1077.37988281 m 1,0,-1
 328.700195312 1176.63476562 l 1,1,-1
 780.099609375 1361.29882812 l 1,2,-1
 780.099609375 1262.04296875 l 1,3,-1
 328.700195312 1077.37988281 l 1,0,-1
328.700195312 1329.37988281 m 1,4,-1
 328.700195312 1428.63476562 l 1,5,-1
 780.099609375 1613.29882812 l 1,6,-1
 780.099609375 1514.04296875 l 1,7,-1
 328.700195312 1329.37988281 l 1,4,-1
EndSplineSet
EndChar

StartChar: uni064C
Encoding: 1612 1612 47
GlifName: uni064C_
Width: -26
VWidth: 2314
GlyphClass: 4
Flags: W
AnchorPoint: "Anchor-10" 672.906 1228.67 mark 0
AnchorPoint: "Anchor-9" 672.906 1228.67 mark 0
AnchorPoint: "Anchor-1" 571.739 1913.46 basemark 0
AnchorPoint: "Anchor-1" 672.906 1228.67 mark 0
LayerCount: 2
Fore
SplineSet
586.173828125 1716.4921875 m 0,0,1
 566.006835938 1692.74316406 566.006835938 1692.74316406 565.713867188 1662.09765625 c 0,2,3
 566 1604.08984375 566 1604.08984375 632.806640625 1576.00195312 c 1,4,-1
 707.20703125 1550.91699219 l 1,5,-1
 708.70703125 1550.46875 l 1,6,-1
 709.501953125 1551.81738281 l 2,7,8
 713.423828125 1558.46875 713.423828125 1558.46875 716.788085938 1565.15917969 c 128,-1,9
 720.151367188 1571.84960938 720.151367188 1571.84960938 722.95703125 1578.58105469 c 128,-1,10
 725.762695312 1585.3125 725.762695312 1585.3125 728.008789062 1592.08007812 c 128,-1,11
 730.25390625 1598.84765625 730.25390625 1598.84765625 731.940429688 1605.65527344 c 128,-1,12
 733.625976562 1612.46191406 733.625976562 1612.46191406 734.750976562 1619.30371094 c 128,-1,13
 735.875976562 1626.14550781 735.875976562 1626.14550781 736.438476562 1633.02636719 c 128,-1,14
 737.001953125 1639.90722656 737.001953125 1639.90722656 737.001953125 1646.8203125 c 0,15,16
 737 1747.01757812 737 1747.01757812 654.286132812 1746.29394531 c 0,17,18
 611.065429688 1745.99316406 611.065429688 1745.99316406 586.173828125 1716.4921875 c 0,0,1
316.834960938 1510.47949219 m 1,19,20
 319 1397 319 1397 353.145507812 1340.97363281 c 0,21,22
 388 1284 388 1284 452.557617188 1285.27539062 c 0,23,24
 489 1286 489 1286 526.092773438 1304.51953125 c 128,-1,25
 563 1323 563 1323 601.911132812 1360.67773438 c 0,26,27
 624 1383 624 1383 645.416015625 1413.41210938 c 0,28,29
 667.06062069 1445.08871762 667.06062069 1445.08871762 686.413085938 1483.27929688 c 2,30,-1
 687.588867188 1485.59960938 l 1,31,-1
 685.043945312 1486.13964844 l 1,32,-1
 655.4609375 1492.41796875 l 2,33,34
 642 1495 642 1495 624.004882812 1500.30371094 c 0,35,36
 609 1505 609 1505 596.099609375 1509.64355469 c 0,37,38
 583 1515 583 1515 571.752929688 1520.41894531 c 0,39,40
 560 1526 560 1526 550.936523438 1532.62402344 c 0,41,42
 541 1539 541 1539 533.661132812 1546.23730469 c 0,43,44
 526 1553 526 1553 519.903320312 1561.25292969 c 0,45,46
 504 1582 504 1582 495.96484375 1605.43066406 c 0,47,48
 488 1628 488 1628 488 1653.09960938 c 0,49,50
 488 1704 488 1704 504.84765625 1736.78417969 c 0,51,52
 527 1779 527 1779 562.822265625 1800.0859375 c 0,53,54
 599 1821 599 1821 650.19140625 1821.4140625 c 0,55,56
 721 1822 721 1822 763.80078125 1780.84375 c 0,57,58
 811 1735 811 1735 811.390625 1648.359375 c 0,59,60
 811.994958365 1608.33391134 811.994958365 1608.33391134 789.83203125 1539.734375 c 2,61,-1
 789.032226562 1537.25878906 l 1,62,-1
 791.630859375 1537.12207031 l 1,63,-1
 821.76171875 1535.54003906 l 2,64,65
 851 1534 851 1534 878.497070312 1533.55273438 c 1,66,-1
 878.497070312 1459.05859375 l 1,67,68
 840.619192712 1459.98485828 840.619192712 1459.98485828 830.08203125 1460.99804688 c 2,69,-1
 753.91015625 1468.32226562 l 1,70,-1
 752.432617188 1468.46386719 l 1,71,-1
 751.869140625 1467.09082031 l 2,72,73
 737 1430 737 1430 716.833984375 1397.07910156 c 0,74,75
 697 1364 697 1364 668.5 1341 c 128,-1,76
 640 1318 640 1318 610.720703125 1292.63769531 c 4,77,78
 540 1230 540 1230 535.689941406 1228.37646484 c 0,79,80
 496 1211 496 1211 453.668945312 1210.96386719 c 0,81,82
 362 1210 362 1210 315.0625 1285.16308594 c 0,83,84
 268 1360 268 1360 265.181640625 1510.47949219 c 1,85,-1
 316.834960938 1510.47949219 l 1,19,20
EndSplineSet
EndChar

StartChar: uni064D
Encoding: 1613 1613 48
GlifName: uni064D_
Width: -26
VWidth: 2314
GlyphClass: 4
Flags: W
AnchorPoint: "Anchor-7" 532.278 35.7109 mark 0
AnchorPoint: "Anchor-6" 532.278 35.7109 mark 0
AnchorPoint: "Anchor-0" 592.022 -449.025 basemark 0
AnchorPoint: "Anchor-0" 532.278 35.7109 mark 0
LayerCount: 2
Fore
SplineSet
334.099609375 -485.020507812 m 1,0,-1
 334.099609375 -385.765625 l 1,1,-1
 785.5 -201.1015625 l 1,2,-1
 785.5 -300.357421875 l 1,3,-1
 334.099609375 -485.020507812 l 1,0,-1
334.099609375 -233.020507812 m 1,4,-1
 334.099609375 -133.765625 l 1,5,-1
 785.5 50.8984375 l 1,6,-1
 785.5 -48.357421875 l 1,7,-1
 334.099609375 -233.020507812 l 1,4,-1
EndSplineSet
EndChar

StartChar: uni064E
Encoding: 1614 1614 49
GlifName: uni064E_
Width: -26
VWidth: 2314
GlyphClass: 4
Flags: W
AnchorPoint: "Anchor-10" 557.66 1370.63 mark 0
AnchorPoint: "Anchor-9" 557.66 1370.63 mark 0
AnchorPoint: "Anchor-1" 541.396 1689.77 basemark 0
AnchorPoint: "Anchor-1" 557.66 1370.63 mark 0
LayerCount: 2
Fore
SplineSet
298.099609375 1350.07910156 m 1,0,-1
 298.099609375 1449.33496094 l 1,1,-1
 749.5 1633.99902344 l 1,2,-1
 749.5 1534.74316406 l 1,3,-1
 298.099609375 1350.07910156 l 1,0,-1
EndSplineSet
EndChar

StartChar: uni064F
Encoding: 1615 1615 50
GlifName: uni064F_
Width: -26
VWidth: 2314
GlyphClass: 4
Flags: W
AnchorPoint: "Anchor-10" 601.295 1307.37 mark 0
AnchorPoint: "Anchor-9" 601.295 1307.37 mark 0
AnchorPoint: "Anchor-1" 580.134 1918.4 basemark 0
AnchorPoint: "Anchor-1" 601.295 1307.37 mark 0
LayerCount: 2
Fore
SplineSet
820.65234375 1474.00292969 m 1,0,1
 805.640625 1474.02832031 805.640625 1474.02832031 792.26953125 1474.34667969 c 128,-1,2
 778.897460938 1474.66503906 778.897460938 1474.66503906 766.923828125 1475.28710938 c 128,-1,3
 754.94921875 1475.90820312 754.94921875 1475.90820312 744.35546875 1476.828125 c 128,-1,4
 733.76171875 1477.74707031 733.76171875 1477.74707031 724.2578125 1478.98339844 c 2,5,-1
 692.940429688 1483.05664062 l 1,6,-1
 691.748046875 1483.21191406 l 1,7,-1
 691.051757812 1482.23144531 l 2,8,9
 657.923828125 1435.59277344 657.923828125 1435.59277344 618.232421875 1399.84179688 c 128,-1,10
 578.540039062 1364.09082031 578.540039062 1364.09082031 532.23828125 1339.19335938 c 128,-1,11
 485.936523438 1314.29492188 485.936523438 1314.29492188 433.052734375 1300.20605469 c 128,-1,12
 380.16796875 1286.11816406 380.16796875 1286.11816406 320.57421875 1282.78125 c 1,13,-1
 320.57421875 1357.01269531 l 1,14,15
 509.623046875 1365.83203125 509.623046875 1365.83203125 607.5390625 1504.34667969 c 2,16,-1
 609.319335938 1506.86425781 l 1,17,-1
 606.294921875 1507.46289062 l 2,18,19
 563.690429688 1515.90234375 563.690429688 1515.90234375 517.501953125 1541.19042969 c 0,20,21
 432.002929688 1589.16894531 432.002929688 1589.16894531 432.25 1673.52929688 c 0,22,23
 432.435546875 1689.49902344 432.435546875 1689.49902344 434.75 1704.10644531 c 128,-1,24
 437.064453125 1718.71484375 437.064453125 1718.71484375 441.505859375 1731.95800781 c 128,-1,25
 445.947265625 1745.20214844 445.947265625 1745.20214844 452.50390625 1757.08984375 c 128,-1,26
 459.059570312 1768.9765625 459.059570312 1768.9765625 467.739257812 1779.53320312 c 0,27,28
 512.938476562 1834 512.938476562 1834 592.971679688 1833.95996094 c 0,29,30
 623.173828125 1833.97949219 623.173828125 1833.97949219 649.268554688 1825.10546875 c 128,-1,31
 675.36328125 1816.23144531 675.36328125 1816.23144531 697.45703125 1798.44238281 c 0,32,33
 729.323242188 1772.78222656 729.323242188 1772.78222656 743.864257812 1734.50097656 c 0,34,35
 748.924804688 1720.59570312 748.924804688 1720.59570312 751.34765625 1705.32421875 c 128,-1,36
 753.770507812 1690.05371094 753.770507812 1690.05371094 753.545898438 1673.41894531 c 0,37,38
 753.366210938 1654.13867188 753.366210938 1654.13867188 750.466796875 1634.56542969 c 128,-1,39
 747.567382812 1614.99121094 747.567382812 1614.99121094 741.940429688 1595.09863281 c 128,-1,40
 736.313476562 1575.20703125 736.313476562 1575.20703125 727.959960938 1555.01269531 c 2,41,-1
 726.918945312 1552.49707031 l 1,42,-1
 729.629882812 1552.25585938 l 1,43,-1
 749.439453125 1550.49316406 l 2,44,45
 787.512695312 1547.12402344 787.512695312 1547.12402344 820.65234375 1548.20898438 c 1,46,-1
 820.65234375 1474.00292969 l 1,0,1
651.768554688 1566.984375 m 1,47,-1
 657.93359375 1581.20117188 l 2,48,49
 678.998046875 1629.58007812 678.998046875 1629.58007812 679.158203125 1671.72460938 c 0,50,51
 678.99609375 1713.95117188 678.99609375 1713.95117188 653.373046875 1734.9140625 c 0,52,53
 627.756835938 1756.98828125 627.756835938 1756.98828125 596.96484375 1757.47167969 c 0,54,55
 581.719726562 1757.65039062 581.719726562 1757.65039062 568.712890625 1754.11914062 c 128,-1,56
 555.705078125 1750.58789062 555.705078125 1750.58789062 544.954101562 1743.32519531 c 128,-1,57
 534.202148438 1736.06347656 534.202148438 1736.06347656 525.802734375 1725.10351562 c 0,58,59
 517.1171875 1713.34960938 517.1171875 1713.34960938 512.637695312 1699.58691406 c 128,-1,60
 508.159179688 1685.82421875 508.159179688 1685.82421875 507.868164062 1670.04296875 c 0,61,62
 508.00390625 1621.71679688 508.00390625 1621.71679688 574.896484375 1590.97558594 c 0,63,64
 598.305664062 1580.1171875 598.305664062 1580.1171875 649.395507812 1565.85351562 c 2,65,-1
 651.075195312 1565.38476562 l 1,66,-1
 651.768554688 1566.984375 l 1,47,-1
EndSplineSet
EndChar

StartChar: uni0650
Encoding: 1616 1616 51
GlifName: uni0650
Width: -26
VWidth: 2314
GlyphClass: 4
Flags: W
AnchorPoint: "Anchor-7" 563.144 -60.8242 mark 0
AnchorPoint: "Anchor-6" 563.144 -60.8242 mark 0
AnchorPoint: "Anchor-0" 602.091 -318.624 basemark 0
AnchorPoint: "Anchor-0" 563.144 -60.8242 mark 0
LayerCount: 2
Fore
SplineSet
344.900390625 -344.620117188 m 1,0,-1
 344.900390625 -245.365234375 l 1,1,-1
 796.299804688 -60.701171875 l 1,2,-1
 796.299804688 -159.95703125 l 1,3,-1
 344.900390625 -344.620117188 l 1,0,-1
EndSplineSet
EndChar

StartChar: uni0651
Encoding: 1617 1617 52
GlifName: uni0651
Width: -26
VWidth: 2391
GlyphClass: 4
Flags: W
AnchorPoint: "Anchor-10" 598.801 1461.71 mark 0
AnchorPoint: "Anchor-9" 598.801 1461.71 mark 0
AnchorPoint: "Anchor-1" 570.087 1847.1 basemark 0
AnchorPoint: "Anchor-1" 598.801 1461.71 mark 0
LayerCount: 2
Fore
SplineSet
582.95703125 1543.67480469 m 1,0,1
 558 1438 558 1438 431.990234375 1437.88964844 c 0,2,3
 300 1438 300 1438 296.302734375 1604.53027344 c 0,4,5
 295 1663 295 1663 308.534179688 1711.47167969 c 1,6,-1
 382.998046875 1699.09179688 l 1,7,8
 348 1532 348 1532 443.645507812 1531.90234375 c 0,9,10
 528 1531 528 1531 531.948242188 1647.13964844 c 0,11,12
 534 1697 534 1697 533.119140625 1764.46289062 c 1,13,-1
 606.504882812 1764.46289062 l 1,14,15
 608 1724 608 1724 608.623046875 1683.89648438 c 0,16,17
 608 1590 608 1590 676.705078125 1590.25195312 c 0,18,19
 779 1591 779 1591 733.483398438 1809.26269531 c 1,20,-1
 817.732421875 1822.60742188 l 1,21,22
 835 1762 835 1762 834.52734375 1703.04589844 c 0,23,24
 835 1503 835 1503 690.3828125 1501.66601562 c 0,25,26
 618 1501 618 1501 582.95703125 1543.67480469 c 1,0,1
EndSplineSet
EndChar

StartChar: uni0652
Encoding: 1618 1618 53
GlifName: uni0652
Width: -26
VWidth: 2314
GlyphClass: 4
Flags: W
AnchorPoint: "Anchor-10" 603.219 1220.43 mark 0
AnchorPoint: "Anchor-9" 603.219 1220.43 mark 0
AnchorPoint: "Anchor-1" 577.537 1797.66 basemark 0
AnchorPoint: "Anchor-1" 603.219 1220.43 mark 0
LayerCount: 2
Fore
SplineSet
400.139648438 1459.671875 m 0,0,1
 400.139648438 1540.74414062 400.139648438 1540.74414062 456.252929688 1596.85839844 c 128,-1,2
 512.3671875 1652.97167969 512.3671875 1652.97167969 593.439453125 1652.97167969 c 128,-1,3
 674.510742188 1652.97167969 674.510742188 1652.97167969 730.625 1596.85839844 c 0,4,5
 758.708007812 1568.77441406 758.708007812 1568.77441406 772.723632812 1534.51464844 c 128,-1,6
 786.739257812 1500.25488281 786.739257812 1500.25488281 786.739257812 1459.671875 c 0,7,8
 786.739257812 1378.60058594 786.739257812 1378.60058594 730.625 1322.48632812 c 0,9,10
 716.58203125 1308.44335938 716.58203125 1308.44335938 701.00390625 1297.92285156 c 128,-1,11
 685.426757812 1287.40234375 685.426757812 1287.40234375 668.28515625 1280.38964844 c 128,-1,12
 651.14453125 1273.37695312 651.14453125 1273.37695312 632.439453125 1269.87402344 c 128,-1,13
 613.734375 1266.37207031 613.734375 1266.37207031 593.439453125 1266.37207031 c 0,14,15
 552.856445312 1266.37207031 552.856445312 1266.37207031 518.596679688 1280.38769531 c 128,-1,16
 484.336914062 1294.40332031 484.336914062 1294.40332031 456.252929688 1322.48632812 c 128,-1,17
 428.169921875 1350.5703125 428.169921875 1350.5703125 414.155273438 1384.83007812 c 128,-1,18
 400.139648438 1419.08984375 400.139648438 1419.08984375 400.139648438 1459.671875 c 0,0,1
482.5390625 1458.77246094 m 0,19,20
 482.194335938 1411.0703125 482.194335938 1411.0703125 515.525390625 1378.15820312 c 0,21,22
 548.165039062 1345.09863281 548.165039062 1345.09863281 596.13671875 1345.171875 c 0,23,24
 643.421875 1345.09863281 643.421875 1345.09863281 676.758789062 1378.1640625 c 0,25,26
 709.39453125 1411.07128906 709.39453125 1411.07128906 709.739257812 1458.77246094 c 0,27,28
 709.39453125 1506.32714844 709.39453125 1506.32714844 676.752929688 1539.38574219 c 0,29,30
 665.65625 1550.34375 665.65625 1550.34375 652.982421875 1557.66796875 c 128,-1,31
 640.30859375 1564.99316406 640.30859375 1564.99316406 626.090820312 1568.66992188 c 128,-1,32
 611.873046875 1572.34765625 611.873046875 1572.34765625 596.13671875 1572.37207031 c 0,33,34
 548.166015625 1572.29882812 548.166015625 1572.29882812 515.53125 1539.39160156 c 0,35,36
 482.194335938 1506.32714844 482.194335938 1506.32714844 482.5390625 1458.77246094 c 0,19,20
EndSplineSet
EndChar

StartChar: uni0653
Encoding: 1619 1619 54
GlifName: uni0653
Width: -30
VWidth: 2671
GlyphClass: 4
Flags: W
AnchorPoint: "Anchor-10" 461.017 1537.11 mark 0
AnchorPoint: "Anchor-9" 461.017 1537.11 mark 0
AnchorPoint: "Anchor-1" 461.017 1973.25 basemark 0
AnchorPoint: "Anchor-1" 461.017 1537.11 mark 0
LayerCount: 2
Fore
SplineSet
400.62109375 1636.78613281 m 2,0,1
 344.918945312 1644.45214844 344.918945312 1644.45214844 293.795898438 1620.92773438 c 128,-1,2
 242.672851562 1597.40332031 242.672851562 1597.40332031 196.974609375 1543.62792969 c 1,3,-1
 98.2705078125 1647.49316406 l 1,4,5
 216.145507812 1815.12792969 216.145507812 1815.12792969 383.438476562 1788.18359375 c 2,6,-1
 532.178710938 1764.22753906 l 2,7,8
 629.478515625 1748.05957031 629.478515625 1748.05957031 751.0859375 1809.03808594 c 1,9,-1
 815.078125 1676.03417969 l 1,10,11
 751.182617188 1636.5390625 751.182617188 1636.5390625 682.859375 1621.94335938 c 128,-1,12
 614.53515625 1607.34667969 614.53515625 1607.34667969 541.141601562 1617.44726562 c 2,13,-1
 400.62109375 1636.78613281 l 2,0,1
EndSplineSet
EndChar

StartChar: uni0657
Encoding: 1623 1623 57
GlifName: uni0657
Width: -26
VWidth: 2314
GlyphClass: 4
Flags: W
AnchorPoint: "Anchor-10" 573.285 1348.55 mark 0
AnchorPoint: "Anchor-9" 573.285 1348.55 mark 0
AnchorPoint: "Anchor-1" 573.285 2087.85 basemark 0
AnchorPoint: "Anchor-1" 573.285 1348.55 mark 0
LayerCount: 2
Fore
SplineSet
266.529296875 1800.60253906 m 1,0,1
 325.3125 1798.8515625 325.3125 1798.8515625 394.318359375 1791.61230469 c 2,2,-1
 395.48828125 1791.49023438 l 1,3,-1
 396.1640625 1792.45214844 l 1,4,-1
 397.380859375 1794.18457031 l 2,5,6
 545.303710938 2004.95117188 545.303710938 2004.95117188 782.673828125 2028.51074219 c 1,7,-1
 782.673828125 1954.29394531 l 1,8,9
 598.282226562 1924.04882812 598.282226562 1924.04882812 484.698242188 1777.41601562 c 2,10,-1
 482.904296875 1775.10058594 l 1,11,-1
 485.713867188 1774.2734375 l 2,12,13
 547.100585938 1756.1796875 547.100585938 1756.1796875 589.91796875 1724.87207031 c 0,14,15
 656 1675.00390625 656 1675.00390625 655.9765625 1596.87011719 c 0,16,17
 656 1527.81152344 656 1527.81152344 611.818359375 1482.31933594 c 0,18,19
 569.149414062 1438 569.149414062 1438 501.358398438 1438.01367188 c 0,20,21
 464.551757812 1438.00683594 464.551757812 1438.00683594 433.017578125 1450.88671875 c 128,-1,22
 401.484375 1463.76757812 401.484375 1463.76757812 375.107421875 1489.57910156 c 0,23,24
 333.99609375 1530.83105469 333.99609375 1530.83105469 333.635742188 1601.27636719 c 0,25,26
 333.997070312 1644.68945312 333.997070312 1644.68945312 357.283203125 1719.83300781 c 2,27,-1
 358.016601562 1722.19824219 l 1,28,-1
 355.549804688 1722.41699219 l 2,29,30
 342.495117188 1723.57324219 342.495117188 1723.57324219 327.922851562 1724.40820312 c 128,-1,31
 313.350585938 1725.24316406 313.350585938 1725.24316406 297.953125 1725.73046875 c 128,-1,32
 282.555664062 1726.21777344 282.555664062 1726.21777344 266.529296875 1726.36035156 c 1,33,-1
 266.529296875 1800.60253906 l 1,0,1
501.374023438 1512.40234375 m 0,34,35
 543.026367188 1513.01464844 543.026367188 1513.01464844 563.370117188 1540.83984375 c 0,36,37
 571.200195312 1552.12890625 571.200195312 1552.12890625 575.176757812 1565.56933594 c 128,-1,38
 579.153320312 1579.00976562 579.153320312 1579.00976562 579.313476562 1594.62890625 c 0,39,40
 579.267578125 1603.33398438 579.267578125 1603.33398438 577.587890625 1611.49023438 c 128,-1,41
 575.907226562 1619.64648438 575.907226562 1619.64648438 572.611328125 1627.21777344 c 128,-1,42
 569.31640625 1634.7890625 569.31640625 1634.7890625 564.405273438 1641.80859375 c 128,-1,43
 559.495117188 1648.828125 559.495117188 1648.828125 552.997070312 1655.26757812 c 128,-1,44
 546.499023438 1661.70703125 546.499023438 1661.70703125 538.405273438 1667.59082031 c 128,-1,45
 530.311523438 1673.47558594 530.311523438 1673.47558594 520.657226562 1678.78417969 c 128,-1,46
 511.00390625 1684.09277344 511.00390625 1684.09277344 499.7734375 1688.84472656 c 0,47,48
 493.54296875 1691.45703125 493.54296875 1691.45703125 487.321289062 1693.82519531 c 128,-1,49
 481.099609375 1696.19238281 481.099609375 1696.19238281 474.88671875 1698.31542969 c 128,-1,50
 468.672851562 1700.43847656 468.672851562 1700.43847656 462.46875 1702.31640625 c 128,-1,51
 456.264648438 1704.19433594 456.264648438 1704.19433594 450.069335938 1705.82617188 c 128,-1,52
 443.873046875 1707.45898438 443.873046875 1707.45898438 437.686523438 1708.84570312 c 2,53,-1
 436.0625 1709.20996094 l 1,54,-1
 435.409179688 1707.67871094 l 2,55,56
 408 1643.40820312 408 1643.40820312 408.0234375 1602.96679688 c 0,57,58
 408.01171875 1592.30078125 408.01171875 1592.30078125 409.741210938 1582.96679688 c 128,-1,59
 411.470703125 1573.6328125 411.470703125 1573.6328125 414.956054688 1565.64648438 c 128,-1,60
 418.448242188 1557.62890625 418.448242188 1557.62890625 423.635742188 1550.62304688 c 128,-1,61
 428.82421875 1543.6171875 428.82421875 1543.6171875 435.665039062 1537.66210938 c 128,-1,62
 442.504882812 1531.70605469 442.504882812 1531.70605469 450.99609375 1526.78710938 c 0,63,64
 463.706054688 1519.40625 463.706054688 1519.40625 476.307617188 1515.80175781 c 128,-1,65
 488.91015625 1512.19628906 488.91015625 1512.19628906 501.374023438 1512.40234375 c 0,34,35
EndSplineSet
EndChar

StartChar: uni065A
Encoding: 1626 1626 58
GlifName: uni065A_
Width: 1135
VWidth: 2314
GlyphClass: 4
Flags: W
AnchorPoint: "Anchor-10" 573.285 1348.55 mark 0
AnchorPoint: "Anchor-9" 573.285 1348.55 mark 0
AnchorPoint: "Anchor-1" 571.012 1860.38 basemark 0
AnchorPoint: "Anchor-1" 573.285 1348.55 mark 0
LayerCount: 2
Fore
SplineSet
503.500976562 1444.42578125 m 1,0,-1
 312.05078125 1764.49023438 l 1,1,-1
 411.852539062 1764.49023438 l 1,2,-1
 571.62109375 1524.83007812 l 1,3,-1
 573.28515625 1522.33398438 l 1,4,-1
 574.94921875 1524.83007812 l 1,5,-1
 734.71875 1764.49023438 l 1,6,-1
 834.521484375 1764.49023438 l 1,7,-1
 643.068359375 1444.42578125 l 1,8,-1
 503.500976562 1444.42578125 l 1,0,-1
EndSplineSet
EndChar

StartChar: afii57392
Encoding: 1632 1632 59
GlifName: afii57392
Width: 893
VWidth: 2952
GlyphClass: 2
Flags: W
LayerCount: 2
Fore
SplineSet
309.290039062 543.262695312 m 132,-1,1
 309.290039062 483.686523438 309.290039062 483.686523438 350.400390625 442.579101562 c 4,2,3
 370.923828125 422.0546875 370.923828125 422.0546875 396.515625 411.638671875 c 132,-1,4
 422.106445312 401.22265625 422.106445312 401.22265625 452.592773438 400.966796875 c 4,5,6
 512.68359375 401.48046875 512.68359375 401.48046875 553.782226562 442.579101562 c 4,7,8
 574.297851562 463.094726562 574.297851562 463.094726562 584.594726562 488.3203125 c 132,-1,9
 594.890625 513.545898438 594.890625 513.545898438 594.890625 543.262695312 c 132,-1,10
 594.890625 572.98046875 594.890625 572.98046875 584.594726562 598.20703125 c 132,-1,11
 574.298828125 623.432617188 574.298828125 623.432617188 553.782226562 643.94921875 c 4,12,13
 512.68359375 685.046875 512.68359375 685.046875 451.587890625 685.560546875 c 4,14,15
 421.594726562 685.3046875 421.594726562 685.3046875 396.258789062 674.887695312 c 132,-1,16
 370.922851562 664.470703125 370.922851562 664.470703125 350.400390625 643.94921875 c 4,17,0
 309.290039062 602.83984375 309.290039062 602.83984375 309.290039062 543.262695312 c 132,-1,1
223.629882812 767.463867188 m 4,18,19
 246.936523438 790.76953125 246.936523438 790.76953125 272.502929688 808.217773438 c 132,-1,20
 298.0703125 825.666992188 298.0703125 825.666992188 325.919921875 837.284179688 c 4,21,22
 381.620117188 860.51953125 381.620117188 860.51953125 446.678710938 860.51953125 c 4,23,24
 490.053710938 860.51953125 490.053710938 860.51953125 529.258789062 850.193359375 c 132,-1,25
 568.46484375 839.8671875 568.46484375 839.8671875 603.568359375 819.192382812 c 132,-1,26
 638.672851562 798.518554688 638.672851562 798.518554688 669.727539062 767.463867188 c 4,27,28
 716.303710938 720.887695312 716.303710938 720.887695312 739.543945312 665.178710938 c 132,-1,29
 762.784179688 609.469726562 762.784179688 609.469726562 762.784179688 544.4140625 c 4,30,31
 762.784179688 414.420898438 762.784179688 414.420898438 669.727539062 321.364257812 c 4,32,33
 646.422851562 298.059570312 646.422851562 298.059570312 620.858398438 280.65234375 c 132,-1,34
 595.29296875 263.244140625 595.29296875 263.244140625 567.446289062 251.705078125 c 132,-1,35
 539.586914062 240.16015625 539.586914062 240.16015625 509.411132812 234.466796875 c 132,-1,36
 479.235351562 228.774414062 479.235351562 228.774414062 446.625 228.923828125 c 4,37,38
 381.583007812 228.625 381.583007812 228.625 325.895507812 251.70703125 c 4,39,40
 307.336914062 259.399414062 307.336914062 259.399414062 289.796875 269.6953125 c 132,-1,41
 272.256835938 279.991210938 272.256835938 279.991210938 255.711914062 292.909179688 c 132,-1,42
 239.166992188 305.827148438 239.166992188 305.827148438 223.629882812 321.364257812 c 4,43,44
 177.055664062 367.939453125 177.055664062 367.939453125 153.81640625 423.6484375 c 132,-1,45
 130.577148438 479.357421875 130.577148438 479.357421875 130.577148438 544.415039062 c 132,-1,46
 130.577148438 609.475585938 130.577148438 609.475585938 153.811523438 665.17578125 c 132,-1,47
 177.049804688 720.883789062 177.049804688 720.883789062 223.629882812 767.463867188 c 4,18,19
EndSplineSet
EndChar

StartChar: afii57393
Encoding: 1633 1633 60
GlifName: afii57393
Width: 716
VWidth: 2952
GlyphClass: 2
Flags: W
LayerCount: 2
Fore
SplineSet
309.71875 1366.01269531 m 5,0,1
 514.115234375 917.747277526 514.115234375 917.747277526 514.115234375 278.771484375 c 6,2,-1
 514.115234375 11.5537109375 l 1,3,-1
 334.796875 11.5537109375 l 1,4,-1
 334.791992188 281.91796875 l 6,5,6
 335 923 335 923 144.876953125 1307.90820312 c 5,7,-1
 309.71875 1366.01269531 l 5,0,1
EndSplineSet
EndChar

StartChar: afii57394
Encoding: 1634 1634 61
GlifName: afii57394
Width: 1197
VWidth: 2952
GlyphClass: 2
Flags: W
LayerCount: 2
Fore
SplineSet
480.4296875 771.508789062 m 5,0,1
 514.115234375 514.995511459 514.115234375 514.995511459 514.115234375 278.771484375 c 6,2,-1
 514.115234375 11.5537109375 l 1,3,-1
 334.796875 11.5537109375 l 1,4,-1
 334.791992188 281.91796875 l 6,5,6
 335 923 335 923 144.876953125 1307.90820312 c 5,7,-1
 309.497070312 1365.9375 l 5,8,-1
 411.250976562 1084.26855469 l 5,9,10
 472 912 472 912 685.032226562 911.76953125 c 4,11,12
 793 912 793 912 844 1012 c 132,-1,13
 895 1112 895 1112 895.948242188 1354.54394531 c 5,14,-1
 1075.69335938 1353.99023438 l 5,15,16
 1072.26698541 983.410999506 1072.26698541 983.410999506 968.633492705 853.705499753 c 132,-1,17
 865 724 865 724 689.243164062 724.568359375 c 4,18,19
 554 725 554 725 480.4296875 771.508789062 c 5,0,1
EndSplineSet
EndChar

StartChar: afii57395
Encoding: 1635 1635 62
GlifName: afii57395
Width: 1492
VWidth: 2952
GlyphClass: 2
Flags: W
LayerCount: 2
Fore
SplineSet
480.080078125 774.03515625 m 1,0,1
 514.115234375 517.284511529 514.115234375 517.284511529 514.115234375 278.771484375 c 2,2,-1
 514.115234375 11.5537109375 l 1,3,-1
 334.796875 11.5537109375 l 1,4,-1
 334.791992188 281.916992188 l 2,5,6
 335 923 335 923 144.876953125 1307.90820312 c 1,7,-1
 309.466796875 1365.92675781 l 1,8,-1
 419.159179688 1051.63671875 l 2,9,10
 462 929 462 929 610.522460938 927.631835938 c 0,11,12
 770.313712353 926.998757099 770.313712353 926.998757099 764.365234375 1184.56054688 c 2,13,-1
 761.662109375 1301.60253906 l 1,14,-1
 920.317382812 1306.65332031 l 1,15,-1
 924.010742188 1162.3984375 l 2,16,17
 930 922 930 922 1080.54199219 920.891601562 c 0,18,19
 1150 920 1150 920 1179.53916696 985.587569325 c 128,-1,20
 1209.07833393 1051.17513865 1209.07833393 1051.17513865 1209.51855469 1238.29785156 c 2,21,-1
 1209.83105469 1371.13085938 l 1,22,-1
 1386.63378906 1371.29394531 l 1,23,-1
 1386.0546875 1240.61523438 l 2,24,25
 1386 1182 1386 1182 1378.70898438 1093.52148438 c 0,26,27
 1350 736 1350 736 1086.67382812 737.768554688 c 0,28,29
 936.561714736 739.003606003 936.561714736 739.003606003 837.467773438 853.89453125 c 1,30,31
 742.014219941 737.000006774 742.014219941 737.000006774 633.388846735 737.000071669 c 128,-1,32
 524.763473528 737.000136564 524.763473528 737.000136564 480.080078125 774.03515625 c 1,0,1
EndSplineSet
EndChar

StartChar: afii57396
Encoding: 1636 1636 63
GlifName: afii57396
Width: 1046
VWidth: 2952
GlyphClass: 2
Flags: W
LayerCount: 2
Fore
SplineSet
139.309570312 298.82421875 m 0,0,1
 131 532 131 532 531.677734375 709.083007812 c 5,2,3
 221 772 221 772 221.663085938 1016.95703125 c 4,4,5
 222 1108 222 1108 269.499023438 1176.296875 c 4,6,7
 382 1340 382 1340 666 1343.328125 c 4,8,9
 733 1344 733 1344 810.08203125 1334.38085938 c 5,10,-1
 797.461914062 1152.27636719 l 5,11,12
 747 1158 747 1158 704 1158.45898438 c 4,13,14
 422 1159 422 1159 420.830078125 999.084960938 c 4,15,16
 420 858 420 858 777.768554688 828.708984375 c 5,17,-1
 780.048828125 645.10546875 l 5,18,19
 316 459 316 459 325.516601562 307.264648438 c 0,20,21
 333.021138397 180.643339549 333.021138397 180.643339549 713.831054688 183.053710938 c 2,22,-1
 907.767578125 184.28125 l 1,23,-1
 909.984375 0.01953125 l 1,24,-1
 707.081054688 0.46875 l 2,25,26
 150 2 150 2 139.309570312 298.82421875 c 0,0,1
EndSplineSet
EndChar

StartChar: afii57397
Encoding: 1637 1637 64
GlifName: afii57397
Width: 1166
VWidth: 2952
GlyphClass: 2
Flags: W
LayerCount: 2
Fore
SplineSet
555.591796875 1015.64550781 m 5,0,1
 285 727 285 727 284.721679688 488.224609375 c 0,2,3
 285 335 285 335 388.696289062 255.071289062 c 0,4,5
 473 190 473 190 609.083984375 190.291015625 c 0,6,7
 739 190 739 190 820.265625 286.330078125 c 0,8,9
 882 359 882 359 881.259765625 495.30859375 c 0,10,11
 881 769 881 769 555.591796875 1015.64550781 c 5,0,1
352.208984375 1175.90136719 m 5,12,-1
 461.911132812 1334.72949219 l 5,13,14
 1056 956 1056 956 1056.70605469 472.263671875 c 0,15,16
 1057 196 1057 196 876.158203125 83.97265625 c 0,17,18
 753 8 753 8 605.247070312 8.388671875 c 0,19,20
 439 9 439 9 308.077148438 80.3515625 c 0,21,22
 106 190 106 190 108.62890625 470.9453125 c 0,23,24
 112 806 112 806 406.9921875 1133.9296875 c 5,25,-1
 352.208984375 1175.90136719 l 5,12,-1
EndSplineSet
EndChar

StartChar: afii57398
Encoding: 1638 1638 65
GlifName: afii57398
Width: 1265
VWidth: 2952
GlyphClass: 2
Flags: W
LayerCount: 2
Fore
SplineSet
934.34765625 11.5537109375 m 1,0,1
 813 509 813 509 801.403320312 1117.33789062 c 5,2,3
 632 1071 632 1071 464.151367188 1070.50097656 c 4,4,5
 266 1070 266 1070 81.41796875 1153.32128906 c 5,6,-1
 81.41796875 1363.89746094 l 5,7,8
 279 1272 279 1272 510.328125 1272.2421875 c 4,9,10
 732 1272 732 1272 965.52734375 1365.73535156 c 5,11,12
 977 498 977 498 1123.07519531 11.5537109375 c 1,13,-1
 934.34765625 11.5537109375 l 1,0,1
EndSplineSet
EndChar

StartChar: afii57399
Encoding: 1639 1639 66
GlifName: afii57399
Width: 1281
VWidth: 2952
GlyphClass: 2
Flags: W
LayerCount: 2
Fore
SplineSet
1182.60644531 1280.14648438 m 5,0,1
 860 633 860 633 724.271484375 11.5537109375 c 1,2,-1
 556.603515625 11.5537109375 l 1,3,4
 420 634 420 634 98.2646484375 1280.1328125 c 5,5,-1
 266.727539062 1365.70214844 l 5,6,7
 538 783 538 783 640.446289062 327.130859375 c 1,8,9
 743 784 743 784 1014.1640625 1365.703125 c 5,10,-1
 1182.60644531 1280.14648438 l 5,0,1
EndSplineSet
EndChar

StartChar: afii57400
Encoding: 1640 1640 67
GlifName: afii57400
Width: 1281
VWidth: 2952
GlyphClass: 2
Flags: W
LayerCount: 2
Fore
SplineSet
1182.60644531 77.1103515625 m 1,0,1
 1014.1640625 -8.4462890625 l 1,2,3
 743 573 743 573 640.446289062 1030.12597656 c 5,4,5
 538 575 538 575 266.727539062 -8.4453125 c 1,6,7
 98.2646484375 77.1240234375 l 1,8,9
 420 723 420 723 556.603515625 1345.703125 c 5,10,-1
 724.271484375 1345.703125 l 5,11,12
 860 724 860 724 1182.60644531 77.1103515625 c 1,0,1
EndSplineSet
EndChar

StartChar: afii57401
Encoding: 1641 1641 68
GlifName: afii57401
Width: 1139
VWidth: 2952
GlyphClass: 2
Flags: W
LayerCount: 2
Fore
SplineSet
499.53125 573.165039062 m 6,0,1
 111.999974151 573.165039062 111.999974151 573.165039062 111.946289062 915.935546875 c 0,2,3
 112 1061 112 1061 182.5 1174.5 c 0,4,5
 304 1370 304 1370 515.064453125 1370.31542969 c 0,6,7
 884 1370 884 1370 908.947265625 871.424804688 c 0,8,9
 932 419 932 419 941.782226562 11.5537109375 c 1,10,-1
 769.748046875 11.5537109375 l 1,11,-1
 756.065429688 632.900390625 l 1,12,13
 636.330807291 573.165039062 636.330807291 573.165039062 500.260742188 573.165039062 c 6,14,-1
 499.53125 573.165039062 l 6,0,1
502.727539062 754.890625 m 0,15,16
 609 755 609 755 738.341796875 819.395507812 c 1,17,-1
 736.405273438 842.450195312 l 2,18,19
 708 1179 708 1179 523.736328125 1178.7265625 c 0,20,21
 411 1179 411 1179 345.901367188 1090.36914062 c 0,22,23
 287 1010 287 1010 287.008789062 925.302734375 c 0,24,25
 287 755 287 755 502.727539062 754.890625 c 0,15,16
EndSplineSet
EndChar

StartChar: afii57381
Encoding: 1642 1642 69
GlifName: afii57381
Width: 1288
VWidth: 4038
GlyphClass: 2
Flags: W
LayerCount: 2
Fore
SplineSet
749.512695312 345.344726562 m 128,-1,1
 749.512695312 415.227539062 749.512695312 415.227539062 799.518554688 464.306640625 c 0,2,3
 848.588867188 513.376953125 848.588867188 513.376953125 918.5 513.83984375 c 0,4,5
 953.512695312 514.071289062 953.512695312 514.071289062 983.178710938 501.719726562 c 128,-1,6
 1012.84472656 489.368164062 1012.84472656 489.368164062 1037.44238281 464.306640625 c 0,7,8
 1062.01660156 439.731445312 1062.01660156 439.731445312 1074.25976562 410.045898438 c 128,-1,9
 1086.50390625 380.360351562 1086.50390625 380.360351562 1086.50390625 345.344726562 c 0,10,11
 1086.50390625 275.443359375 1086.50390625 275.443359375 1037.44238281 226.380859375 c 128,-1,12
 988.379882812 177.318359375 988.379882812 177.318359375 918.48046875 177.318359375 c 128,-1,13
 848.580078125 177.318359375 848.580078125 177.318359375 799.499023438 226.400390625 c 0,14,0
 749.512695312 275.459960938 749.512695312 275.459960938 749.512695312 345.344726562 c 128,-1,1
200.96875 1199.37011719 m 0,15,16
 201 1269 201 1269 250.965820312 1318.32324219 c 0,17,18
 300 1367 300 1367 369.958007812 1367.86523438 c 0,19,20
 440 1368 440 1368 488.895507812 1318.33496094 c 0,21,22
 538 1269 538 1269 537.959960938 1199.37011719 c 0,23,24
 538 1129 538 1129 488.888671875 1080.3984375 c 0,25,26
 464 1056 464 1056 434.78125 1043.51464844 c 0,27,28
 405 1031 405 1031 369.9296875 1031.34472656 c 0,29,30
 300 1031 300 1031 250.963867188 1080.41894531 c 0,31,32
 201 1129 201 1129 200.96875 1199.37011719 c 0,15,16
872.728515625 1406.96582031 m 5,33,-1
 1026 1328 l 5,34,-1
 354.951171875 33.673828125 l 5,35,-1
 202.111328125 117.6640625 l 5,36,-1
 872.728515625 1406.96582031 l 5,33,-1
EndSplineSet
EndChar

StartChar: uni066B
Encoding: 1643 1643 70
GlifName: uni066B_
Width: 822
VWidth: 2952
GlyphClass: 2
Flags: W
LayerCount: 2
Fore
SplineSet
532.755859375 818.005859375 m 1,0,-1
 664.05859375 762.266601562 l 1,1,-1
 199.7890625 -309.061523438 l 1,2,-1
 66.3642578125 -250.9921875 l 1,3,-1
 532.755859375 818.005859375 l 1,0,-1
EndSplineSet
EndChar

StartChar: uni066C
Encoding: 1644 1644 71
GlifName: uni066C_
Width: 588
VWidth: 2842
GlyphClass: 2
Flags: W
LayerCount: 2
Fore
SplineSet
147.02734375 140.623046875 m 0,0,1
 148 189 148 189 165.67578125 221.4453125 c 0,2,3
 202 286 202 286 290.584960938 286.182617188 c 0,4,5
 437 287 437 287 463.669921875 157.809570312 c 0,6,7
 478 90 478 90 451.774414062 -9.224609375 c 0,8,9
 393 -233 393 -233 188.64453125 -401.0546875 c 1,10,-1
 117.49609375 -368.359375 l 5,11,12
 312 -192 312 -192 324.28125 0.2177734375 c 5,13,-1
 320.977539062 0.138671875 l 1,14,-1
 313.798828125 -0.0322265625 l 2,15,16
 286 -1 286 -1 266.815429688 3.404296875 c 0,17,18
 145 28 145 28 147.02734375 140.623046875 c 0,0,1
EndSplineSet
EndChar

StartChar: afii63167
Encoding: 1645 1645 72
GlifName: afii63167
Width: 1584
VWidth: 2950
GlyphClass: 2
Flags: W
LayerCount: 2
Fore
SplineSet
238.715820312 1034.65136719 m 1,0,-1
 662.741210938 1034.65136719 l 1,1,-1
 664.913085938 1034.65136719 l 1,2,-1
 666.360351562 1034.65136719 l 1,3,-1
 666.8125 1036.02636719 l 1,4,-1
 667.4921875 1038.09082031 l 1,5,-1
 799.995117188 1441.51953125 l 1,6,-1
 932.500976562 1038.08984375 l 1,7,-1
 933.1796875 1036.02636719 l 1,8,-1
 933.631835938 1034.65136719 l 1,9,-1
 935.079101562 1034.65136719 l 1,10,-1
 937.250976562 1034.65136719 l 1,11,-1
 1361.27636719 1034.65136719 l 1,12,-1
 1018.68066406 784.201171875 l 1,13,-1
 1016.92578125 782.91796875 l 1,14,-1
 1015.75585938 782.0625 l 1,15,-1
 1016.20507812 780.684570312 l 1,16,-1
 1016.87792969 778.6171875 l 1,17,-1
 1147.90039062 376.108398438 l 1,18,-1
 802.923828125 625.388671875 l 1,19,-1
 801.166992188 626.658203125 l 1,20,-1
 799.995117188 627.504882812 l 1,21,-1
 798.823242188 626.658203125 l 1,22,-1
 797.06640625 625.388671875 l 1,23,-1
 452.092773438 376.108398438 l 1,24,-1
 583.11328125 778.6171875 l 1,25,-1
 583.786132812 780.684570312 l 1,26,-1
 584.235351562 782.0625 l 1,27,-1
 583.065429688 782.91796875 l 1,28,-1
 581.310546875 784.201171875 l 1,29,-1
 238.715820312 1034.65136719 l 1,0,-1
EndSplineSet
EndChar

StartChar: uni066E
Encoding: 1646 1646 73
GlifName: uni066E_
Width: 1747
VWidth: 2950
GlyphClass: 2
Flags: W
AnchorPoint: "Anchor-10" 967.36 1413.35 basechar 0
AnchorPoint: "Anchor-7" 897.36 -259.261 basechar 0
LayerCount: 2
Fore
SplineSet
271.424804688 482.515625 m 4,0,1
 273 180 273 180 865.999023438 180.168945312 c 28,2,3
 1496 181 1496 181 1486.37988281 483.419921875 c 4,4,5
 1484 561 1484 561 1455.46386719 666.631835938 c 5,6,-1
 1613.45019531 696.629882812 l 5,7,8
 1653 577 1653 577 1652.90625 487.712890625 c 4,9,10
 1652 0 1652 0 864.356445312 0 c 6,11,-1
 860.911132812 0 l 6,12,13
 107 0 107 0 106.16015625 463.875 c 4,14,15
 106 563 106 563 133.489257812 685 c 5,16,-1
 289.356445312 655 l 5,17,18
 271 569 271 569 271.424804688 482.515625 c 4,0,1
EndSplineSet
Substitution2: "'init' Initial Forms in Arabic lookup 13 subtable" uni066E.init
Substitution2: "'medi' Medial Forms in Arabic lookup 11 subtable" uni066E.medi
Substitution2: "'fina' Terminal Forms in Arabic lookup 9 subtable" uni066E.fina
EndChar

StartChar: uni066F
Encoding: 1647 1647 74
GlifName: uni066F_
Width: 1393
VWidth: 2950
GlyphClass: 2
Flags: W
AnchorPoint: "Anchor-10" 121.809 1350.22 basechar 0
AnchorPoint: "Anchor-7" 335.219 -723.353 basechar 0
LayerCount: 2
Fore
SplineSet
694.3984375 -229.201171875 m 0,0,1
 1085 -228 1085 -228 1122.99121094 77.1328125 c 1,2,-1
 1042.24707031 77.6884765625 l 2,3,4
 642 80 642 80 642.765625 377.403320312 c 0,5,6
 643 492 643 492 690.645507812 581.565429688 c 0,7,8
 781 751 781 751 952.9765625 750.970703125 c 0,9,10
 1171 751 1171 751 1245.45214844 539.38671875 c 0,11,12
 1294 401 1294 401 1294.20507812 161 c 0,13,14
 1294 -3 1294 -3 1235 -128.631835938 c 4,15,16
 1106 -401 1106 -401 680.99609375 -400.998046875 c 0,17,18
 500 -401 500 -401 360.99609375 -329.170898438 c 0,19,20
 104 -196 104 -196 104.752929688 166.041015625 c 0,21,22
 105 324 105 324 170.45703125 513.122070312 c 1,23,-1
 328.90234375 467.791992188 l 1,24,25
 275 300 275 300 275.268554688 167.861328125 c 0,26,27
 275 -230 275 -230 694.3984375 -229.201171875 c 0,0,1
1125.38769531 252.623046875 m 2,28,29
 1104.83105469 571.036132812 1104.83105469 571.036132812 952.58984375 571.036132812 c 0,30,31
 869.471679688 571.036132812 869.471679688 571.036132812 827.614257812 486.565429688 c 0,32,33
 806.129882812 443.2109375 806.129882812 443.2109375 805.920898438 390.450195312 c 0,34,35
 806.203125 255.565429688 806.203125 255.565429688 1041.68261719 251.254882812 c 0,36,37
 1083.05859375 250.567382812 1083.05859375 250.567382812 1123.38769531 250.494140625 c 2,38,-1
 1125.52539062 250.490234375 l 1,39,-1
 1125.38769531 252.623046875 l 2,28,29
EndSplineSet
Substitution2: "'init' Initial Forms in Arabic lookup 13 subtable" uni066F.init
Substitution2: "'medi' Medial Forms in Arabic lookup 11 subtable" uni066F.medi
Substitution2: "'fina' Terminal Forms in Arabic lookup 9 subtable" uni066F.fina
EndChar

StartChar: uni0670
Encoding: 1648 1648 75
GlifName: uni0670
Width: -29
VWidth: 2572
GlyphClass: 4
Flags: W
AnchorPoint: "Anchor-10" 636.984 1498.61 mark 0
AnchorPoint: "Anchor-9" 636.984 1498.61 mark 0
AnchorPoint: "Anchor-1" 636.984 2005.18 basemark 0
AnchorPoint: "Anchor-1" 636.984 1498.61 mark 0
LayerCount: 2
Fore
SplineSet
595.435546875 1568.26757812 m 1,0,-1
 595.435546875 1935.51660156 l 5,1,-1
 678.533203125 1935.51660156 l 5,2,-1
 678.533203125 1568.26757812 l 1,3,-1
 595.435546875 1568.26757812 l 1,0,-1
EndSplineSet
EndChar

StartChar: uni0674
Encoding: 1652 1652 76
GlifName: uni0674
Width: 711
VWidth: 2535
GlyphClass: 2
Flags: W
LayerCount: 2
Fore
SplineSet
255.850585938 1990.08105469 m 2,0,1
 162.998046875 2061.98242188 162.998046875 2061.98242188 162.783203125 2168.51367188 c 0,2,3
 162.998046875 2256.20117188 162.998046875 2256.20117188 221.145507812 2317.62304688 c 0,4,5
 289.859375 2390 289.859375 2390 397.013671875 2390.015625 c 0,6,7
 443.786132812 2390.0078125 443.786132812 2390.0078125 486.26953125 2379.4609375 c 128,-1,8
 528.751953125 2368.91308594 528.751953125 2368.91308594 565.869140625 2348.30175781 c 1,9,-1
 566.548828125 2221.02929688 l 1,10,11
 475.375 2261.00292969 475.375 2261.00292969 410.991210938 2261.26171875 c 0,12,13
 379.16015625 2261.12988281 379.16015625 2261.12988281 354.530273438 2252.41210938 c 128,-1,14
 329.900390625 2243.69433594 329.900390625 2243.69433594 312.573242188 2226.33203125 c 0,15,16
 283.990234375 2196.79882812 283.990234375 2196.79882812 284.4921875 2155.95996094 c 0,17,18
 285.262695312 2117.66992188 285.262695312 2117.66992188 314.331054688 2088.66210938 c 128,-1,19
 343.400390625 2059.65429688 343.400390625 2059.65429688 400.265625 2039.91796875 c 0,20,21
 411.763671875 2035.96679688 411.763671875 2035.96679688 425.21484375 2037.30566406 c 0,22,23
 473.719726562 2042.95410156 473.719726562 2042.95410156 592.747070312 2064.15625 c 1,24,-1
 592.747070312 1932.61621094 l 1,25,-1
 160.286132812 1835.52636719 l 1,26,-1
 160.286132812 1964.6796875 l 1,27,-1
 255.075195312 1986.55078125 l 1,28,-1
 259.184570312 1987.49902344 l 1,29,-1
 255.850585938 1990.08105469 l 2,0,1
EndSplineSet
EndChar

StartChar: uni06A1
Encoding: 1697 1697 80
GlifName: uni06A_1
Width: 1761
VWidth: 2950
GlyphClass: 2
Flags: W
AnchorPoint: "Anchor-10" 670.853 1628.62 basechar 0
AnchorPoint: "Anchor-7" 633.182 -354.248 basechar 0
LayerCount: 2
Fore
SplineSet
1480.18457031 530.057617188 m 6,0,1
 1459.62792969 848.470703125 1459.62792969 848.470703125 1307.38671875 848.470703125 c 4,2,3
 1240.06445312 848.470703125 1240.06445312 848.470703125 1199.93261719 793.025390625 c 4,4,5
 1161 739 1161 739 1160.71777344 667.884765625 c 4,6,7
 1161 533 1161 533 1396.47949219 528.689453125 c 4,8,9
 1437.85546875 528.001953125 1437.85546875 528.001953125 1478.18457031 527.928710938 c 6,10,-1
 1480.32226562 527.924804688 l 5,11,-1
 1480.18457031 530.057617188 l 6,0,1
1093.86816406 0 m 6,12,-1
 850.911132812 0 l 2,13,14
 107 0 107 0 106.16015625 463.875 c 0,15,16
 106 563 106 563 133.489257812 685 c 1,17,-1
 289.356445312 655 l 1,18,19
 271 569 271 569 271.424804688 482.515625 c 0,20,21
 272.997738126 180.43439206 272.997738126 180.43439206 841.866210938 180.13671875 c 2,22,-1
 1105.00878906 179.999023438 l 6,23,24
 1467 180 1467 180 1477.78808594 354.567382812 c 5,25,-1
 1397.04394531 355.123046875 l 6,26,27
 997 358 997 358 997.5625 654.837890625 c 4,28,29
 998 808 998 808 1084.12988281 918.97265625 c 4,30,31
 1169 1028 1169 1028 1327.7734375 1028.40527344 c 4,32,33
 1526 1028 1526 1028 1600.24902344 816.821289062 c 4,34,35
 1650 676 1650 676 1649.82519531 482 c 4,36,37
 1650 293 1650 293 1589 196.8359375 c 4,38,39
 1465 0 1465 0 1093.86816406 0 c 6,12,-1
EndSplineSet
Substitution2: "'init' Initial Forms in Arabic lookup 13 subtable" uni06A1.init
Substitution2: "'medi' Medial Forms in Arabic lookup 11 subtable" uni06A1.medi
Substitution2: "'fina' Terminal Forms in Arabic lookup 9 subtable" uni06A1.fina
EndChar

StartChar: uni06A9
Encoding: 1705 1705 81
GlifName: uni06A_9
Width: 1810
VWidth: 2950
GlyphClass: 2
Flags: W
AnchorPoint: "Anchor-7" 750.268 -238.468 basechar 0
AnchorPoint: "Anchor-10" 933.878 1360.89 basechar 0
LayerCount: 2
Fore
SplineSet
271.424804688 482.515625 m 0,0,1
 273.000023603 179.995467137 273.000023603 179.995467137 843.061523438 179.993164062 c 2,2,-1
 1084.78222656 179.9921875 l 2,3,4
 1428 180 1428 180 1430.72460938 383.111328125 c 0,5,6
 1432 479 1432 479 1349.71972656 561.404296875 c 0,7,8
 1301 610 1301 610 1050.22460938 804.581054688 c 0,9,10
 940 890 940 890 939.918945312 982.454101562 c 0,11,12
 940 1044 940 1044 977.129768547 1092.66726667 c 0,13,14
 1007.3155811 1132.4155531 1007.3155811 1132.4155531 1078.85253906 1161.98632812 c 2,15,-1
 1749.37109375 1439.15429688 l 1,16,-1
 1749.37109375 1258.82714844 l 1,17,-1
 1094.65429688 987.172851562 l 1,18,-1
 1439.50292969 706.112304688 l 2,19,20
 1599 576 1599 576 1596.21777344 378.377929688 c 0,21,22
 1591 0 1591 0 1085.61230469 0 c 2,23,-1
 843.061523438 0 l 2,24,25
 106 0 106 0 106.16015625 463.875 c 0,26,27
 106 563 106 563 133.489257812 685 c 1,28,-1
 289.356445312 655 l 1,29,30
 271 569 271 569 271.424804688 482.515625 c 0,0,1
EndSplineSet
Substitution2: "'init' Initial Forms in Arabic lookup 13 subtable" uniFB90
Substitution2: "'medi' Medial Forms in Arabic lookup 11 subtable" uniFB91
Substitution2: "'fina' Terminal Forms in Arabic lookup 9 subtable" uniFB8F
EndChar

StartChar: afii57514
Encoding: 1722 1722 83
GlifName: afii57514
Width: 1405
VWidth: 2950
GlyphClass: 2
Flags: W
AnchorPoint: "Anchor-10" 697.479 1235.75 basechar 0
AnchorPoint: "Anchor-7" 728.023 -685.042 basechar 0
LayerCount: 2
Fore
SplineSet
1244.97265625 573.43359375 m 1,0,1
 1301 404 1301 404 1300.625 213 c 0,2,3
 1300 -33 1300 -33 1199 -180.47265625 c 4,4,5
 1048 -401 1048 -401 681 -401 c 0,6,7
 500 -401 500 -401 361 -329.172851562 c 0,8,9
 104 -196 104 -196 104.756835938 166.0390625 c 0,10,11
 105 324 105 324 170.4609375 513.120117188 c 1,12,-1
 327.90625 467.790039062 l 1,13,14
 274 300 274 300 274.272460938 167.859375 c 0,15,16
 275 -228 275 -228 693.40234375 -229.203125 c 0,17,18
 958 -230 958 -230 1063.68066406 -68.43359375 c 0,19,20
 1136 42 1136 42 1136.609375 231.943359375 c 0,21,22
 1137 362 1137 362 1078.203125 532.823242188 c 1,23,-1
 1244.97265625 573.43359375 l 1,0,1
EndSplineSet
Substitution2: "'init' Initial Forms in Arabic lookup 13 subtable" uni06BA.init
Substitution2: "'medi' Medial Forms in Arabic lookup 11 subtable" uni06BA.medi
Substitution2: "'fina' Terminal Forms in Arabic lookup 9 subtable" uniFB9F
EndChar

StartChar: uni06F4
Encoding: 1780 1780 90
GlifName: uni06F_4
Width: 1244
VWidth: 2952
GlyphClass: 2
Flags: W
LayerCount: 2
Fore
SplineSet
1083.33496094 1330.42285156 m 5,0,-1
 1040.33984375 1158.03417969 l 5,1,2
 963 1189 963 1189 880.235351562 1188.92675781 c 4,3,4
 777 1189 777 1189 707.057617188 1137.72753906 c 4,5,6
 591 1051 591 1051 576.663085938 917.193359375 c 4,7,8
 572 872 572 872 657.494140625 827.66796875 c 4,9,10
 728 791 728 791 852.942382812 790.590820312 c 4,11,12
 993 791 993 791 1115.12207031 840.52734375 c 5,13,-1
 1138.44921875 665.890625 l 5,14,15
 1014 611 1014 611 874.0078125 611.180664062 c 4,16,-1
 873.217773438 611.181640625 l 6,17,18
 597 612 597 612 477.182617188 756.000976562 c 5,19,-1
 478.708984375 745.439453125 l 6,20,21
 514.115234375 499.19857614 514.115234375 499.19857614 514.115234375 278.771484375 c 6,22,-1
 514.115234375 11.5537109375 l 1,23,-1
 334.796875 11.5537109375 l 1,24,-1
 334.791992188 281.91796875 l 6,25,26
 335 923 335 923 144.876953125 1307.90820312 c 5,27,-1
 309.573242188 1365.96386719 l 5,28,29
 365 1206 365 1206 431.536132812 1006.83789062 c 5,30,-1
 446.734375 1057 l 6,31,32
 491 1203 491 1203 596 1290 c 4,33,34
 704 1380 704 1380 855.047851562 1379.43164062 c 4,35,36
 976 1379 976 1379 1083.33496094 1330.42285156 c 5,0,-1
EndSplineSet
PairPos2: "'kern' Horizontal Kerning lookup 15-4" uni06F6 dx=-43 dy=0 dh=-43 dv=0 dx=0 dy=0 dh=0 dv=0
PairPos2: "'kern' Horizontal Kerning lookup 15-4" uni06F8 dx=-100 dy=0 dh=-100 dv=0 dx=0 dy=0 dh=0 dv=0
PairPos2: "'kern' Horizontal Kerning lookup 15-4" uni06F7 dx=-43 dy=0 dh=-43 dv=0 dx=0 dy=0 dh=0 dv=0
PairPos2: "'kern' Horizontal Kerning lookup 15-4" uni06F5 dx=-64 dy=0 dh=-64 dv=0 dx=0 dy=0 dh=0 dv=0
EndChar

StartChar: uni06F5
Encoding: 1781 1781 91
GlifName: uni06F_5
Width: 1288
VWidth: 2952
GlyphClass: 2
Flags: W
LayerCount: 2
Fore
SplineSet
283.965820312 339.41015625 m 0,0,1
 284 198 284 198 378.05078125 197.844726562 c 0,2,3
 527 198 527 198 589.71484375 492.583007812 c 1,4,-1
 714.022460938 492.477539062 l 1,5,6
 764 194 764 194 899.256835938 194.079101562 c 0,7,8
 1004 194 1004 194 1003.97851562 339.67578125 c 0,9,10
 1004 664 1004 664 629 1040.5703125 c 5,11,12
 284 586 284 586 283.965820312 339.41015625 c 0,0,1
363.447265625 11.9833984375 m 0,13,14
 109 12 109 12 109.2421875 339.344726562 c 0,15,16
 109.000154115 652.800406682 109.000154115 652.800406682 493.814453125 1169.56445312 c 6,17,-1
 495.415039062 1171.71386719 l 5,18,-1
 493.458007812 1173.54589844 l 5,19,-1
 439.18359375 1224.34960938 l 5,20,-1
 563.442382812 1376.19042969 l 5,21,-1
 688.700195312 1257.3671875 l 5,22,23
 1180 775 1180 775 1179.44238281 349.259765625 c 0,24,25
 1179 12 1179 12 914.309570312 11.943359375 c 0,26,27
 728 12 728 12 652.232421875 223.266601562 c 1,28,29
 581 12 581 12 363.447265625 11.9833984375 c 0,13,14
EndSplineSet
PairPos2: "'kern' Horizontal Kerning lookup 15-4" uni06F9 dx=-35 dy=0 dh=-35 dv=0 dx=0 dy=0 dh=0 dv=0
PairPos2: "'kern' Horizontal Kerning lookup 15-4" uni06F8 dx=-38 dy=0 dh=-38 dv=0 dx=0 dy=0 dh=0 dv=0
PairPos2: "'kern' Horizontal Kerning lookup 15-4" uni06F7 dx=-100 dy=0 dh=-100 dv=0 dx=0 dy=0 dh=0 dv=0
PairPos2: "'kern' Horizontal Kerning lookup 15-4" uni06F6 dx=-42 dy=0 dh=-42 dv=0 dx=0 dy=0 dh=0 dv=0
PairPos2: "'kern' Horizontal Kerning lookup 15-4" uni06F4 dx=-42 dy=0 dh=-42 dv=0 dx=0 dy=0 dh=0 dv=0
PairPos2: "'kern' Horizontal Kerning lookup 15-4" uni06F3 dx=-100 dy=0 dh=-100 dv=0 dx=0 dy=0 dh=0 dv=0
PairPos2: "'kern' Horizontal Kerning lookup 15-4" uni06F2 dx=-100 dy=0 dh=-100 dv=0 dx=0 dy=0 dh=0 dv=0
EndChar

StartChar: uni06F6
Encoding: 1782 1782 92
GlifName: uni06F_6
Width: 1104
VWidth: 2952
GlyphClass: 2
Flags: W
LayerCount: 2
Fore
SplineSet
752.499023438 1174.92382812 m 5,0,1
 700 1180 700 1180 637.673828125 1180.46582031 c 4,2,3
 446 1180 446 1180 369 1093.24804688 c 4,4,5
 312 1029 312 1029 311.594726562 953.765625 c 4,6,7
 312 743 312 743 685.764648438 742.364257812 c 5,8,-1
 687.079101562 742.666992188 l 5,9,10
 888 852 888 852 970.879882812 885.765625 c 5,11,-1
 981.556640625 695.63671875 l 5,12,13
 533 494 533 494 318.25390625 -28.4091796875 c 1,14,-1
 149.010742188 28.2734375 l 1,15,16
 272 336 272 336 524.650390625 585.670898438 c 5,17,18
 126 624 126 624 127.64453125 958.891601562 c 4,19,20
 128 1053 128 1053 166.403320312 1132.42578125 c 4,21,22
 283 1368 283 1368 606.01171875 1366.40820312 c 4,23,24
 686 1366 686 1366 778.365234375 1352.23242188 c 5,25,-1
 752.499023438 1174.92382812 l 5,0,1
EndSplineSet
PairPos2: "'kern' Horizontal Kerning lookup 15-4" uni06F8 dx=-43 dy=0 dh=-43 dv=0 dx=0 dy=0 dh=0 dv=0
PairPos2: "'kern' Horizontal Kerning lookup 15-4" uni06F7 dx=-43 dy=0 dh=-43 dv=0 dx=0 dy=0 dh=0 dv=0
PairPos2: "'kern' Horizontal Kerning lookup 15-4" uni06F5 dx=-43 dy=0 dh=-43 dv=0 dx=0 dy=0 dh=0 dv=0
EndChar

StartChar: uniFB8F
Encoding: 64399 64399 107
GlifName: uniF_B_8F_
Width: 1877
VWidth: 2950
GlyphClass: 2
Flags: W
AnchorPoint: "Anchor-10" 933.878 1360.89 basechar 0
AnchorPoint: "Anchor-7" 750.268 -238.468 basechar 0
LayerCount: 2
Fore
SplineSet
843.061523438 179.993164062 m 2,0,1
 1084.78222656 179.9921875 l 2,2,3
 1428 180 1428 180 1430.72460938 383.111328125 c 0,4,5
 1432 479 1432 479 1349.71972656 561.404296875 c 0,6,7
 1301 610 1301 610 1050.22460938 804.581054688 c 0,8,9
 940 890 940 890 939.918945312 982.454101562 c 0,10,11
 940 1044 940 1044 976.365234375 1092.49023438 c 0,12,13
 1007.32533421 1132.41958468 1007.32533421 1132.41958468 1078.85253906 1161.98632812 c 2,14,-1
 1749.37109375 1439.15429688 l 1,15,-1
 1749.37109375 1258.82714844 l 1,16,-1
 1097.84570312 988.420898438 l 1,17,-1
 1094.65429688 987.172851562 l 1,18,-1
 1097.31054688 985.0078125 l 1,19,-1
 1439.50097656 706.114257812 l 2,20,21
 1589 584 1589 584 1596.21875 378.2890625 c 0,22,23
 1604.00026826 179.993164062 1604.00026826 179.993164062 1867.9140625 179.993164062 c 2,24,-1
 1884.24804688 179.993164062 l 2,25,26
 1902.32421875 180.00012485 1902.32421875 180.00012485 1902.32421875 105.174804688 c 2,27,-1
 1902.32421875 86.3125 l 2,28,29
 1902 0 1902 0 1884.24609375 0 c 2,30,-1
 1867.80761719 0 l 2,31,32
 1590 0 1590 0 1517.34472656 145.899414062 c 5,33,34
 1414 0 1414 0 1085.61230469 0 c 2,35,-1
 843.061523438 0 l 2,36,37
 106 0 106 0 106.16015625 463.875 c 0,38,39
 106 563 106 563 133.489257812 685 c 1,40,-1
 289.356445312 655 l 1,41,42
 271 569 271 569 271.424804688 482.515625 c 0,43,44
 273 180 273 180 843.061523438 179.993164062 c 2,0,1
EndSplineSet
EndChar

StartChar: uniFB9F
Encoding: 64415 64415 115
GlifName: uniF_B_9F_
Width: 1469
VWidth: 2950
GlyphClass: 2
Flags: W
AnchorPoint: "Anchor-10" 673.458 1364.61 basechar 0
AnchorPoint: "Anchor-7" 565.902 -802.086 basechar 0
LayerCount: 2
Fore
SplineSet
1276.84863281 375.262695312 m 2,0,1
 1300.30285653 275.632867514 1300.30285653 275.632867514 1327.95800781 242.108398438 c 0,2,3
 1380.00081828 179.999023438 1380.00081828 179.999023438 1459.02050781 179.999023438 c 2,4,-1
 1478.13476562 179.999023438 l 2,5,6
 1496.21875 180.000011957 1496.21875 180.000011957 1496.21875 109.889648438 c 2,7,-1
 1496.21875 86.31640625 l 2,8,9
 1496 0 1496 0 1478.13671875 0 c 2,10,-1
 1463.41894531 0 l 2,11,12
 1360 0 1360 0 1298.26464844 58.376953125 c 5,13,14
 1283 -124 1283 -124 1194 -251.666992188 c 4,15,16
 1041 -468 1041 -468 680.99609375 -467.998046875 c 4,17,18
 500 -468 500 -468 360.99609375 -396.170898438 c 0,19,20
 104 -263 104 -263 104.752929688 99.041015625 c 0,21,22
 105 257 105 257 170.45703125 446.122070312 c 1,23,-1
 328.90234375 400.791992188 l 1,24,25
 275 233 275 233 275.268554688 100.861328125 c 0,26,27
 276 -295 276 -295 694.3984375 -296.201171875 c 0,28,29
 959 -297 959 -297 1064.67675781 -135.431640625 c 0,30,31
 1137 -25 1137 -25 1137.60546875 164.9453125 c 0,32,33
 1138 295 1138 295 1079.19921875 465.825195312 c 1,34,-1
 1245.96875 506.435546875 l 1,35,-1
 1276.84863281 375.262695312 l 2,0,1
EndSplineSet
EndChar

StartChar: uniFBE8
Encoding: 64488 64488 118
GlifName: uniF_B_E_8
Width: 616
VWidth: 2950
GlyphClass: 2
Flags: W
AnchorPoint: "Anchor-10" 311.384 1351 basechar 0
AnchorPoint: "Anchor-7" 303.422 -225.625 basechar 0
LayerCount: 2
Fore
SplineSet
128.673828125 0 m 6,0,-1
 -6.9384765625 0 l 6,1,2
 -62.7783203125 0 -62.7783203125 0 -62.7783203125 86.3134765625 c 6,3,-1
 -62.7783203125 105.182617188 l 6,4,5
 -62.9999797455 179.993164062 -62.9999797455 179.993164062 -6.9384765625 179.993164062 c 6,6,-1
 138.684570312 179.993164062 l 6,7,8
 370 180 370 180 370.032226562 459.203125 c 4,9,10
 370 565 370 565 342.33984375 685.633789062 c 5,11,-1
 505.419921875 715.629882812 l 5,12,13
 532 579 532 579 531.642578125 462.950195312 c 4,14,15
 532 0 532 0 128.673828125 0 c 6,0,-1
EndSplineSet
EndChar

StartChar: uniFBE9
Encoding: 64489 64489 119
GlifName: uniF_B_E_9
Width: 667
VWidth: 2950
GlyphClass: 2
Flags: W
AnchorPoint: "Anchor-10" 295.665 1295.09 basechar 0
AnchorPoint: "Anchor-7" 320.537 -179.742 basechar 0
LayerCount: 2
Fore
SplineSet
412.668945312 132.932617188 m 1,0,1
 319 0 319 0 105.759765625 0 c 2,2,-1
 -8.1171875 0 l 2,3,4
 -62.7783203125 0 -62.7783203125 0 -62.7783203125 86.3134765625 c 2,5,-1
 -62.7783203125 105.192382812 l 2,6,7
 -62.9999797429 179.993164062 -62.9999797429 179.993164062 -8.1171875 179.993164062 c 2,8,-1
 101.012695312 179.993164062 l 2,9,10
 316.936114674 179.999997978 316.936114674 179.999997978 331.506835938 373.569335938 c 6,11,-1
 346.401367188 571.440429688 l 5,12,-1
 467.427734375 571.440429688 l 5,13,-1
 482.323242188 371.49609375 l 6,14,15
 497.000523924 179.993164062 497.000523924 179.993164062 666.57421875 179.993164062 c 2,16,-1
 674.65234375 179.993164062 l 2,17,18
 692.731445312 179.999899942 692.731445312 179.999899942 692.731445312 96.322265625 c 2,19,-1
 692.731445312 86.3408203125 l 2,20,21
 693 0 693 0 674.650390625 0 c 2,22,-1
 665.006835938 0 l 2,23,24
 483 0 483 0 412.668945312 132.932617188 c 1,0,1
EndSplineSet
EndChar

StartChar: uniFE73
Encoding: 65139 65139 127
GlifName: uniF_E_73
Width: 662
VWidth: 2950
GlyphClass: 2
Flags: W
AnchorPoint: "Anchor-10" 314.943 1226.47 basechar 0
AnchorPoint: "Anchor-7" 374.943 -226.304 basechar 0
LayerCount: 2
Fore
SplineSet
288.336914062 444.018554688 m 2,0,1
 288.336914062 304.58984375 288.336914062 304.58984375 415.205078125 230.6796875 c 0,2,3
 487.870117188 188.342773438 487.870117188 188.342773438 608.00390625 188.342773438 c 2,4,-1
 676.674804688 188.342773438 l 1,5,-1
 676.674804688 1.5537109375 l 1,6,-1
 528.006835938 1.5537109375 l 2,7,8
 338.217773438 1.5537109375 338.217773438 1.5537109375 219.880859375 119.890625 c 128,-1,9
 101.544921875 238.2265625 101.544921875 238.2265625 101.544921875 426.563476562 c 2,10,-1
 101.544921875 448.69140625 l 1,11,-1
 288.336914062 448.69140625 l 1,12,-1
 288.336914062 444.018554688 l 2,0,1
EndSplineSet
EndChar

StartChar: uniFE8E
Encoding: 65166 65166 153
GlifName: uniF_E_8E_
Width: 531
VWidth: 2950
GlyphClass: 2
Flags: W
AnchorPoint: "Anchor-10" 242.697 1529.11 basechar 0
AnchorPoint: "Anchor-7" 316.078 -221.903 basechar 0
LayerCount: 2
Fore
SplineSet
556.618164062 86.294921875 m 1,0,1
 558 0 558 0 538.537109375 0 c 2,2,-1
 517.658203125 0 l 2,3,4
 166.283203125 0 166.283203125 0 166.283203125 436.395507812 c 2,5,-1
 166.283203125 1396.171875 l 1,6,-1
 331.598632812 1396.171875 l 1,7,-1
 331.598632812 438.447265625 l 2,8,9
 332.000010616 179.993164062 332.000010616 179.993164062 520.712890625 179.993164062 c 2,10,-1
 538.5390625 179.993164062 l 2,11,12
 556.618164062 179.999858609 556.618164062 179.999858609 556.618164062 105.174804688 c 2,13,-1
 556.618164062 86.294921875 l 1,0,1
EndSplineSet
EndChar

StartChar: uniFEA2
Encoding: 65186 65186 173
GlifName: uniF_E_A_2
Width: 1326
VWidth: 2950
GlyphClass: 2
Flags: W
AnchorPoint: "Anchor-10" 641.478 1214.07 basechar 0
AnchorPoint: "Anchor-7" 616.833 -828.619 basechar 0
LayerCount: 2
Fore
SplineSet
1199 601 m 1,0,-1
 1183.06445312 426.817382812 l 1,1,2
 1058 419 1058 419 987.759765625 408.728515625 c 1,3,-1
 987.759765625 396.134765625 l 2,4,5
 988 180 988 180 1290.63867188 180 c 6,6,-1
 1333.88769531 180 l 2,7,8
 1351.97851562 180 1351.97851562 180 1351.97851562 109.889648438 c 2,9,-1
 1351.97851562 86.3115234375 l 2,10,11
 1352 0 1352 0 1333.8984375 0 c 2,12,-1
 1291.49511719 0 l 6,13,14
 846.666171489 4.43378667114e-12 846.666171489 4.43378667114e-12 841.192382812 362.032226562 c 2,15,-1
 840.9609375 377.33984375 l 1,16,17
 283 231 283 231 283.249023438 -121.301757812 c 0,18,19
 283 -472 283 -472 816.381835938 -471.783203125 c 0,20,21
 1007 -472 1007 -472 1186.30664062 -387.446289062 c 1,22,-1
 1186.00195312 -570.739257812 l 1,23,24
 1034 -643 1034 -643 801.529296875 -643.249023438 c 0,25,26
 313 -643 313 -643 169.654296875 -369.0859375 c 0,27,28
 116 -267 116 -267 116.987304688 -136.852539062 c 0,29,30
 117 385 117 385 794 535 c 1,31,32
 505 652 505 652 429 652 c 0,33,34
 334 652 334 652 207.9296875 503.7109375 c 1,35,-1
 82.1181640625 610.26171875 l 1,36,37
 234 830 234 830 415 830 c 0,38,39
 505 830 505 830 822 702 c 0,40,41
 1049 610 1049 610 1199 601 c 1,0,-1
EndSplineSet
EndChar

StartChar: uniFEA3
Encoding: 65187 65187 174
GlifName: uniF_E_A_3
Width: 1289
VWidth: 2186
GlyphClass: 2
Flags: W
AnchorPoint: "Anchor-10" 543.825 1186.07 basechar 0
AnchorPoint: "Anchor-7" 483.524 -236.745 basechar 0
LayerCount: 2
Fore
SplineSet
-6.9384765625 179.999023438 m 2,0,-1
 157.599609375 179.98046875 l 2,1,2
 492 180 492 180 901 460 c 5,3,4
 505 622 505 622 422 622 c 4,5,6
 327 622 327 622 200.9296875 473.7109375 c 5,7,-1
 75.1181640625 580.26171875 l 5,8,9
 227 800 227 800 408 800 c 4,10,11
 498 800 498 800 815 672 c 4,12,13
 1042 580 1042 580 1192 571 c 5,14,-1
 1174 405 l 5,15,16
 1133 398 1133 398 1054 352 c 4,17,18
 897 261 897 261 722 155 c 4,19,20
 466 0 466 0 151.254882812 0 c 2,21,-1
 -6.9384765625 0 l 2,22,23
 -62.7783203125 0 -62.7783203125 0 -62.7783203125 86.3134765625 c 2,24,-1
 -62.7783203125 105.198242188 l 2,25,26
 -63 180 -63 180 -6.9384765625 179.999023438 c 2,0,-1
EndSplineSet
EndChar

StartChar: uniFEA4
Encoding: 65188 65188 175
GlifName: uniF_E_A_4
Width: 1321
VWidth: 2950
GlyphClass: 2
Flags: W
AnchorPoint: "Anchor-10" 543.825 1186.07 basechar 0
AnchorPoint: "Anchor-7" 483.524 -236.745 basechar 0
LayerCount: 2
Fore
SplineSet
157.599609375 179.98046875 m 2,0,1
 490.916361714 179.942881171 490.916361714 179.942881171 901 460 c 5,2,3
 505 622 505 622 422 622 c 4,4,5
 327 622 327 622 200.9296875 473.7109375 c 5,6,-1
 75.1181640625 580.26171875 l 5,7,8
 227 800 227 800 408 800 c 4,9,10
 498 800 498 800 815 672 c 4,11,12
 1042 580 1042 580 1192 571 c 5,13,-1
 1174 405 l 5,14,15
 1133 398 1133 398 1054 352 c 4,16,17
 1021 333 1021 333 988 313.547851562 c 5,18,19
 1032.90588872 180.279296875 1032.90588872 180.279296875 1286.61132812 180.279296875 c 2,20,-1
 1330.38378906 180.279296875 l 2,21,22
 1348.50585938 180.007413535 1348.50585938 180.007413535 1348.50585938 109.889648438 c 2,23,-1
 1348.50585938 86.31640625 l 2,24,25
 1349 0 1349 0 1330.42773438 0 c 2,26,-1
 1281.09667969 0 l 2,27,28
 931 0 931 0 856 235.540039062 c 5,29,30
 790 196 790 196 722 155 c 4,31,32
 466 0 466 0 151.254882812 0 c 2,33,-1
 -6.9384765625 0 l 2,34,35
 -62.7783203125 0 -62.7783203125 0 -62.7783203125 86.3134765625 c 2,36,-1
 -62.7783203125 105.198242188 l 2,37,38
 -63.0000158414 180.005345405 -63.0000158414 180.005345405 -6.9384765625 179.999023438 c 2,39,-1
 157.599609375 179.98046875 l 2,0,1
EndSplineSet
EndChar

StartChar: uniFEAA
Encoding: 65194 65194 181
GlifName: uniF_E_A_A_
Width: 1041
VWidth: 2950
GlyphClass: 2
Flags: W
AnchorPoint: "Anchor-7" 461.24 -233.316 basechar 0
AnchorPoint: "Anchor-10" 542.848 1203.53 basechar 0
LayerCount: 2
Fore
SplineSet
327.564453125 0.8193359375 m 0,0,1
 255 1 255 1 104.096679688 29.201171875 c 1,2,-1
 104.096679688 214.793945312 l 1,3,4
 247 185 247 185 332.981445312 185.068359375 c 0,5,6
 655 185 655 185 655.088867188 327.067382812 c 0,7,8
 654.999677 388.221467793 654.999677 388.221467793 563.69921875 607.143554688 c 2,9,-1
 462 851 l 1,10,-1
 629.620117188 915.993164062 l 1,11,-1
 790.69140625 489.153320312 l 2,12,13
 907.002571793 179.993164062 907.002571793 179.993164062 1028.87988281 179.993164062 c 2,14,-1
 1048.51953125 179.993164062 l 2,15,16
 1066.59765625 179.999851173 1066.59765625 179.999851173 1066.59765625 105.174804688 c 2,17,-1
 1066.59765625 86.306640625 l 2,18,19
 1066.95912827 41.1103550689 1066.95912827 41.1103550689 1062.20703125 21.494140625 c 0,20,21
 1057 0 1057 0 1048.51757812 0 c 2,22,-1
 1028.53222656 0 l 2,23,24
 870.796447856 1.13686837722e-13 870.796447856 1.13686837722e-13 773.689453125 153.071289062 c 2,25,-1
 772.205078125 155.411132812 l 1,26,-1
 770.451171875 153.265625 l 2,27,28
 645 -0 645 -0 327.564453125 0.8193359375 c 0,0,1
EndSplineSet
EndChar

StartChar: uniFEAE
Encoding: 65198 65198 185
GlifName: uniF_E_A_E_
Width: 854
VWidth: 2142
GlyphClass: 2
Flags: W
AnchorPoint: "Anchor-7" 252.969 -675.998 basechar 0
AnchorPoint: "Anchor-10" 491.256 944.2 basechar 0
LayerCount: 2
Fore
SplineSet
702.671875 48 m 5,0,1
 698 12 698 12 688 -26.6271661632 c 0,2,3
 589 -411 589 -411 30.0469 -465.593 c 1,4,-1
 0.650391 -302.476 l 1,5,6
 547 -258 547 -258 545.470200934 159.634027804 c 0,7,8
 545 308 545 308 453.275 441.023 c 1,9,-1
 599.998 518.564 l 1,10,11
 628 450 628 450 697 298 c 8,12,13
 751.000446901 179.999023438 751.000446901 179.999023438 835.31640625 179.999023438 c 2,14,-1
 862.57421875 179.999023438 l 2,15,16
 880.638671875 179.99998085 880.638671875 179.99998085 880.638671875 110.322265625 c 2,17,-1
 880.638671875 86.201171875 l 2,18,19
 881 0 881 0 862.57421875 0 c 2,20,-1
 845.80078125 0 l 2,21,22
 746 0 746 0 702.671875 48 c 5,0,1
EndSplineSet
PairPos2: "'kern' Horizontal Kerning lookup 15-2" uniFBFE dx=60 dy=0 dh=60 dv=0 dx=0 dy=0 dh=0 dv=0
PairPos2: "'kern' Horizontal Kerning lookup 15-1" uniFEE7 dx=-178 dy=0 dh=-178 dv=0 dx=0 dy=0 dh=0 dv=0
PairPos2: "'kern' Horizontal Kerning lookup 15-2" uniFB90 dx=-226 dy=0 dh=-226 dv=0 dx=0 dy=0 dh=0 dv=0
PairPos2: "'kern' Horizontal Kerning lookup 15-2" uniFB8E dx=-226 dy=0 dh=-226 dv=0 dx=0 dy=0 dh=0 dv=0
PairPos2: "'kern' Horizontal Kerning lookup 15-2" uni06A9 dx=-226 dy=0 dh=-226 dv=0 dx=0 dy=0 dh=0 dv=0
PairPos2: "'kern' Horizontal Kerning lookup 15-2" uni064A dx=-60 dy=0 dh=-60 dv=0 dx=0 dy=0 dh=0 dv=0
PairPos2: "'kern' Horizontal Kerning lookup 15-2" afii57414 dx=-60 dy=0 dh=-60 dv=0 dx=0 dy=0 dh=0 dv=0
PairPos2: "'kern' Horizontal Kerning lookup 15-2" uni0649 dx=-60 dy=0 dh=-60 dv=0 dx=0 dy=0 dh=0 dv=0
PairPos2: "'kern' Horizontal Kerning lookup 15-2" uniFEEB dx=-178 dy=0 dh=-178 dv=0 dx=0 dy=0 dh=0 dv=0
PairPos2: "'kern' Horizontal Kerning lookup 15-2" uni0647 dx=-178 dy=0 dh=-178 dv=0 dx=0 dy=0 dh=0 dv=0
PairPos2: "'kern' Horizontal Kerning lookup 15-2" uni0646 dx=-60 dy=0 dh=-60 dv=0 dx=0 dy=0 dh=0 dv=0
PairPos2: "'kern' Horizontal Kerning lookup 15-2" uniFEE3 dx=-178 dy=0 dh=-178 dv=0 dx=0 dy=0 dh=0 dv=0
PairPos2: "'kern' Horizontal Kerning lookup 15-2" uni0645 dx=-178 dy=0 dh=-178 dv=0 dx=0 dy=0 dh=0 dv=0
PairPos2: "'kern' Horizontal Kerning lookup 15-2" uniFEFB dx=-143 dy=0 dh=-143 dv=0 dx=0 dy=0 dh=0 dv=0
PairPos2: "'kern' Horizontal Kerning lookup 15-2" uniFEDF dx=-143 dy=0 dh=-143 dv=0 dx=0 dy=0 dh=0 dv=0
PairPos2: "'kern' Horizontal Kerning lookup 15-2" uni0644 dx=-60 dy=0 dh=-60 dv=0 dx=0 dy=0 dh=0 dv=0
PairPos2: "'kern' Horizontal Kerning lookup 15-2" uniFEDB dx=-226 dy=0 dh=-226 dv=0 dx=0 dy=0 dh=0 dv=0
PairPos2: "'kern' Horizontal Kerning lookup 15-2" uni0643 dx=-143 dy=0 dh=-143 dv=0 dx=0 dy=0 dh=0 dv=0
PairPos2: "'kern' Horizontal Kerning lookup 15-2" uniFED7 dx=-178 dy=0 dh=-178 dv=0 dx=0 dy=0 dh=0 dv=0
PairPos2: "'kern' Horizontal Kerning lookup 15-2" uni0642 dx=-60 dy=0 dh=-60 dv=0 dx=0 dy=0 dh=0 dv=0
PairPos2: "'kern' Horizontal Kerning lookup 15-2" uniFED3 dx=-178 dy=0 dh=-178 dv=0 dx=0 dy=0 dh=0 dv=0
PairPos2: "'kern' Horizontal Kerning lookup 15-2" uni0641 dx=-178 dy=0 dh=-178 dv=0 dx=0 dy=0 dh=0 dv=0
PairPos2: "'kern' Horizontal Kerning lookup 15-2" uniFECF dx=-178 dy=0 dh=-178 dv=0 dx=0 dy=0 dh=0 dv=0
PairPos2: "'kern' Horizontal Kerning lookup 15-2" uniFECB dx=-178 dy=0 dh=-178 dv=0 dx=0 dy=0 dh=0 dv=0
PairPos2: "'kern' Horizontal Kerning lookup 15-2" uniFEC7 dx=-178 dy=0 dh=-178 dv=0 dx=0 dy=0 dh=0 dv=0
PairPos2: "'kern' Horizontal Kerning lookup 15-2" uni0638 dx=-178 dy=0 dh=-178 dv=0 dx=0 dy=0 dh=0 dv=0
PairPos2: "'kern' Horizontal Kerning lookup 15-2" uniFEC3 dx=-178 dy=0 dh=-178 dv=0 dx=0 dy=0 dh=0 dv=0
PairPos2: "'kern' Horizontal Kerning lookup 15-2" uni0637 dx=-178 dy=0 dh=-178 dv=0 dx=0 dy=0 dh=0 dv=0
PairPos2: "'kern' Horizontal Kerning lookup 15-2" uniFEBF dx=-178 dy=0 dh=-178 dv=0 dx=0 dy=0 dh=0 dv=0
PairPos2: "'kern' Horizontal Kerning lookup 15-2" uni0636 dx=-178 dy=0 dh=-178 dv=0 dx=0 dy=0 dh=0 dv=0
PairPos2: "'kern' Horizontal Kerning lookup 15-2" uniFEBB dx=-178 dy=0 dh=-178 dv=0 dx=0 dy=0 dh=0 dv=0
PairPos2: "'kern' Horizontal Kerning lookup 15-2" uni0635 dx=-178 dy=0 dh=-178 dv=0 dx=0 dy=0 dh=0 dv=0
PairPos2: "'kern' Horizontal Kerning lookup 15-2" uniFEB7 dx=-178 dy=0 dh=-178 dv=0 dx=0 dy=0 dh=0 dv=0
PairPos2: "'kern' Horizontal Kerning lookup 15-2" uni0634 dx=-178 dy=0 dh=-178 dv=0 dx=0 dy=0 dh=0 dv=0
PairPos2: "'kern' Horizontal Kerning lookup 15-2" uniFEB3 dx=-178 dy=0 dh=-178 dv=0 dx=0 dy=0 dh=0 dv=0
PairPos2: "'kern' Horizontal Kerning lookup 15-2" uni0633 dx=-178 dy=0 dh=-178 dv=0 dx=0 dy=0 dh=0 dv=0
PairPos2: "'kern' Horizontal Kerning lookup 15-2" uni0630 dx=-178 dy=0 dh=-178 dv=0 dx=0 dy=0 dh=0 dv=0
PairPos2: "'kern' Horizontal Kerning lookup 15-2" uni062F dx=-178 dy=0 dh=-178 dv=0 dx=0 dy=0 dh=0 dv=0
PairPos2: "'kern' Horizontal Kerning lookup 15-2" uniFEA7 dx=-178 dy=0 dh=-178 dv=0 dx=0 dy=0 dh=0 dv=0
PairPos2: "'kern' Horizontal Kerning lookup 15-2" uniFEA3 dx=-178 dy=0 dh=-178 dv=0 dx=0 dy=0 dh=0 dv=0
PairPos2: "'kern' Horizontal Kerning lookup 15-2" uniFE9F dx=-178 dy=0 dh=-178 dv=0 dx=0 dy=0 dh=0 dv=0
PairPos2: "'kern' Horizontal Kerning lookup 15-2" uniFE9B dx=-178 dy=0 dh=-178 dv=0 dx=0 dy=0 dh=0 dv=0
PairPos2: "'kern' Horizontal Kerning lookup 15-2" uni062B dx=-178 dy=0 dh=-178 dv=0 dx=0 dy=0 dh=0 dv=0
PairPos2: "'kern' Horizontal Kerning lookup 15-2" uniFE97 dx=-178 dy=0 dh=-178 dv=0 dx=0 dy=0 dh=0 dv=0
PairPos2: "'kern' Horizontal Kerning lookup 15-2" uni062A dx=-178 dy=0 dh=-178 dv=0 dx=0 dy=0 dh=0 dv=0
PairPos2: "'kern' Horizontal Kerning lookup 15-2" uni0629 dx=-178 dy=0 dh=-178 dv=0 dx=0 dy=0 dh=0 dv=0
PairPos2: "'kern' Horizontal Kerning lookup 15-2" uni0628 dx=-178 dy=0 dh=-178 dv=0 dx=0 dy=0 dh=0 dv=0
PairPos2: "'kern' Horizontal Kerning lookup 15-2" uni0627 dx=-143 dy=0 dh=-143 dv=0 dx=0 dy=0 dh=0 dv=0
PairPos2: "'kern' Horizontal Kerning lookup 15-2" uni0623 dx=-143 dy=0 dh=-143 dv=0 dx=0 dy=0 dh=0 dv=0
PairPos2: "'kern' Horizontal Kerning lookup 15-2" uni0622 dx=-143 dy=0 dh=-143 dv=0 dx=0 dy=0 dh=0 dv=0
PairPos2: "'kern' Horizontal Kerning lookup 15-2" uni0621 dx=-178 dy=0 dh=-178 dv=0 dx=0 dy=0 dh=0 dv=0
PairPos2: "'kern' Horizontal Kerning lookup 15-2" uniFB94 dx=-226 dy=0 dh=-226 dv=0 dx=0 dy=0 dh=0 dv=0
PairPos2: "'kern' Horizontal Kerning lookup 15-2" uniFB92 dx=-226 dy=0 dh=-226 dv=0 dx=0 dy=0 dh=0 dv=0
PairPos2: "'kern' Horizontal Kerning lookup 15-2" uni06AF dx=-226 dy=0 dh=-226 dv=0 dx=0 dy=0 dh=0 dv=0
PairPos2: "'kern' Horizontal Kerning lookup 15-2" afii57506 dx=-178 dy=0 dh=-178 dv=0 dx=0 dy=0 dh=0 dv=0
PairPos2: "'kern' Horizontal Kerning lookup 15-2" afii57440 dx=-178 dy=0 dh=-178 dv=0 dx=0 dy=0 dh=0 dv=0
PairPos2: "'kern' Horizontal Kerning lookup 15-2" uniFE8B dx=-178 dy=0 dh=-178 dv=0 dx=0 dy=0 dh=0 dv=0
EndChar

StartChar: uniFEB2
Encoding: 65202 65202 189
GlifName: uniF_E_B_2
Width: 2525
VWidth: 2950
GlyphClass: 2
Flags: W
AnchorPoint: "Anchor-7" 651.902 -704.086 basechar 0
AnchorPoint: "Anchor-10" 1740.53 1055.1 basechar 0
LayerCount: 2
Fore
SplineSet
680.99609375 -467.998046875 m 4,0,1
 500 -468 500 -468 360.99609375 -396.170898438 c 0,2,3
 104 -263 104 -263 104.752929688 99.041015625 c 0,4,5
 105 257 105 257 170.45703125 446.122070312 c 1,6,-1
 328.90234375 400.791992188 l 1,7,8
 275 233 275 233 275.268554688 100.861328125 c 0,9,10
 275 -296 275 -296 694.3984375 -296.201171875 c 0,11,12
 1136 -296 1136 -296 1137.60546875 165.9453125 c 0,13,14
 1138 296 1138 296 1079.19921875 466.825195312 c 1,15,-1
 1245.96875 507.435546875 l 1,16,-1
 1276.84863281 376.262695312 l 2,17,18
 1323 180 1323 180 1503.50097656 179.9921875 c 0,19,20
 1677.14724131 180.00000663 1677.14724131 180.00000663 1695.8125 380.504882812 c 2,21,-1
 1710.69628906 540.388671875 l 1,22,-1
 1831.74707031 540.388671875 l 1,23,-1
 1846.63085938 380.442382812 l 2,24,25
 1865 181 1865 181 2026.92675781 180.45703125 c 0,26,27
 2159.18855009 179.999347534 2159.18855009 179.999347534 2169.41699219 377.317382812 c 2,28,-1
 2179.41699219 570.228515625 l 1,29,-1
 2302.36621094 570.228515625 l 1,30,-1
 2317.36621094 378.41796875 l 2,31,32
 2333.00803578 179.898013057 2333.00803578 179.898013057 2508.75488281 179.916992188 c 2,33,-1
 2526.84082031 179.918945312 l 2,34,35
 2544.92285156 179.999655643 2544.92285156 179.999655643 2544.92285156 105.092773438 c 2,36,-1
 2544.92285156 86.2783203125 l 2,37,38
 2545.00007248 -0.0810546875 2545.00007248 -0.0810546875 2526.84179688 -0.0810546875 c 2,39,-1
 2510.51757812 -0.0810546875 l 2,40,41
 2305 -0 2305 -0 2250.24511719 131.383789062 c 1,42,43
 2174 1 2174 1 2030.16308594 0.912109375 c 0,44,45
 1832 1 1832 1 1776.61425781 133.03125 c 1,46,47
 1681 -0 1681 -0 1501.80664062 -0.0810546875 c 0,48,49
 1370 -0 1370 -0 1298.26464844 58.376953125 c 5,50,51
 1283 -124 1283 -124 1194 -251.666992188 c 4,52,53
 1041 -468 1041 -468 680.99609375 -467.998046875 c 4,0,1
EndSplineSet
EndChar

StartChar: uniFEB3
Encoding: 65203 65203 190
GlifName: uniF_E_B_3
Width: 1605
VWidth: 2950
GlyphClass: 2
Flags: W
AnchorPoint: "Anchor-10" 909.961 1098.67 basechar 0
AnchorPoint: "Anchor-7" 769.534 -238.974 basechar 0
LayerCount: 2
Fore
SplineSet
1179.48339844 180.5 m 8,0,1
 1336 179 1336 179 1336.08398438 420.196289062 c 0,2,3
 1336 526 1336 526 1308.39160156 646.626953125 c 1,4,-1
 1471.47167969 676.623046875 l 1,5,6
 1498 540 1498 540 1497.69433594 423.943359375 c 0,7,8
 1496 1 1496 1 1184.72558594 0.9931640625 c 16,9,10
 1017 1 1017 1 951.16796875 133.11328125 c 1,11,12
 856 0 856 0 688.033203125 0.5 c 0,13,14
 477 1 477 1 392.020507812 132.940429688 c 1,15,16
 317 0 317 0 78.849609375 0 c 2,17,-1
 -6.9384765625 0 l 2,18,19
 -62.7783203125 0 -62.7783203125 0 -62.7783203125 86.3134765625 c 2,20,-1
 -62.7783203125 105.192382812 l 2,21,22
 -62.9999971061 179.999023438 -62.9999971061 179.999023438 -6.9384765625 179.999023438 c 2,23,-1
 81.00390625 179.999023438 l 2,24,25
 301.240763426 180.000001069 301.240763426 180.000001069 320.135742188 381.643554688 c 2,26,-1
 335.01953125 540.48046875 l 1,27,-1
 455.990234375 540.469726562 l 1,28,-1
 470.874023438 380.5234375 l 2,29,30
 490 180 490 180 688.063476562 180.073242188 c 0,31,32
 851.703184114 180.000132609 851.703184114 180.000132609 870.375976562 380.5859375 c 2,33,-1
 885.259765625 540.469726562 l 1,34,-1
 1006.31054688 540.469726562 l 1,35,-1
 1021.19433594 380.5234375 l 2,36,37
 1040 182 1040 182 1179.48339844 180.5 c 8,0,1
EndSplineSet
EndChar

StartChar: uniFEB4
Encoding: 65204 65204 191
GlifName: uniF_E_B_4
Width: 1693
VWidth: 2943
GlyphClass: 2
Flags: W
AnchorPoint: "Anchor-10" 909.961 1098.67 basechar 0
AnchorPoint: "Anchor-7" 739.534 -238.974 basechar 0
LayerCount: 2
Fore
SplineSet
1424.796875 131.466796875 m 1,0,1
 1349 1 1349 1 1204.72558594 0.9931640625 c 0,2,3
 1007 1 1007 1 951.16796875 133.11328125 c 1,4,5
 856 0 856 0 676.033203125 0.5 c 0,6,7
 477 1 477 1 392.020507812 132.940429688 c 1,8,9
 317 0 317 0 78.849609375 0 c 2,10,-1
 -6.9384765625 0 l 2,11,12
 -62.7783203125 0 -62.7783203125 0 -62.7783203125 86.3134765625 c 2,13,-1
 -62.7783203125 105.192382812 l 2,14,15
 -62.9999971061 179.999023438 -62.9999971061 179.999023438 -6.9384765625 179.999023438 c 2,16,-1
 81.00390625 179.999023438 l 2,17,18
 301.240763426 180.000001069 301.240763426 180.000001069 320.135742188 381.643554688 c 2,19,-1
 335.01953125 540.48046875 l 1,20,-1
 455.990234375 540.469726562 l 1,21,-1
 470.874023438 380.5234375 l 2,22,23
 490 180 490 180 688.063476562 180.073242188 c 0,24,25
 851.703184114 180.000132609 851.703184114 180.000132609 870.375976562 380.5859375 c 2,26,-1
 885.259765625 540.469726562 l 1,27,-1
 1006.31054688 540.469726562 l 1,28,-1
 1021.19433594 380.5234375 l 2,29,30
 1040 182 1040 182 1201.48925781 180.538085938 c 0,31,32
 1333.74791187 180.001023653 1333.74791187 180.001023653 1343.98046875 377.3984375 c 2,33,-1
 1353.98046875 570.309570312 l 1,34,-1
 1476.9296875 570.309570312 l 1,35,-1
 1491.9296875 378.499023438 l 2,36,37
 1507.0015945 179.978997959 1507.0015945 179.978997959 1683.31835938 179.998046875 c 2,38,-1
 1701.39648438 180 l 2,39,40
 1719.48632812 180 1719.48632812 180 1719.48632812 105.173828125 c 2,41,-1
 1719.48632812 86.3720703125 l 2,42,43
 1719 0 1719 0 1701.40527344 0 c 2,44,-1
 1685.08007812 0 l 2,45,46
 1480 0 1480 0 1424.796875 131.466796875 c 1,0,1
EndSplineSet
EndChar

StartChar: uniFEBA
Encoding: 65210 65210 197
GlifName: uniF_E_B_A_
Width: 2556
VWidth: 2950
GlyphClass: 2
Flags: W
AnchorPoint: "Anchor-7" 651.902 -704.086 basechar 0
AnchorPoint: "Anchor-10" 1952.53 1210.1 basechar 0
LayerCount: 2
Fore
SplineSet
679.99609375 -467.998046875 m 4,0,1
 501 -468 501 -468 360.99609375 -396.170898438 c 0,2,3
 104 -264 104 -264 104.752929688 99.041015625 c 0,4,5
 105 257 105 257 170.45703125 446.122070312 c 1,6,-1
 328.90234375 400.791992188 l 1,7,8
 275 233 275 233 275.268554688 100.861328125 c 0,9,10
 276 -294 276 -294 694.3984375 -296.201171875 c 24,11,12
 1136 -298 1136 -298 1137.60546875 164.9453125 c 0,13,14
 1138 295 1138 295 1079.19921875 465.825195312 c 1,15,-1
 1245.96875 506.435546875 l 1,16,-1
 1276.84863281 375.262695312 l 2,17,18
 1314.80789827 214.01774745 1314.80789827 214.01774745 1365.08300781 209.373046875 c 1,19,20
 1697 770 1697 770 2032.83691406 771.423828125 c 0,21,22
 2244 772 2244 772 2348.62695312 618.911132812 c 0,23,24
 2411 528 2411 528 2410.87402344 402.149414062 c 0,25,26
 2411 289 2411 289 2332.24023438 180.739257812 c 1,27,-1
 2545.73828125 180 l 2,28,-1
 2564.37109375 180 l 2,29,30
 2582 180 2582 180 2582.49316406 105.174804688 c 2,31,-1
 2582.49316406 86.31640625 l 2,32,33
 2582.49316406 0 2582.49316406 0 2564.41210938 0 c 2,34,-1
 2540.2265625 0 l 2,35,36
 2267 0 2267 0 2177.1796875 72.1123046875 c 1,37,38
 2051 0 2051 0 1703.15136719 0 c 2,39,-1
 1652.34082031 0 l 2,40,41
 1414 0 1414 0 1297.26464844 58.376953125 c 1,42,43
 1282 -124 1282 -124 1193 -251.666992188 c 0,44,45
 1042 -468 1042 -468 679.99609375 -467.998046875 c 4,0,1
1554.65625 180.416992188 m 1,46,-1
 1708.75195312 180.416992188 l 2,47,48
 2237 180 2237 180 2234.66894531 399.1640625 c 0,49,50
 2234 465 2234 465 2199.54394531 510.215820312 c 0,51,52
 2140 588 2140 588 2032.11328125 588.573242188 c 0,53,54
 1811.69002242 587.999192724 1811.69002242 587.999192724 1552.97167969 183.495117188 c 2,55,-1
 1551.00292969 180.416992188 l 1,56,-1
 1554.65625 180.416992188 l 1,46,-1
EndSplineSet
EndChar

StartChar: uniFEBB
Encoding: 65211 65211 198
GlifName: uniF_E_B_B_
Width: 1670
VWidth: 2950
GlyphClass: 2
Flags: W
AnchorPoint: "Anchor-10" 1134.91 1212.52 basechar 0
AnchorPoint: "Anchor-7" 699.209 -242.348 basechar 0
LayerCount: 2
Fore
SplineSet
271.079101562 376.12890625 m 2,0,1
 285.973632812 574 l 1,2,-1
 407 574 l 1,3,-1
 421.895507812 374.055664062 l 2,4,5
 433 227 433 227 517.75390625 208.848632812 c 1,6,7
 851 772 851 772 1185.75195312 771.423828125 c 4,8,9
 1400 771 1400 771 1505.78125 617.892578125 c 4,10,11
 1566 531 1566 531 1565.57910156 415.791015625 c 4,12,13
 1565 0 1565 0 856.133789062 0 c 2,14,15
 805.323242188 0 l 2,16,17
 436 0 436 0 348.51953125 146.795898438 c 1,18,19
 241 0 241 0 9.984375 0 c 2,20,-1
 -6.9384765625 0 l 2,21,22
 -62.7783203125 0 -62.7783203125 0 -62.7783203125 86.3134765625 c 2,23,-1
 -62.7783203125 105.192382812 l 2,24,25
 -63 180 -63 180 -5.9384765625 180 c 2,26,-1
 10.1103515625 180 l 2,27,28
 256 180 256 180 271.079101562 376.12890625 c 2,0,1
1185.3046875 588.573242188 m 4,29,30
 966 588 966 588 703.985351562 180.416992188 c 1,31,-1
 861.73828125 180.534179688 l 2,32,33
 1387 181 1387 181 1387.64355469 397.368164062 c 4,34,35
 1388 483 1388 483 1329.90527344 536 c 132,-1,36
 1272 589 1272 589 1185.3046875 588.573242188 c 4,29,30
EndSplineSet
EndChar

StartChar: uniFEBC
Encoding: 65212 65212 199
GlifName: uniF_E_B_C_
Width: 1709
VWidth: 2950
GlyphClass: 2
Flags: W
AnchorPoint: "Anchor-10" 1134.91 1212.52 basechar 0
AnchorPoint: "Anchor-7" 699.209 -242.348 basechar 0
LayerCount: 2
Fore
SplineSet
271.079101562 376.12890625 m 2,0,1
 285.973632812 574 l 1,2,-1
 407 574 l 1,3,-1
 421.895507812 374.055664062 l 2,4,5
 434 211 434 211 518.065429688 210.373046875 c 1,6,7
 849 770 849 770 1185.81933594 771.423828125 c 0,8,9
 1397 772 1397 772 1501.609375 618.911132812 c 0,10,11
 1564 528 1564 528 1563.85644531 402.149414062 c 0,12,13
 1564 289 1564 289 1485.22265625 180.739257812 c 5,14,-1
 1698.72070312 180 l 2,15,-1
 1717.35351562 180 l 2,16,17
 1735.47558594 180 1735.47558594 180 1735.47558594 105.174804688 c 2,18,-1
 1735.47558594 86.31640625 l 2,19,20
 1735 0 1735 0 1717.39453125 0 c 2,21,22
 1693.20898438 0 l 2,23,24
 1420 0 1420 0 1330.16210938 72.1123046875 c 1,25,26
 1204 0 1204 0 856.133789062 0 c 2,27,-1
 805.323242188 0 l 2,28,29
 440.131561891 0 440.131561891 0 350.045898438 144.23828125 c 2,30,-1
 348.481445312 146.743164062 l 1,31,-1
 346.736328125 144.360351562 l 2,32,33
 241 0 241 0 9.984375 0 c 2,34,-1
 -6.9384765625 0 l 2,35,36
 -62.7783203125 0 -62.7783203125 0 -62.7783203125 86.3134765625 c 2,37,-1
 -62.7783203125 105.192382812 l 2,38,39
 -63 180 -63 180 -6.9384765625 180 c 2,40,-1
 10.1103515625 180 l 2,41,42
 256 180 256 180 271.079101562 376.12890625 c 2,0,1
707.638671875 180.416992188 m 1,43,-1
 861.734375 180.416992188 l 2,44,45
 1390 180 1390 180 1387.65136719 399.1640625 c 0,46,47
 1387 465 1387 465 1352.52636719 510.215820312 c 0,48,49
 1293 588 1293 588 1185.09570312 588.573242188 c 0,50,51
 964.672414918 587.9991468 964.672414918 587.9991468 705.954101562 183.495117188 c 2,52,-1
 703.985351562 180.416992188 l 1,53,-1
 707.638671875 180.416992188 l 1,43,-1
EndSplineSet
EndChar

StartChar: uniFEC2
Encoding: 65218 65218 205
GlifName: uniF_E_C_2
Width: 1516
VWidth: 2950
GlyphClass: 2
Flags: W
AnchorPoint: "Anchor-7" 641.602 -238.453 basechar 0
AnchorPoint: "Anchor-10" 481.36 1544.58 basechar 0
LayerCount: 2
Fore
SplineSet
506.15234375 180.533203125 m 1,0,-1
 663.838867188 180.533203125 l 2,1,2
 1189 181 1189 181 1189.7421875 397.361328125 c 0,3,4
 1190 483 1190 483 1131.51367188 535.765625 c 0,5,6
 1073 589 1073 589 984.478515625 588.557617188 c 0,7,8
 761 586 761 586 506.15234375 180.533203125 c 1,0,-1
1116.1796875 72.0791015625 m 1,9,10
 979.99708517 -0.00154280235178 979.99708517 -0.00154280235178 658.232421875 -0.0009765625 c 2,11,-1
 103.302734375 -0 l 1,12,-1
 103.302734375 180.22265625 l 1,13,-1
 321.827148438 180.376953125 l 1,14,-1
 323.5546875 180.377929688 l 1,15,-1
 324.70703125 180.37890625 l 1,16,-1
 400.934570312 298.131835938 l 1,17,-1
 401.638671875 299.314453125 l 1,18,-1
 401.638671875 1396.87304688 l 1,19,-1
 566.950195312 1396.87304688 l 1,20,-1
 566.950195312 520.508789062 l 1,21,22
 766 771 766 771 986.319335938 771.420898438 c 0,23,24
 1200 772 1200 772 1307.89648438 617.868164062 c 0,25,26
 1369 531 1369 531 1368.62792969 405.821289062 c 4,27,28
 1368 290 1368 290 1281.51074219 180.946289062 c 5,29,-1
 1504.70800781 180.458007812 l 2,30,-1
 1523.31738281 180.458007812 l 2,31,32
 1541.46289062 179.988010399 1541.46289062 179.988010399 1541.46289062 105.173828125 c 2,33,-1
 1541.46289062 86.32421875 l 1,34,35
 1539.99998345 -0.0009765625 1539.99998345 -0.0009765625 1523.38183594 -0.0009765625 c 2,36,-1
 1499.19628906 -0.0009765625 l 2,37,38
 1205 -0 1205 -0 1116.1796875 72.0791015625 c 1,9,10
326.108398438 182.797851562 m 1,39,-1
 326.108398438 182.797851562 l 1,39,-1
EndSplineSet
EndChar

StartChar: uniFEC3
Encoding: 65219 65219 206
GlifName: uniF_E_C_3
Width: 1310
VWidth: 2950
GlyphClass: 2
Flags: W
AnchorPoint: "Anchor-7" 501.602 -238.453 basechar 0
AnchorPoint: "Anchor-10" 319.36 1534.58 basechar 0
LayerCount: 2
Fore
SplineSet
495.5703125 0 m 2,0,-1
 -6.9384765625 0 l 2,1,2
 -62.7783203125 0 -62.7783203125 0 -62.7783203125 86.3134765625 c 2,3,-1
 -62.7783203125 105.192382812 l 2,4,5
 -62.999594989 179.863325745 -62.999594989 179.863325745 -6.9384765625 179.993164062 c 2,6,-1
 160.880859375 180.381835938 l 1,7,-1
 162.018554688 180.384765625 l 1,8,9
 194 234 194 234 238.9765625 299.141601562 c 1,10,-1
 238.9765625 1396.87402344 l 1,11,-1
 404.288085938 1396.87402344 l 1,12,-1
 404.288085938 520.490234375 l 1,13,14
 603 771 603 771 823.65625 771.421875 c 4,15,16
 1039 772 1039 772 1145.22265625 617.885742188 c 4,17,18
 1205 532 1205 532 1205.01464844 417.4296875 c 4,19,20
 1205 0 1205 0 495.5703125 0 c 2,0,-1
343.479492188 180.534179688 m 1,21,-1
 501.176757812 180.534179688 l 2,22,23
 1027 181 1027 181 1027.08007812 397.390625 c 4,24,25
 1027 483 1027 483 967.997070312 536.231445312 c 4,26,27
 910 589 910 589 821.81640625 588.55859375 c 4,28,29
 599 586 599 586 343.479492188 180.534179688 c 1,21,-1
EndSplineSet
EndChar

StartChar: uniFEC4
Encoding: 65220 65220 207
GlifName: uniF_E_C_4
Width: 1354
VWidth: 2950
GlyphClass: 2
Flags: W
AnchorPoint: "Anchor-10" 319.36 1534.58 basechar 0
AnchorPoint: "Anchor-7" 501.602 -238.453 basechar 0
LayerCount: 2
Fore
SplineSet
343.479492188 180.534179688 m 1,0,-1
 501.176757812 180.534179688 l 2,1,2
 1027 181 1027 181 1027.08007812 397.390625 c 0,3,4
 1027 483 1027 483 967.997070312 536.231445312 c 0,5,6
 910 589 910 589 821.81640625 588.55859375 c 0,7,8
 599 586 599 586 343.479492188 180.534179688 c 1,0,-1
953.55078125 72.060546875 m 1,9,10
 809 0 809 0 495.5703125 0 c 2,11,-1
 -6.9384765625 0 l 2,12,13
 -62.7783203125 0 -62.7783203125 0 -62.7783203125 86.3134765625 c 2,14,-1
 -62.7783203125 105.192382812 l 2,15,16
 -62.999594989 179.863325745 -62.999594989 179.863325745 -6.9384765625 179.993164062 c 2,17,-1
 160.880859375 180.381835938 l 1,18,-1
 161.9375 180.384765625 l 1,19,20
 217 261 217 261 238.9765625 299.338867188 c 1,21,-1
 238.9765625 1396.87402344 l 1,22,-1
 404.288085938 1396.87402344 l 1,23,-1
 404.288085938 520.490234375 l 1,24,25
 603 770 603 770 823.655273438 771.421875 c 0,26,27
 1043 772 1043 772 1145.203125 617.9140625 c 0,28,29
 1205 529 1205 529 1205 403.161132812 c 4,30,31
 1205 285 1205 285 1118.76269531 180.838867188 c 5,32,-1
 1342.04589844 180.458984375 l 2,33,-1
 1360.65625 180.458984375 l 2,34,35
 1378.80078125 180.004984711 1378.80078125 180.004984711 1378.80078125 105.174804688 c 2,36,-1
 1378.80078125 86.322265625 l 2,37,38
 1379 0 1379 0 1360.71972656 0 c 2,39,-1
 1336.53417969 0 l 2,40,41
 1042 0 1042 0 953.55078125 72.060546875 c 1,9,10
EndSplineSet
EndChar

StartChar: uniFECA
Encoding: 65226 65226 213
GlifName: uniF_E_C_A_
Width: 1128
VWidth: 2950
GlyphClass: 2
Flags: W
AnchorPoint: "Anchor-7" 541.833 -854.619 basechar 0
AnchorPoint: "Anchor-10" 548.833 1114.24 basechar 0
LayerCount: 2
Fore
SplineSet
437.192382812 335.60546875 m 2,0,1
 197.000077352 513.967100133 197.000077352 513.967100133 196.880859375 564.673828125 c 0,2,3
 197 645 197 645 337.456054688 702.862304688 c 0,4,5
 445 748 445 748 575.974609375 747.208007812 c 0,6,7
 727 747 727 747 829.807617188 696.909179688 c 0,8,9
 949 639 949 639 948.895507812 569.672851562 c 0,10,11
 948.999603605 520.188435685 948.999603605 520.188435685 688.806640625 316.865234375 c 6,12,-1
 686.965820312 315.426757812 l 5,13,14
 833.501676093 180.458984375 833.501676093 180.458984375 1088.421875 180.458984375 c 2,15,-1
 1136.27734375 180.458984375 l 2,16,17
 1154.42285156 179.989048918 1154.42285156 179.989048918 1154.42285156 105.174804688 c 2,18,-1
 1154.42285156 86.3193359375 l 2,19,20
 1154 0 1154 0 1136.34179688 0 c 2,21,-1
 1088.11914062 0 l 2,22,23
 795.318414448 2.84217094304e-14 795.318414448 2.84217094304e-14 558.349609375 216.4765625 c 2,24,-1
 557.288085938 217.446289062 l 1,25,-1
 556.03125 216.749023438 l 2,26,27
 412 137 412 137 342.75 36.3125 c 0,28,29
 273 -63 273 -63 272.666015625 -184.046875 c 0,30,31
 274 -467 274 -467 678.581054688 -467.788085938 c 0,32,33
 845 -468 845 -468 1020.96386719 -395.998046875 c 1,34,-1
 1023.97851562 -578.717773438 l 1,35,36
 887 -640 887 -640 677.81640625 -639.228515625 c 0,37,38
 107 -636 107 -636 106.403320312 -184.174804688 c 0,39,40
 106.000066385 115.95059266 106.000066385 115.95059266 437.09375 332.326171875 c 2,41,-1
 439.495117188 333.895507812 l 1,42,-1
 437.192382812 335.60546875 l 2,0,1
688.422851562 534.646484375 m 0,43,44
 679.473632812 548.77734375 679.473632812 548.77734375 664.12890625 558.200195312 c 128,-1,45
 648.78515625 567.622070312 648.78515625 567.622070312 627.350585938 572.331054688 c 128,-1,46
 605.916015625 577.0390625 605.916015625 577.0390625 578.197265625 577.20703125 c 0,47,48
 536.52734375 577.465820312 536.52734375 577.465820312 507.514648438 566.44921875 c 128,-1,49
 478.502929688 555.432617188 478.502929688 555.432617188 462.356445312 533.0078125 c 0,50,51
 457.483398438 526.239257812 457.483398438 526.239257812 485.760742188 500.892578125 c 128,-1,52
 514.037109375 475.546875 514.037109375 475.546875 579.169921875 425.978515625 c 2,53,-1
 580.486328125 424.9765625 l 1,54,-1
 581.717773438 426.083007812 l 2,55,56
 641.641601562 479.939453125 641.641601562 479.939453125 666.505859375 504.731445312 c 128,-1,57
 691.37109375 529.5234375 691.37109375 529.5234375 688.422851562 534.646484375 c 0,43,44
EndSplineSet
EndChar

StartChar: uniFECB
Encoding: 65227 65227 214
GlifName: uniF_E_C_B_
Width: 1038
VWidth: 2950
GlyphClass: 2
Flags: W
AnchorPoint: "Anchor-10" 514.493 1187.05 basechar 0
AnchorPoint: "Anchor-7" 434.511 -237.021 basechar 0
LayerCount: 2
Fore
SplineSet
832.09765625 585.458984375 m 1,0,1
 710.776120089 684.549339418 710.776120089 684.549339418 586.565429688 687.30078125 c 0,2,3
 555 688 555 688 525.791015625 683.163085938 c 0,4,5
 497 679 497 679 471.224609375 669.3359375 c 0,6,7
 420 651 420 651 382.662109375 614.439453125 c 0,8,9
 379 611 379 611 375.760742188 607.30078125 c 0,10,11
 372 604 372 604 369.197265625 600.004882812 c 0,12,13
 366 596 366 596 362.971679688 592.549804688 c 128,-1,14
 360 589 360 589 357.083984375 584.936523438 c 128,-1,15
 354 581 354 581 351.532226562 577.163085938 c 0,16,17
 349 573 349 573 346.318359375 569.229492188 c 0,18,19
 344 565 344 565 341.440429688 561.134765625 c 0,20,21
 339 557 339 557 336.899414062 552.879882812 c 0,22,23
 335 549 335 549 332.694335938 544.461914062 c 0,24,25
 331 540 331 540 328.82421875 535.880859375 c 0,26,27
 311 492 311 492 310.602539062 440.444335938 c 0,28,29
 310.995071948 310.629756419 310.995071948 310.629756419 468.02734375 232.001953125 c 0,30,31
 490.097765115 220.951047921 490.097765115 220.951047921 495.858398438 222.349609375 c 2,32,-1
 929.0703125 327.524414062 l 1,33,-1
 929.0703125 147.799804688 l 1,34,35
 440.491108734 -0.15410490609 440.491108734 -0.15410490609 55.439453125 -0.021484375 c 2,36,-1
 -6.9384765625 0 l 2,37,38
 -62.7783203125 0 -62.7783203125 0 -62.7783203125 86.3134765625 c 2,39,-1
 -62.7783203125 105.192382812 l 2,40,41
 -63.0013574549 180.458084231 -63.0013574549 180.458084231 -6.9453125 180.458984375 c 2,42,-1
 236.314453125 180.462890625 l 1,43,-1
 243.065429688 180.462890625 l 1,44,-1
 247.62890625 180.462890625 l 1,45,-1
 244.536132812 183.818359375 l 2,46,47
 221.978460659 209.593645816 221.978460659 209.593645816 217.809570312 215.178710938 c 0,48,49
 206 231 206 231 195.538085938 246.427734375 c 0,50,51
 140 331 140 331 140.720703125 449.952148438 c 0,52,53
 142 610 142 610 229.700195312 720.661132812 c 0,54,55
 245 740 245 740 263.403320312 757.5234375 c 128,-1,56
 282 775 282 775 302.381835938 789.756835938 c 0,57,58
 323 805 323 805 346.651367188 817.37109375 c 0,59,60
 438 867 438 867 561.56640625 866.232421875 c 0,61,62
 765 865 765 865 897.498046875 728.912109375 c 1,63,-1
 832.09765625 585.458984375 l 1,0,1
EndSplineSet
EndChar

StartChar: uniFECC
Encoding: 65228 65228 215
GlifName: uniF_E_C_C_
Width: 1051
VWidth: 2950
GlyphClass: 2
Flags: W
AnchorPoint: "Anchor-7" 544.511 -237.021 basechar 0
AnchorPoint: "Anchor-10" 551.107 1110.89 basechar 0
LayerCount: 2
Fore
SplineSet
1034.80175781 179.993164062 m 2,0,-1
 1058.37890625 179.993164062 l 2,1,2
 1076.45703125 180.000177301 1076.45703125 180.000177301 1076.45703125 105.174804688 c 2,3,-1
 1076.45703125 86.3203125 l 2,4,5
 1076 0 1076 0 1058.37695312 0 c 2,6,-1
 1035.1875 0 l 2,7,8
 763 0 763 0 576.994140625 143.728515625 c 1,9,10
 409 0 409 0 17.048828125 0 c 2,11,-1
 -6.9384765625 0 l 2,12,13
 -62.7783203125 0 -62.7783203125 0 -62.7783203125 86.3134765625 c 2,14,-1
 -62.7783203125 105.192382812 l 2,15,16
 -62.9999797429 179.993164062 -62.9999797429 179.993164062 -6.9384765625 179.993164062 c 2,17,-1
 20.412109375 179.993164062 l 2,18,19
 351 180 351 180 465.822265625 255.071289062 c 1,20,21
 190 446 190 446 190.196289062 508.974609375 c 4,22,23
 190 589 190 589 330.76953125 647.154296875 c 0,24,25
 438 692 438 692 569.286132812 691.500976562 c 0,26,27
 646 691 646 691 709.3984375 678.669921875 c 0,28,29
 773 666 773 666 823.1171875 641.205078125 c 0,30,31
 883 612 883 612 912.430664062 580.026367188 c 128,-1,32
 942 548 942 548 942.2109375 513.977539062 c 0,33,34
 942 459 942 459 678.8046875 254.34765625 c 1,35,36
 805 180 805 180 1034.80175781 179.993164062 c 2,0,-1
681.73828125 478.939453125 m 0,37,38
 655.104492188 520.993164062 655.104492188 520.993164062 571.512695312 521.5 c 0,39,40
 529.842773438 521.758789062 529.842773438 521.758789062 500.830078125 510.7421875 c 128,-1,41
 471.818359375 499.725585938 471.818359375 499.725585938 455.671875 477.30078125 c 0,42,43
 454.97544737 476.333221191 454.97544737 476.333221191 454.942952054 475 c 0,44,45
 454.857703766 471.50242442 454.857703766 471.50242442 459.341796875 465.48828125 c 0,46,47
 465.53515625 457.181640625 465.53515625 457.181640625 481.3828125 443.142578125 c 128,-1,48
 497.23046875 429.103515625 497.23046875 429.103515625 518.756835938 411.940429688 c 128,-1,49
 540.283203125 394.778320312 540.283203125 394.778320312 572.485351562 370.271484375 c 2,50,-1
 573.801757812 369.26953125 l 1,51,-1
 575.033203125 370.375976562 l 2,52,53
 634.95703125 424.232421875 634.95703125 424.232421875 659.821289062 449.024414062 c 128,-1,54
 684.686523438 473.81640625 684.686523438 473.81640625 681.73828125 478.939453125 c 0,37,38
EndSplineSet
EndChar

StartChar: uniFEDA
Encoding: 65242 65242 229
GlifName: uniF_E_D_A_
Width: 1911
VWidth: 2950
GlyphClass: 2
Flags: W
AnchorPoint: "Anchor-10" 895.11 1462.05 basechar 0
AnchorPoint: "Anchor-7" 750.268 -238.468 basechar 0
LayerCount: 2
Fore
SplineSet
649.720703125 611.796875 m 1,0,1
 742 602 742 602 810.09765625 601.272460938 c 0,2,3
 922 601 922 601 970.83203125 623.0625 c 0,4,5
 984 629 984 629 994.674804688 635.883789062 c 0,6,7
 1005 643 1005 643 1011.92578125 651.921875 c 128,-1,8
 1019 661 1019 661 1022.50683594 671.1875 c 0,9,10
 1026 682 1026 682 1026.30761719 693.626953125 c 0,11,12
 1026 716 1026 716 1018.61523438 733.365234375 c 0,13,14
 1011 751 1011 751 995.103515625 764.049804688 c 0,15,16
 980 778 980 778 956.668945312 786.34375 c 0,17,18
 934 795 934 795 902.94140625 799.435546875 c 0,19,20
 691 832 691 832 694.490234375 1010.44921875 c 0,21,22
 699 1214 699 1214 1083.17089844 1243.40429688 c 1,23,-1
 1083.17089844 1118.81738281 l 1,24,25
 954 1107 954 1107 888.60546875 1077.80566406 c 0,26,27
 824 1049 824 1049 823.700195312 1002.45507812 c 0,28,29
 824 926 824 926 964.171875 904.786132812 c 0,30,31
 1060 890 1060 890 1107.68066406 838.440429688 c 0,32,33
 1155 787 1155 787 1154.92480469 698.138671875 c 0,34,35
 1155 578 1155 578 1037 514 c 0,36,37
 962 473 962 473 827.55859375 473.094726562 c 0,38,39
 749 473 749 473 649.720703125 488.088867188 c 1,40,-1
 649.720703125 611.796875 l 1,0,1
1707.70996094 452.336914062 m 2,41,42
 1708 180 1708 180 1895.68261719 180.279296875 c 2,43,-1
 1918.83203125 180.279296875 l 2,44,45
 1937.00017117 180.279296875 1937.00017117 180.279296875 1936.95703125 109.889648438 c 2,46,-1
 1936.95703125 86.3193359375 l 2,47,48
 1936.95703125 0 1936.95703125 0 1918.875 0 c 2,49,-1
 1887.96875 0 l 2,50,51
 1692 0 1692 0 1621 189.310546875 c 1,52,53
 1462 0 1462 0 1012.13378906 0 c 2,54,-1
 843.061523438 0 l 2,55,56
 106 0 106 0 106.16015625 463.875 c 0,57,58
 106 563 106 563 133.489257812 685 c 1,59,-1
 289.356445312 655 l 1,60,61
 271 569 271 569 271.424804688 482.515625 c 0,62,63
 273 181 273 181 843.061523438 179.993164062 c 18,64,-1
 1025 179.779296875 l 2,65,66
 1545.99558418 179.166870839 1545.99558418 179.166870839 1538.82910156 449.983398438 c 1,67,-1
 1538.82910156 1396.56640625 l 1,68,-1
 1707.70996094 1396.56640625 l 1,69,-1
 1707.70996094 452.336914062 l 2,41,42
EndSplineSet
EndChar

StartChar: uniFEDB
Encoding: 65243 65243 230
GlifName: uniF_E_D_B_
Width: 960
VWidth: 2950
GlyphClass: 2
Flags: W
AnchorPoint: "Anchor-10" 297.533 1448.15 basechar 0
AnchorPoint: "Anchor-7" 350.991 -233.935 basechar 0
LayerCount: 2
Fore
SplineSet
235.612304688 0 m 2,0,-1
 -6.9384765625 0 l 2,1,2
 -62.7783203125 0 -62.7783203125 0 -62.7783203125 86.3134765625 c 2,3,-1
 -62.7783203125 105.192382812 l 2,4,5
 -62.999980414 179.993390553 -62.999980414 179.993390553 -6.9384765625 179.993164062 c 2,6,-1
 234.782226562 179.9921875 l 2,7,8
 578 180 578 180 580.724609375 383.111328125 c 0,9,10
 582 479 582 479 499.719726562 561.404296875 c 0,11,12
 451 610 451 610 200.224609375 804.581054688 c 0,13,14
 90 890 90 890 89.9189453125 982.454101562 c 0,15,16
 90 1044 90 1044 126.365234375 1092.49023438 c 0,17,18
 154.045923543 1131.06399565 154.045923543 1131.06399565 228.852539062 1161.98632812 c 2,19,-1
 899.37109375 1439.15429688 l 1,20,-1
 899.37109375 1258.82714844 l 1,21,-1
 247.845703125 988.420898438 l 1,22,-1
 244.654296875 987.172851562 l 1,23,-1
 247.310546875 985.0078125 l 1,24,-1
 589.502929688 706.112304688 l 2,25,26
 749 576 749 576 746.217773438 378.377929688 c 0,27,28
 741 0 741 0 235.612304688 0 c 2,0,-1
EndSplineSet
EndChar

StartChar: uniFEDC
Encoding: 65244 65244 231
GlifName: uniF_E_D_C_
Width: 987
VWidth: 2950
GlyphClass: 2
Flags: W
AnchorPoint: "Anchor-10" 297.533 1448.15 basechar 0
AnchorPoint: "Anchor-7" 350.991 -233.935 basechar 0
LayerCount: 2
Fore
SplineSet
235.612304688 0 m 2,0,-1
 -6.9384765625 0 l 2,1,2
 -62.7783203125 0 -62.7783203125 0 -62.7783203125 86.3134765625 c 2,3,-1
 -62.7783203125 105.192382812 l 2,4,5
 -62.999980414 179.993390553 -62.999980414 179.993390553 -6.9384765625 179.993164062 c 2,6,-1
 234.782226562 179.9921875 l 2,7,8
 578 180 578 180 580.724609375 383.111328125 c 0,9,10
 582 479 582 479 499.719726562 561.404296875 c 0,11,12
 451 610 451 610 200.224609375 804.581054688 c 0,13,14
 90 890 90 890 89.9189453125 982.454101562 c 0,15,16
 90 1042 90 1042 126.365234375 1092.49023438 c 0,17,18
 154.045923543 1131.06399565 154.045923543 1131.06399565 228.852539062 1161.98632812 c 2,19,-1
 899.37109375 1439.15429688 l 1,20,-1
 899.37109375 1258.82714844 l 1,21,-1
 247.845703125 988.420898438 l 1,22,-1
 244.654296875 987.172851562 l 1,23,-1
 247.310546875 985.0078125 l 1,24,-1
 589.500976562 706.114257812 l 2,25,26
 739 584 739 584 746.21875 378.2890625 c 0,27,28
 754.000268256 179.993164062 754.000268256 179.993164062 977.9140625 179.993164062 c 2,29,-1
 994.248046875 179.993164062 l 2,30,31
 1012.32421875 180.00012485 1012.32421875 180.00012485 1012.32421875 105.174804688 c 2,32,-1
 1012.32421875 86.3125 l 2,33,34
 1012 0 1012 0 994.24609375 0 c 2,35,-1
 977.807617188 0 l 2,36,37
 740 0 740 0 667.344726562 145.899414062 c 5,38,39
 564 0 564 0 235.612304688 0 c 2,0,-1
EndSplineSet
EndChar

StartChar: uniFEDE
Encoding: 65246 65246 233
GlifName: uniF_E_D_E_
Width: 1426
VWidth: 2950
GlyphClass: 2
Flags: W
AnchorPoint: "Anchor-10" 605.908 1003.66 basechar 0
AnchorPoint: "Anchor-7" 637.902 -658.086 basechar 0
LayerCount: 2
Fore
SplineSet
275.268554688 99.861328125 m 4,0,1
 275 -247 275 -247 668.229492188 -247.216796875 c 4,2,3
 1056.92163776 -247.000043699 1056.92163776 -247.000043699 1057.60449219 127.799804688 c 2,4,-1
 1059.91308594 1394.92285156 l 1,5,-1
 1225.88476562 1394.92285156 l 1,6,-1
 1225.30175781 397.188476562 l 2,7,8
 1225.00038805 180.279296875 1225.00038805 180.279296875 1414.70410156 180.279296875 c 2,9,-1
 1434.78417969 180.279296875 l 2,10,11
 1452.90722656 180.001422463 1452.90722656 180.001422463 1452.90722656 109.889648438 c 2,12,-1
 1452.90722656 86.3017578125 l 2,13,14
 1453 0 1453 0 1434.82714844 0 c 2,15,-1
 1410.3515625 0 l 2,16,17
 1287 0 1287 0 1216.17578125 70.9541015625 c 1,18,19
 1175 -418 1175 -418 667.329101562 -417.724609375 c 4,20,21
 447 -418 447 -418 305 -328.9921875 c 4,22,23
 103 -202 103 -202 103.752929688 98.041015625 c 4,24,25
 104 256 104 256 169.45703125 445.122070312 c 5,26,-1
 328.90234375 399.791992188 l 5,27,28
 275 232 275 232 275.268554688 99.861328125 c 4,0,1
EndSplineSet
EndChar

StartChar: uniFEDF
Encoding: 65247 65247 234
GlifName: uniF_E_D_F_
Width: 605
VWidth: 2950
GlyphClass: 2
Flags: W
AnchorPoint: "Anchor-10" 367.751 1533.45 basechar 0
AnchorPoint: "Anchor-7" 279.812 -238.234 basechar 0
LayerCount: 2
Fore
SplineSet
-6.9384765625 0 m 2,0,1
 -62.7783203125 0 -62.7783203125 0 -62.7783203125 86.3134765625 c 2,2,-1
 -62.7783203125 105.192382812 l 2,3,4
 -62.9999797429 179.993164062 -62.9999797429 179.993164062 -6.9384765625 179.993164062 c 2,5,-1
 61.482421875 179.993164062 l 2,6,7
 284.313476562 179.986848937 284.313476562 179.986848937 284.313476562 436.663085938 c 2,8,-1
 284.313476562 1396.171875 l 1,9,-1
 449.627929688 1396.171875 l 1,10,-1
 449.627929688 430.963867188 l 2,11,12
 450 0 450 0 56.2861328125 0 c 2,13,-1
 -6.9384765625 0 l 2,0,1
EndSplineSet
EndChar

StartChar: uniFEE0
Encoding: 65248 65248 235
GlifName: uniF_E_E_0
Width: 668
VWidth: 2950
GlyphClass: 2
Flags: W
AnchorPoint: "Anchor-7" 279.812 -238.234 basechar 0
AnchorPoint: "Anchor-10" 356.751 1527.45 basechar 0
LayerCount: 2
Fore
SplineSet
352.224609375 133.05078125 m 1,0,1
 261 0 261 0 62.5927734375 0 c 2,2,-1
 -6.9384765625 0 l 2,3,4
 -62.7783203125 0 -62.7783203125 0 -62.7783203125 86.3134765625 c 2,5,-1
 -62.7783203125 105.192382812 l 2,6,7
 -62.9999797429 179.993164062 -62.9999797429 179.993164062 -6.9384765625 179.993164062 c 2,8,-1
 65.109375 179.993164062 l 2,9,10
 283.081054688 179.968454011 283.081054688 179.968454011 283.081054688 393.180664062 c 2,11,-1
 283.081054688 1396.07617188 l 1,12,-1
 447.739257812 1396.07617188 l 1,13,-1
 447.739257812 393.192382812 l 2,14,15
 448.000008361 179.993164062 448.000008361 179.993164062 655.545898438 179.993164062 c 2,16,-1
 672.995117188 179.993164062 l 2,17,18
 694.80078125 179.999938112 694.80078125 179.999938112 694.80078125 105.174804688 c 2,19,-1
 694.80078125 86.2939453125 l 2,20,21
 695 0 695 0 672.993164062 0 c 2,22,-1
 658.065429688 0 l 2,23,24
 447 0 447 0 352.224609375 133.05078125 c 1,0,1
EndSplineSet
EndChar

StartChar: uniFEE2
Encoding: 65250 65250 237
GlifName: uniF_E_E_2
Width: 1266
VWidth: 2620
GlyphClass: 2
Flags: W
AnchorPoint: "Anchor-10" 711.239 1132.48 basechar 0
AnchorPoint: "Anchor-7" 738.983 -292.909 basechar 0
LayerCount: 2
Fore
SplineSet
1097.30664062 381.696289062 m 28,0,1
 1119.00010503 179.999023438 1119.00010503 179.999023438 1265.79492188 179.999023438 c 6,2,-1
 1281.18261719 179.999023438 l 6,3,4
 1299.26757812 180.000014666 1299.26757812 180.000014666 1299.26757812 105.174804688 c 6,5,-1
 1299.26757812 86.333984375 l 6,6,7
 1299 0 1299 0 1281.18652344 0 c 6,8,-1
 1265.49414062 0 l 6,9,10
 1103 0 1103 0 1035.97851562 102 c 5,11,12
 1019 80 1019 80 1001 63.5146484375 c 4,13,14
 923 -7 923 -7 796.20703125 -7.2431640625 c 4,15,16
 641 -7 641 -7 535.3515625 82.3974609375 c 4,17,18
 458 148 458 148 419.346679688 147.747070312 c 4,19,20
 267 146 267 146 267.751953125 -290.002929688 c 4,21,22
 268 -485 268 -485 281.634765625 -644.813476562 c 5,23,-1
 112.107421875 -644.813476562 l 1,24,25
 101 -473 101 -473 100.9765625 -316 c 0,26,27
 101 10 101 10 179.782226562 166.091796875 c 0,28,29
 260.039315984 324.077393278 260.039315984 324.077393278 388.060546875 346.029296875 c 6,30,-1
 389.381835938 346.255859375 l 5,31,-1
 389.673828125 347.564453125 l 6,32,33
 423 496 423 496 486.586914062 579.44921875 c 4,34,35
 586 709 586 709 747.333007812 709.532226562 c 4,36,37
 915 710 915 710 1020.86230469 576.84765625 c 4,38,39
 1084 498 1084 498 1097.30664062 381.696289062 c 28,0,1
780.724609375 166.75 m 4,40,41
 882 167 882 167 921.7421875 238.0625 c 4,42,43
 939 269 939 269 939.864257812 306.965820312 c 4,44,45
 941 356 941 356 921.57421875 405.76171875 c 4,46,47
 895 474 895 474 842.02734375 505.3359375 c 4,48,49
 802 529 802 529 750.611328125 529.158203125 c 4,50,51
 585.861873905 528.999867251 585.861873905 528.999867251 557.557617188 310.28515625 c 6,52,-1
 557.4609375 309.538085938 l 5,53,-1
 557.880859375 308.913085938 l 6,54,55
 653 167 653 167 780.724609375 166.75 c 4,40,41
EndSplineSet
EndChar

StartChar: uniFEE3
Encoding: 65251 65251 238
GlifName: uniF_E_E_3
Width: 1016
VWidth: 2950
GlyphClass: 2
Flags: W
AnchorPoint: "Anchor-10" 519.952 1114.2 basechar 0
AnchorPoint: "Anchor-7" 504.594 -237.063 basechar 0
LayerCount: 2
Fore
SplineSet
580.724609375 166.75 m 4,0,1
 682 167 682 167 721.7421875 238.0625 c 4,2,3
 739 269 739 269 739.864257812 306.965820312 c 4,4,5
 740.929216192 355.757030399 740.929216192 355.757030399 721.57421875 405.76171875 c 4,6,7
 695 474 695 474 642.02734375 505.3359375 c 4,8,9
 602 529 602 529 550.611328125 529.158203125 c 4,10,11
 385.861874071 528.999867251 385.861874071 528.999867251 357.557617188 310.28515625 c 6,12,-1
 357.4609375 309.538085938 l 5,13,-1
 357.880859375 308.913085938 l 6,14,15
 453 167 453 167 580.724609375 166.75 c 4,0,1
12.720703125 0 m 2,16,-1
 -8.1171875 0 l 2,17,18
 -62.7783203125 0 -62.7783203125 0 -62.7783203125 86.3134765625 c 2,19,-1
 -62.7783203125 105.198242188 l 2,20,21
 -62.9999797413 179.993164062 -62.9999797413 179.993164062 -8.1171875 179.993164062 c 2,22,-1
 8.3251953125 179.993164062 l 2,23,24
 153 180 153 180 189.673828125 347.564453125 c 4,25,26
 223 496 223 496 286.598632812 579.46484375 c 4,27,28
 384 709 384 709 547.333007812 709.532226562 c 4,29,30
 715 710 715 710 820.862304688 576.84765625 c 4,31,32
 903 474 903 474 902.474609375 309.612304688 c 4,33,34
 902 159 902 159 803 65.96484375 c 4,35,36
 726 -7 726 -7 585.20703125 -7.2431640625 c 4,37,38
 399 -7 399 -7 272.944335938 133.993164062 c 5,39,40
 185 0 185 0 12.720703125 0 c 2,16,-1
EndSplineSet
EndChar

StartChar: uniFEE4
Encoding: 65252 65252 239
GlifName: uniF_E_E_4
Width: 1073
VWidth: 2950
GlyphClass: 2
Flags: W
AnchorPoint: "Anchor-7" 504.594 -237.063 basechar 0
AnchorPoint: "Anchor-10" 523.952 1116.2 basechar 0
LayerCount: 2
Fore
SplineSet
580.724609375 166.75 m 4,0,1
 682 167 682 167 721.7421875 238.0625 c 4,2,3
 739 269 739 269 739.864257812 306.965820312 c 4,4,5
 740.929216192 355.757030399 740.929216192 355.757030399 721.57421875 405.76171875 c 4,6,7
 695 474 695 474 642.02734375 505.3359375 c 4,8,9
 602 529 602 529 550.611328125 529.158203125 c 4,10,11
 385.861874071 528.999867251 385.861874071 528.999867251 357.557617188 310.28515625 c 6,12,-1
 357.4609375 309.538085938 l 5,13,-1
 357.880859375 308.913085938 l 6,14,15
 453 167 453 167 580.724609375 166.75 c 4,0,1
835.978515625 102 m 5,16,17
 821 83 821 83 803 65.96484375 c 4,18,19
 726 -7 726 -7 585.20703125 -7.2431640625 c 4,20,21
 399 -7 399 -7 272.944335938 133.993164062 c 5,22,23
 185 0 185 0 12.720703125 0 c 2,24,-1
 -8.1171875 0 l 2,25,26
 -62.7783203125 0 -62.7783203125 0 -62.7783203125 86.3134765625 c 2,27,-1
 -62.7783203125 105.198242188 l 2,28,29
 -62.9999797413 179.993164062 -62.9999797413 179.993164062 -8.1171875 179.993164062 c 2,30,-1
 8.3251953125 179.993164062 l 2,31,32
 153 180 153 180 189.673828125 347.564453125 c 4,33,34
 223 496 223 496 286.598632812 579.46484375 c 4,35,36
 384 709 384 709 547.333007812 709.532226562 c 4,37,38
 715 710 715 710 820.862304688 576.84765625 c 4,39,40
 885 497 885 497 897.306640625 381.696289062 c 28,41,42
 919.000105034 179.999023438 919.000105034 179.999023438 1065.79492188 179.999023438 c 6,43,-1
 1081.18261719 179.999023438 l 6,44,45
 1099.26757812 180.000014666 1099.26757812 180.000014666 1099.26757812 105.174804688 c 6,46,-1
 1099.26757812 86.333984375 l 6,47,48
 1099 0 1099 0 1081.18652344 0 c 6,49,-1
 1065.49414062 0 l 6,50,51
 903 0 903 0 835.978515625 102 c 5,16,17
EndSplineSet
EndChar

StartChar: uniFEEA
Encoding: 65258 65258 245
GlifName: uniF_E_E_A_
Width: 946
VWidth: 2950
GlyphClass: 2
Flags: W
AnchorPoint: "Anchor-10" 528.464 1117.36 basechar 0
AnchorPoint: "Anchor-7" 474.642 -236.09 basechar 0
LayerCount: 2
Fore
SplineSet
954.9375 180.030273438 m 2,0,1
 972.80859375 180.08174644 972.80859375 180.08174644 972.80859375 109.889648438 c 2,2,-1
 972.80859375 86.2958984375 l 2,3,4
 973 42 973 42 968.009765625 21.525390625 c 0,5,6
 963 0 963 0 954.727539062 0 c 2,7,-1
 935.4609375 0 l 2,8,9
 675.308694364 1.70530256582e-13 675.308694364 1.70530256582e-13 625.677734375 346.255859375 c 2,10,-1
 605.344726562 488.111328125 l 2,11,12
 596 551 596 551 572.760742188 580.836914062 c 0,13,14
 549 612 549 612 509.935546875 612.033203125 c 0,15,16
 472 612 472 612 417.255859375 578.708984375 c 0,17,18
 346 537 346 537 304.530273438 472.174804688 c 0,19,20
 267 414 267 414 266.614257812 355.600585938 c 0,21,22
 266 217 266 217 429.806640625 200.728515625 c 0,23,24
 498 194 498 194 587.973632812 192.998046875 c 1,25,-1
 582.067382812 21.0009765625 l 1,26,27
 410 21 410 21 294.637695312 66.8544921875 c 0,28,29
 103 144 103 144 103.338867188 355.903320312 c 0,30,31
 103 549 103 549 293.362304688 704.431640625 c 0,32,33
 404 795 404 795 526.974609375 795.126953125 c 0,34,35
 658 795 658 795 708.365234375 722.453125 c 0,36,37
 730 692 730 692 744.548828125 645.245117188 c 0,38,39
 759 599 759 599 765.790039062 535.768554688 c 0,40,41
 795 288 795 288 831.866210938 238 c 0,42,43
 874.147048582 179.797577718 874.147048582 179.797577718 944.426757812 180 c 2,44,-1
 954.9375 180.030273438 l 2,0,1
EndSplineSet
EndChar

StartChar: uniFEEB
Encoding: 65259 65259 246
GlifName: uniF_E_E_B_
Width: 1395
VWidth: 2950
GlyphClass: 2
Flags: W
AnchorPoint: "Anchor-10" 617.134 1290.79 basechar 0
AnchorPoint: "Anchor-7" 530.852 -239.953 basechar 0
LayerCount: 2
Fore
SplineSet
515.922851562 72.09375 m 1,0,1
 272 0 272 0 95.4453125 0 c 2,2,-1
 -6.9384765625 0 l 2,3,4
 -62.7783203125 0 -62.7783203125 0 -62.7783203125 86.3134765625 c 2,5,-1
 -62.7783203125 105.192382812 l 2,6,7
 -62.9999797429 179.993164062 -62.9999797429 179.993164062 -6.9384765625 179.993164062 c 2,8,-1
 313.90625 179.993164062 l 1,9,10
 166 282 166 282 166.629882812 457.633789062 c 0,11,12
 167 586 167 586 250.5625 682.829101562 c 0,13,14
 354 803 354 803 518 801.705078125 c 0,15,16
 669 801 669 801 779.767329353 695.254168521 c 0,17,18
 866 613 866 613 866.993164062 492.8203125 c 0,19,20
 866.999133316 334.051820715 866.999133316 334.051820715 734.522488708 232 c 0,21,22
 715.288018278 217.18295256 715.288018278 217.18295256 693.260742188 203.561523438 c 1,23,24
 713.830776457 199.511223735 713.830776457 199.511223735 734 196.133509552 c 4,25,26
 836.139467953 179.028342919 836.139467953 179.028342919 928 179.171875 c 0,27,28
 1114.71026916 178.627962669 1114.71026916 178.627962669 1115.69726562 353.631835938 c 0,29,30
 1116 451 1116 451 1014.46679688 568.061523438 c 0,31,32
 840 771 840 771 617.604492188 859.120117188 c 1,33,-1
 683.017578125 1022.16601562 l 1,34,35
 1291.21663741 689.373032964 1291.21663741 689.373032964 1293.16013399 357 c 0,36,37
 1293.88327834 233.329248301 1293.88327834 233.329248301 1225.30736645 138 c 0,38,39
 1127.25544969 1.69535219251 1127.25544969 1.69535219251 898.580078125 0.529296875 c 0,40,41
 743 -0 743 -0 515.922851562 72.09375 c 1,0,1
622.104492188 328.8984375 m 0,42,43
 703.014648438 402.125 703.014648438 402.125 701.611328125 490.133789062 c 0,44,45
 700.990234375 539.782226562 700.990234375 539.782226562 664.215820312 580.374023438 c 0,46,47
 609.885672349 639.9966654 609.885672349 639.9966654 523.650390625 640.331054688 c 0,48,49
 422.889648438 639.99609375 422.889648438 639.99609375 367.893554688 552.125976562 c 0,50,51
 341.008789062 509.592773438 341.008789062 509.592773438 340.1875 453.861328125 c 0,52,53
 339.998046875 373.103515625 339.998046875 373.103515625 405.079101562 315.24609375 c 0,54,55
 432.416015625 290.754882812 432.416015625 290.754882812 466.145507812 274.81640625 c 0,56,57
 490.087271342 263.502585796 490.087271342 263.502585796 517.6640625 256.393554688 c 1,58,59
 566.639680466 278.883868678 566.639680466 278.883868678 622.104492188 328.8984375 c 0,42,43
EndSplineSet
EndChar

StartChar: uniFEEC
Encoding: 65260 65260 247
GlifName: uniF_E_E_C_
Width: 1022
VWidth: 2950
GlyphClass: 2
Flags: W
AnchorPoint: "Anchor-7" 563.16 -681.603 basechar 0
AnchorPoint: "Anchor-10" 542.648 1139.04 basechar 0
LayerCount: 2
Fore
SplineSet
616.796875 -291.251953125 m 1,0,1
 646.999937411 179.999023438 646.999937411 179.999023438 1007.90429688 179.999023438 c 2,2,-1
 1029.85253906 179.999023438 l 2,3,4
 1047.93457031 179.999996479 1047.93457031 179.999996479 1047.93457031 105.174804688 c 2,5,-1
 1047.93457031 86.3330078125 l 2,6,7
 1048 0 1048 0 1029.85546875 0 c 2,8,-1
 1005.52539062 0 l 2,9,10
 746 0 746 0 752.509237874 -356 c 0,11,12
 753 -382 753 -382 756.811523438 -471.997070312 c 1,13,14
 349 -461 349 -461 236.314453125 -0 c 1,15,-1
 -6.9384765625 0 l 2,16,17
 -62.7783203125 0 -62.7783203125 0 -62.7783203125 86.3134765625 c 2,18,-1
 -62.7783203125 105.192382812 l 2,19,20
 -62.9999971061 179.999023438 -62.9999971061 179.999023438 -6.919921875 179.999023438 c 2,21,-1
 206 179.999023438 l 25,22,-1
 223.962890625 179.999023438 l 1,23,-1
 223.975585938 181.986328125 l 2,24,25
 228 808 228 808 550.5 808 c 0,26,27
 671 808 671 808 736.961914062 728.721679688 c 0,28,29
 808 642 808 642 808.58984375 494.979492188 c 0,30,31
 809 284 809 284 662.56640625 135.39453125 c 0,32,33
 553 24 553 24 395.5 -1.6337890625 c 1,34,35
 450 -208 450 -208 616.796875 -291.251953125 c 1,0,1
386.872070312 178.556640625 m 1,36,37
 650.998980496 215.19068125 650.998980496 215.19068125 651.1796875 501.802734375 c 0,38,39
 650.997070312 636.99609375 650.997070312 636.99609375 539.5546875 637.194335938 c 0,40,41
 388.004882812 636.997070312 388.004882812 636.997070312 386.877929688 180.859375 c 2,42,-1
 386.872070312 178.556640625 l 1,36,37
EndSplineSet
EndChar

StartChar: uniFEEE
Encoding: 65262 65262 249
GlifName: uniF_E_E_E_
Width: 833
VWidth: 2142
GlyphClass: 2
Flags: W
AnchorPoint: "Anchor-10" 389.256 1142.2 basechar 0
AnchorPoint: "Anchor-7" 302.969 -675.998 basechar 0
LayerCount: 2
Fore
SplineSet
747.592773438 0 m 5,0,1
 730 -82 730 -82 709 -125.006835938 c 0,2,3
 568 -418 568 -418 87.046875 -465.592773438 c 1,4,-1
 57.650390625 -302.475585938 l 1,5,6
 498 -268 498 -268 578.123046875 0 c 1,7,-1
 520.192382812 0.8115234375 l 2,8,9
 90 7 90 7 90.0048828125 332.353515625 c 0,10,11
 90 486 90 486 176.5625 595.634765625 c 0,12,13
 264 705 264 705 408.104492188 705.077148438 c 0,14,15
 602 705 602 705 687.076171875 531.661132812 c 0,16,17
 751 401 751 401 759 180 c 1,18,19
 840.961914062 179.999023438 l 2,20,21
 859.025390625 180.000001375 859.025390625 180.000001375 859.025390625 95.64453125 c 2,22,-1
 859.025390625 86.2099609375 l 2,23,24
 859 0 859 0 840.98828125 0 c 2,25,-1
 747.592773438 0 l 5,0,1
592.625976562 182.731445312 m 2,26,27
 570.534074165 525.000353216 570.534074165 525.000353216 407.401367188 525.124023438 c 0,28,29
 334 525 334 525 292.392578125 469.725585938 c 0,30,31
 253 416 253 416 253.159179688 344.564453125 c 0,32,33
 253.000184225 184.185828087 253.000184225 184.185828087 518.935546875 181.36328125 c 2,34,-1
 590.611328125 180.602539062 l 1,35,-1
 592.764648438 180.583007812 l 1,36,-1
 592.625976562 182.731445312 l 2,26,27
EndSplineSet
EndChar

StartChar: uniFEF0
Encoding: 65264 65264 251
GlifName: uniF_E_F_0
Width: 1433
VWidth: 2950
GlyphClass: 2
Flags: W
AnchorPoint: "Anchor-7" 639.902 -674.086 basechar 0
AnchorPoint: "Anchor-10" 601.6 742.22 basechar 0
LayerCount: 2
Fore
SplineSet
885.678710938 26.80859375 m 0,0,1
 866 50 866 50 851.776367188 111.14453125 c 0,2,3
 837 173 837 173 855.205078125 179.999023438 c 1,4,-1
 1439.43554688 179.999023438 l 2,5,6
 1457.51953125 179.999974725 1457.51953125 179.999974725 1457.51953125 105.174804688 c 2,7,-1
 1457.51953125 86.3193359375 l 2,8,9
 1458 0 1458 0 1439.45605469 0 c 2,10,-1
 1377 0 l 0,11,-1
 1286.64746094 0 l 1,12,13
 1322 -45 1322 -45 1321.92578125 -106 c 0,14,15
 1322 -139 1322 -139 1311.26953125 -178 c 0,16,17
 1275 -307 1275 -307 1124.05957031 -385.234375 c 0,18,19
 966 -467 966 -467 705.326171875 -467.724609375 c 0,20,21
 512 -468 512 -468 365 -402.080078125 c 4,22,23
 101 -286 101 -286 101.752929688 49.0400390625 c 0,24,25
 102 178 102 178 157.458007812 341.122070312 c 1,26,-1
 315.903320312 295.791992188 l 1,27,28
 273 147 273 147 273.268554688 50.861328125 c 0,29,30
 273 -298 273 -298 712.40625 -297.203125 c 0,31,32
 1043 -296 1043 -296 1136.58984375 -155.126953125 c 0,33,34
 1160 -120 1160 -120 1159.83691406 -86.658203125 c 0,35,36
 1157.99087548 0.430458307602 1157.99087548 0.430458307602 1026.37304688 0.7275390625 c 2,37,-1
 933.352539062 0.9375 l 1,38,39
 905 4 905 4 885.678710938 26.80859375 c 0,0,1
EndSplineSet
EndChar

StartChar: uniFEFB
Encoding: 65275 65275 262
GlifName: uniF_E_F_B_
Width: 1169
VWidth: 2950
GlyphClass: 3
Flags: W
AnchorPoint: "Anchor-9" 208.642 1507.64 baselig 1
AnchorPoint: "Anchor-6" 248.021 -244.333 baselig 1
AnchorPoint: "Anchor-6" 885.078 -240.55 baselig 0
AnchorPoint: "Anchor-9" 938.01 1563.61 baselig 0
LayerCount: 2
Fore
SplineSet
249.2421875 1343.10351562 m 5,0,1
 449.9765625 856.057617188 449.9765625 856.057617188 620.994140625 220.54296875 c 6,2,-1
 621.541015625 218.510742188 l 5,3,-1
 623.54296875 219.16015625 l 6,4,5
 859.057617188 296.018554688 859.057617188 296.018554688 859.17578125 637.975585938 c 6,6,-1
 859.4375 1396.28222656 l 5,7,-1
 1024.47070312 1396.28222656 l 5,8,-1
 1024.47070312 636.665039062 l 6,9,10
 1024 3 1024 3 356.337890625 3.1279296875 c 4,11,12
 220 3 220 3 135.040039062 18.34765625 c 5,13,-1
 135.041992188 195.61328125 l 5,14,15
 301.688476562 174.040039062 301.688476562 174.040039062 454.578125 184.28515625 c 6,16,-1
 457.055664062 184.451171875 l 5,17,-1
 456.365234375 186.8359375 l 6,18,19
 259 870 259 870 91.9609375 1250.86914062 c 5,20,-1
 249.2421875 1343.10351562 l 5,0,1
EndSplineSet
LCarets2: 1 0
Ligature2: "'rlig' Required Ligatures in Arabic lookup 16 subtable" uniFEDF uniFE8E
EndChar

StartChar: uniFEFC
Encoding: 65276 65276 263
GlifName: uniF_E_F_C_
Width: 1233
VWidth: 2950
GlyphClass: 3
Flags: W
AnchorPoint: "Anchor-9" 938.01 1563.61 baselig 0
AnchorPoint: "Anchor-9" 208.642 1507.64 baselig 1
AnchorPoint: "Anchor-6" 885.078 -240.55 baselig 0
AnchorPoint: "Anchor-6" 248.021 -244.333 baselig 1
LayerCount: 2
Fore
SplineSet
249.2421875 1343.10351562 m 1,0,1
 449 858 449 858 621.541015625 218.510742188 c 1,2,3
 859.057617188 296.018554688 859.057617188 296.018554688 859.17578125 637.975585938 c 2,4,-1
 859.4375 1396.28222656 l 1,5,-1
 1024.47070312 1396.28222656 l 1,6,-1
 1024.47070312 546.666015625 l 1,7,8
 1023 179.999023438 1023 179.999023438 1216.61425781 179.999023438 c 2,9,-1
 1242.09667969 179.999023438 l 2,10,11
 1260.1796875 180 1260.1796875 180 1260.1796875 105.174804688 c 2,12,-1
 1260.1796875 86.3271484375 l 2,13,14
 1260 0 1260 0 1242.09960938 0 c 2,15,-1
 1213.0859375 0 l 2,16,17
 981 0 981 0 915.790039062 228.717773438 c 1,18,19
 752 3 752 3 356.337890625 3.1279296875 c 0,20,21
 220 3 220 3 135.040039062 18.34765625 c 1,22,-1
 135.041992188 195.61328125 l 1,23,24
 302 174 302 174 457.055664062 184.451171875 c 1,25,26
 260 865 260 865 91.9609375 1250.86914062 c 1,27,-1
 249.2421875 1343.10351562 l 1,0,1
EndSplineSet
LCarets2: 1 0
Ligature2: "'rlig' Required Ligatures in Arabic lookup 16 subtable" uniFEE0 uniFE8E
EndChar

StartChar: arabic_dot
Encoding: 65536 -1 264
GlifName: arabic_dot
Width: 193
VWidth: 2646
GlyphClass: 2
Flags: W
LayerCount: 2
Fore
SplineSet
-29.9342735455 102.962895983 m 1,0,-1
 96.1210991078 229.019223767 l 1,1,-1
 222.934273545 102.20604933 l 1,2,-1
 96.8789008922 -23.850278455 l 1,3,-1
 -29.9342735455 102.962895983 l 1,0,-1
EndSplineSet
EndChar

StartChar: arabic_2dots
Encoding: 65537 -1 265
GlifName: arabic_2dots
Width: 494
VWidth: 2646
GlyphClass: 2
Flags: W
LayerCount: 2
Fore
SplineSet
262.474900816 102.962890656 m 1,0,-1
 388.530278796 229.019223767 l 1,1,-1
 515.343447875 102.206054688 l 1,2,-1
 389.287114702 -23.8502784862 l 1,3,-1
 262.474900816 102.962890656 l 1,0,-1
-21.343453233 102.962895983 m 1,4,-1
 104.71191942 229.019223767 l 1,5,-1
 231.525093858 102.20604933 l 1,6,-1
 105.469721204 -23.850278455 l 1,7,-1
 -21.343453233 102.962895983 l 1,4,-1
EndSplineSet
EndChar

StartChar: arabic_3dots
Encoding: 65538 -1 266
GlifName: arabic_3dots
Width: 494
VWidth: 2646
GlyphClass: 2
Flags: W
LayerCount: 2
Fore
SplineSet
123.746390349 314.940446135 m 1,0,-1
 246.621093816 437.81705878 l 1,1,-1
 370.253609553 314.182633602 l 1,2,-1
 247.378906283 191.308884921 l 1,3,-1
 123.746390349 314.940446135 l 1,0,-1
265.655575563 83.8486328125 m 1,4,-1
 388.530284359 206.723341608 l 1,5,-1
 512.163738467 83.0917969408 l 1,6,-1
 389.287120362 -39.7829119869 l 1,7,-1
 265.655575563 83.8486328125 l 1,4,-1
-18.1637439609 83.8486382401 m 1,8,-1
 104.71191949 206.723347101 l 1,9,-1
 228.345384586 83.0917914474 l 1,10,-1
 105.469721134 -39.7829174144 l 1,11,-1
 -18.1637439609 83.8486382401 l 1,8,-1
EndSplineSet
EndChar

StartChar: arabic_3dots_a
Encoding: 65539 -1 267
GlifName: arabic_3dots_a
Width: 494
VWidth: 2646
GlyphClass: 2
Flags: W
LayerCount: 2
Fore
SplineSet
123.746390349 -114.268571135 m 1,0,-1
 247.37890079 9.36298458571 l 1,1,-1
 370.253609586 -113.51172421 l 1,2,-1
 246.621099276 -237.14518924 l 1,3,-1
 123.746390349 -114.268571135 l 1,0,-1
265.655564609 116.822265592 m 1,4,-1
 389.287125822 240.454781526 l 1,5,-1
 512.163749389 117.580067138 l 1,6,-1
 388.530278931 -6.05340331939 l 1,7,-1
 265.655564609 116.822265592 l 1,4,-1
-18.1637549148 116.822260165 m 1,8,-1
 105.469726595 240.454786954 l 1,9,-1
 228.345395507 117.580072632 l 1,10,-1
 104.711914062 -6.05340881275 l 1,11,-1
 -18.1637549148 116.822260165 l 1,8,-1
EndSplineSet
EndChar

StartChar: uni066E.fina
Encoding: 65540 -1 268
GlifName: uni066E_.fina
Width: 1811
VWidth: 2950
GlyphClass: 2
Flags: W
AnchorPoint: "Anchor-10" 925.51 1425.59 basechar 0
AnchorPoint: "Anchor-7" 808.357 -259.261 basechar 0
LayerCount: 2
Fore
SplineSet
1521.40234375 152.469726562 m 1,0,1
 1387 0 1387 0 864.356445312 0 c 2,2,-1
 860.911132812 0 l 2,3,4
 107 0 107 0 106.16015625 463.875 c 0,5,6
 106 563 106 563 133.489257812 685 c 1,7,-1
 289.356445312 655 l 1,8,9
 271 569 271 569 271.424804688 482.515625 c 0,10,11
 272 180 272 180 851.866210938 180.13671875 c 0,12,13
 1300 180 1300 180 1428.22558594 284.419921875 c 0,14,15
 1468.28163065 317.230689727 1468.28163065 317.230689727 1472.52246094 373.569335938 c 2,16,-1
 1487.41699219 571.440429688 l 1,17,-1
 1608.44335938 571.440429688 l 1,18,-1
 1623.33886719 371.49609375 l 2,19,20
 1638.00052337 179.993164062 1638.00052337 179.993164062 1807.58984375 179.993164062 c 2,21,-1
 1815.66796875 179.993164062 l 2,22,23
 1833.74707031 179.999905684 1833.74707031 179.999905684 1833.74707031 96.322265625 c 2,24,-1
 1833.74707031 86.3349609375 l 2,25,26
 1834 0 1834 0 1815.66601562 0 c 2,27,-1
 1806.02246094 0 l 2,28,29
 1601 0 1601 0 1521.40234375 152.469726562 c 1,0,1
EndSplineSet
EndChar

StartChar: uni06A1.fina
Encoding: 65543 -1 269
GlifName: uni06A_1.fina
Width: 1915
VWidth: 2950
GlyphClass: 2
Flags: W
AnchorPoint: "Anchor-10" 746.816 1571.03 basechar 0
AnchorPoint: "Anchor-7" 623.121 -311.592 basechar 0
LayerCount: 2
Fore
SplineSet
1556.47460938 582.794921875 m 0,0,1
 1448.98144531 670 1448.98144531 670 1343.78027344 584.29296875 c 0,2,3
 1280.98144531 534 1280.98144531 534 1281.3984375 459 c 0,4,5
 1281.98144531 394 1281.98144531 394 1336.92480469 331.327148438 c 0,6,7
 1397.98144531 260 1397.98144531 260 1447.13964844 255.895507812 c 0,8,9
 1498.98144531 252 1498.98144531 252 1561.98144531 330 c 0,10,11
 1614.98144531 396 1614.98144531 396 1614.86425781 457.1640625 c 0,12,13
 1614.98144531 536 1614.98144531 536 1556.47460938 582.794921875 c 0,0,1
1637.14648438 189.430664062 m 1,14,15
 1664.01946512 179.993164062 1664.01946512 179.993164062 1890.82714844 179.993164062 c 2,16,-1
 1923.37207031 179.993164062 l 2,17,18
 1941.44824219 180.000173824 1941.44824219 180.000173824 1941.44824219 105.174804688 c 2,19,-1
 1941.44824219 86.318359375 l 2,20,21
 1941 0 1941 0 1923.37011719 0 c 2,22,-1
 1893.02246094 0 l 2,23,24
 1568 0 1568 0 1445.68066406 90.880859375 c 1,25,26
 1314 0 1314 0 864.356445312 0 c 2,27,-1
 860.911132812 0 l 2,28,29
 107 0 107 0 106.16015625 463.875 c 0,30,31
 106 563 106 563 133.489257812 685 c 1,32,-1
 289.356445312 655 l 1,33,34
 271 569 271 569 271.424804688 482.515625 c 0,35,36
 271.999742378 180.135492571 271.999742378 180.135492571 854 180.134632162 c 4,37,38
 1244.28839745 180.134055173 1244.28839745 180.134055173 1262.97753906 188.821289062 c 1,39,40
 1112 315 1112 315 1111.48144531 456.116210938 c 0,41,42
 1111 590 1111 590 1184.50390625 676.706054688 c 0,43,44
 1290 801 1290 801 1449.21679688 800.41796875 c 0,45,46
 1605 800 1605 800 1702.52929688 689.624023438 c 0,47,48
 1785 595 1785 595 1784.97949219 458.610351562 c 0,49,50
 1785 310 1785 310 1637.14648438 189.430664062 c 1,14,15
EndSplineSet
EndChar

StartChar: uni06A1.init
Encoding: 65544 -1 270
GlifName: uni06A_1.init
Width: 914
VWidth: 2950
GlyphClass: 2
Flags: W
AnchorPoint: "Anchor-10" 427.443 1604.02 basechar 0
AnchorPoint: "Anchor-7" 347.886 -247.023 basechar 0
LayerCount: 2
Fore
SplineSet
631.184570312 530.057617188 m 6,0,1
 610.627700224 848.470413448 610.627700224 848.470413448 458.386766577 848.470413448 c 4,2,3
 375.269017223 848.470413448 375.269017223 848.470413448 333.410798419 764 c 4,4,5
 311.927159658 720.645746038 311.927159658 720.645746038 311.717773438 667.884765625 c 4,6,7
 312 533 312 533 547.479492188 528.689453125 c 4,8,9
 588.855124442 528.002405676 588.855124442 528.002405676 629.184570312 527.928710938 c 6,10,-1
 631.322265625 527.924804688 l 5,11,-1
 631.184570312 530.057617188 l 6,0,1
800.825280748 482 m 4,12,13
 801 293 801 293 740 196.835788199 c 0,14,15
 616 0 616 0 244.868164062 0 c 2,16,-1
 -6.9384765625 0 l 2,17,18
 -62.7783203125 0 -62.7783203125 0 -62.7783203125 86.3134765625 c 2,19,-1
 -62.7783203125 105.192382812 l 2,20,21
 -62.9999971061 179.999023438 -62.9999971061 179.999023438 -6.9384765625 179.999023438 c 2,22,-1
 256.008789062 179.999023438 l 2,23,24
 618 180 618 180 628.788085938 354.567382812 c 5,25,-1
 548.043945312 355.123046875 l 6,26,27
 148 358 148 358 148.562700836 654.838285797 c 4,28,29
 149 769 149 769 196.442149614 859 c 4,30,31
 285 1028 285 1028 458.7734375 1028.40527344 c 4,32,33
 677 1028 677 1028 751.249023438 816.821289062 c 4,34,35
 801 676 801 676 800.825280748 482 c 4,12,13
EndSplineSet
EndChar

StartChar: uni06A1.medi
Encoding: 65545 -1 271
GlifName: uni06A_1.medi
Width: 1012
VWidth: 2950
GlyphClass: 2
Flags: W
AnchorPoint: "Anchor-10" 542.544 1386.06 basechar 0
AnchorPoint: "Anchor-7" 507.517 -247.023 basechar 0
LayerCount: 2
Fore
SplineSet
653.493164062 582.794921875 m 4,0,1
 546 670 546 670 440.798828125 584.29296875 c 4,2,3
 378 534 378 534 378.416992188 459 c 4,4,5
 379 394 379 394 433.943359375 331.327148438 c 4,6,7
 495 260 495 260 544.158203125 255.895507812 c 4,8,9
 596 252 596 252 659 330 c 4,10,11
 712 396 712 396 711.8828125 457.1640625 c 4,12,13
 712 536 712 536 653.493164062 582.794921875 c 4,0,1
542.69921875 90.880859375 m 1,14,15
 420 0 420 0 34.2099609375 0 c 2,16,-1
 -6.9384765625 0 l 2,17,18
 -62.7783203125 0 -62.7783203125 0 -62.7783203125 86.3134765625 c 2,19,-1
 -62.7783203125 105.192382812 l 2,20,21
 -62.999254269 179.748347012 -62.999254269 179.748347012 -6.9013671875 179.993164062 c 2,22,-1
 34.048828125 180.171875 l 2,23,24
 338 182 338 182 359.99609375 188.821289062 c 5,25,26
 209 315 209 315 208.5 456.116210938 c 4,27,28
 208 590 208 590 281.522460938 676.706054688 c 4,29,30
 387 801 387 801 546.235351562 800.41796875 c 4,31,32
 702 800 702 800 799.547851562 689.624023438 c 4,33,34
 882 595 882 595 881.998046875 458.610351562 c 4,35,36
 882 310 882 310 734.165039062 189.430664062 c 5,37,38
 763.020901392 179.993164062 763.020901392 179.993164062 987.845703125 179.993164062 c 2,39,-1
 1020.390625 179.993164062 l 2,40,41
 1038.46679688 180.00018121 1038.46679688 180.00018121 1038.46679688 105.174804688 c 2,42,-1
 1038.46679688 86.318359375 l 2,43,44
 1038 0 1038 0 1020.38867188 0 c 2,45,-1
 990.041015625 0 l 2,46,47
 665 0 665 0 542.69921875 90.880859375 c 1,14,15
EndSplineSet
EndChar

StartChar: uni066F.fina
Encoding: 65546 -1 272
GlifName: uni066F_.fina
Width: 1396
VWidth: 2950
GlyphClass: 2
Flags: W
AnchorPoint: "Anchor-10" 404.297 1207.41 basechar 0
AnchorPoint: "Anchor-7" 479.744 -854.409 basechar 0
LayerCount: 2
Fore
SplineSet
680.99609375 -467.998046875 m 4,0,1
 498.970232435 -467.011585363 498.970232435 -467.011585363 360.99609375 -396.170898438 c 4,2,3
 104 -263 104 -263 104.752929688 99.041015625 c 4,4,5
 105 257 105 257 170.45703125 446.122070312 c 5,6,-1
 328.90234375 400.791992188 l 5,7,8
 275 233 275 233 275.268554688 100.861328125 c 4,9,10
 276.071070474 -294.005621409 276.071070474 -294.005621409 694.3984375 -296.201171875 c 28,11,12
 1080 -298 1080 -298 1119.28320312 0.39453125 c 1,13,-1
 1061.35253906 1.2060546875 l 2,14,15
 631.000118889 7.23465941731 631.000118889 7.23465941731 631.165039062 332.748046875 c 0,16,17
 631 486 631 486 717.72265625 596.029296875 c 0,18,19
 805 705 805 705 949.264648438 705.471679688 c 0,20,21
 1142 706 1142 706 1228.23632812 532.055664062 c 0,22,23
 1286 416 1286 416 1294.0703125 180.155273438 c 1,24,-1
 1404.03417969 179.999023438 l 2,25,26
 1410.00422349 179.990540476 1410.00422349 179.990540476 1413.47460938 172.217773438 c 0,27,28
 1419 158 1419 158 1419.78515625 147.147460938 c 0,29,30
 1422 105 1422 105 1422.12207031 104.174804688 c 2,31,-1
 1422.12207031 85.3212890625 l 2,32,33
 1422.12207031 66.4959872991 1422.12207031 66.4959872991 1419.71484375 36.9951171875 c 0,34,35
 1418 20 1418 20 1413.40039062 8.7275390625 c 0,36,37
 1409 -0 1409 -0 1404.1015625 -0 c 2,38,-1
 1289.16699219 0.720703125 l 1,39,-1
 1287.36425781 0.732421875 l 1,40,-1
 1287.16601562 -1.0595703125 l 2,41,42
 1236 -467 1236 -467 680.99609375 -467.998046875 c 4,0,1
1133.78613281 183.125976562 m 2,43,44
 1111.71966116 525.000889454 1111.71966116 525.000889454 948.561523438 525.518554688 c 0,45,46
 875 525 875 525 833.552734375 470.120117188 c 0,47,48
 794 416 794 416 794.319335938 344.958984375 c 0,49,50
 793.999165661 184.582069989 793.999165661 184.582069989 1060.09570312 181.7578125 c 2,51,-1
 1131.77148438 180.997070312 l 1,52,-1
 1133.92480469 180.977539062 l 1,53,-1
 1133.78613281 183.125976562 l 2,43,44
EndSplineSet
EndChar

StartChar: arabic_gaf_bar
Encoding: 65550 -1 273
GlifName: arabic_gaf_bar
Width: 751
VWidth: 2765
GlyphClass: 2
Flags: W
LayerCount: 2
Fore
SplineSet
755.040039062 1872.6015625 m 1,0,-1
 48.15625 1567.45996094 l 1,1,-1
 48.15625 1682.86816406 l 1,2,-1
 755.040039062 1988.00683594 l 1,3,-1
 755.040039062 1872.6015625 l 1,0,-1
EndSplineSet
EndChar

StartChar: guillemotleft
Encoding: 171 171 283
GlifName: guillemotleft
Width: 1184
VWidth: 2316
Flags: W
LayerCount: 2
Fore
SplineSet
448.681640625 0.5234375 m 5,0,1
 137 463 137 463 137.05078125 526.83203125 c 4,2,3
 136 591 136 591 449.278320312 1014.22167969 c 5,4,-1
 644.555664062 1014.22167969 l 5,5,6
 335 591 335 591 335.157226562 525.7109375 c 4,7,8
 335 460 335 460 642.340820312 0.5234375 c 5,9,-1
 448.681640625 0.5234375 l 5,0,1
877.046875 0.5234375 m 5,10,11
 565 463 565 463 564.805664062 526.833007812 c 4,12,13
 564 591 564 591 877.64453125 1014.22167969 c 5,14,-1
 1072.92285156 1014.22167969 l 5,15,16
 763 590 763 590 763.603515625 522.912109375 c 4,17,18
 764 459 764 459 1070.70800781 0.5234375 c 5,19,-1
 877.046875 0.5234375 l 5,10,11
EndSplineSet
EndChar

StartChar: guillemotright
Encoding: 187 187 284
GlifName: guillemotright
Width: 1184
VWidth: 2316
Flags: W
LayerCount: 2
Fore
SplineSet
741.291992188 0.5234375 m 1,0,1
 547.6328125 0.5234375 l 1,2,3
 854.973632812 460 854.973632812 460 854.81640625 525.7109375 c 0,4,5
 854.973632812 591 854.973632812 591 545.41796875 1014.22167969 c 1,6,-1
 740.6953125 1014.22167969 l 1,7,8
 1053.97363281 591 1053.97363281 591 1052.92285156 526.83203125 c 0,9,10
 1052.97363281 463 1052.97363281 463 741.291992188 0.5234375 c 1,0,1
312.926757812 0.5234375 m 1,11,-1
 119.265625 0.5234375 l 1,12,13
 425.973632812 459 425.973632812 459 426.370117188 522.912109375 c 0,14,15
 426.973632812 590 426.973632812 590 117.05078125 1014.22167969 c 1,16,-1
 312.329101562 1014.22167969 l 1,17,18
 625.973632812 591 625.973632812 591 625.16796875 526.833007812 c 0,19,20
 624.973632812 463 624.973632812 463 312.926757812 0.5234375 c 1,11,-1
EndSplineSet
EndChar

StartChar: NameMe.302
Encoding: 65562 -1 293
GlifName: N_ameM_e.302
Width: 645
VWidth: 2950
Flags: W
LayerCount: 2
Fore
SplineSet
331.258789062 134.25 m 1,0,1
 239 0 239 0 21.625 0 c 2,2,-1
 -6.9384765625 0 l 2,3,4
 -62.7783203125 0 -62.7783203125 0 -62.7783203125 86.3134765625 c 2,5,-1
 -62.7783203125 105.192382812 l 2,6,7
 -62.9999797429 179.993164062 -62.9999797429 179.993164062 -6.9384765625 179.993164062 c 2,8,-1
 24.140625 179.993164062 l 2,9,10
 257.919921875 179.999997659 257.919921875 179.999997659 257.919921875 433.180664062 c 2,11,-1
 257.919921875 1141.66699219 l 5,12,-1
 426.772460938 1141.66699219 l 5,13,-1
 426.772460938 433.193359375 l 2,14,15
 427.000006143 179.993164062 427.000006143 179.993164062 632.400390625 179.993164062 c 2,16,-1
 642.509765625 179.993164062 l 2,17,18
 671.65625 179.999920318 671.65625 179.999920318 671.65625 105.174804688 c 2,19,-1
 671.65625 86.2763671875 l 2,20,21
 672 0 672 0 642.508789062 0 c 2,22,-1
 634.920898438 0 l 2,23,24
 426 0 426 0 331.258789062 134.25 c 1,0,1
EndSplineSet
EndChar

StartChar: NameMe.303
Encoding: 65563 -1 294
GlifName: N_ameM_e.303
Width: 564
VWidth: 2950
Flags: W
LayerCount: 2
Fore
SplineSet
-6.9384765625 0 m 2,0,1
 -62.7783203125 0 -62.7783203125 0 -62.7783203125 86.3134765625 c 2,2,-1
 -62.7783203125 105.192382812 l 2,3,4
 -62.9999797429 179.993164062 -62.9999797429 179.993164062 -6.9384765625 179.993164062 c 2,5,-1
 50.515625 179.993164062 l 2,6,7
 253.345703125 180.000011671 253.345703125 180.000011671 253.345703125 396.663085938 c 2,8,-1
 253.345703125 1304.52832031 l 5,9,-1
 418.66015625 1304.52832031 l 5,10,-1
 418.66015625 390.963867188 l 2,11,12
 419 0 419 0 45.318359375 0 c 2,13,-1
 -6.9384765625 0 l 2,0,1
EndSplineSet
EndChar

StartChar: NameMe.65564
Encoding: 65564 -1 297
GlifName: N_ameM_e.65564
Width: 531
VWidth: 2950
Flags: W
AnchorPoint: "Anchor-10" 256.697 1423.11 basechar 0
AnchorPoint: "Anchor-7" 316.078 -241.903 basechar 0
LayerCount: 2
Fore
SplineSet
556.618164062 86.294921875 m 1,0,1
 558 0 558 0 538.537109375 0 c 2,2,-1
 517.658203125 0 l 2,3,4
 166.283203125 0 166.283203125 0 166.283203125 436.395507812 c 2,5,-1
 166.283203125 1256.171875 l 5,6,-1
 331.598632812 1256.171875 l 5,7,-1
 331.598632812 438.447265625 l 2,8,9
 332.000010616 179.993164062 332.000010616 179.993164062 520.712890625 179.993164062 c 2,10,-1
 538.5390625 179.993164062 l 2,11,12
 556.618164062 179.999858609 556.618164062 179.999858609 556.618164062 105.174804688 c 2,13,-1
 556.618164062 86.294921875 l 1,0,1
EndSplineSet
EndChar

StartChar: NameMe.65565
Encoding: 65565 -1 298
GlifName: N_ameM_e.65565
Width: 722
VWidth: 2953
Flags: W
LayerCount: 2
Fore
SplineSet
119.142578125 -285.494140625 m 1,0,1
 179 -298 179 -298 232.546875 -298.479492188 c 0,2,3
 366 -298 366 -298 419.99609375 -251.783203125 c 4,4,5
 474 -205 474 -205 473.924804688 -159.516601562 c 0,6,7
 474 -146 474 -146 463.859375 -139.69921875 c 0,8,9
 453.915547275 -132.942616314 453.915547275 -132.942616314 434.653320312 -132.456054688 c 2,10,-1
 334.79296875 -129.93359375 l 2,11,12
 230 -127 230 -127 229.629882812 -11.2490234375 c 0,13,14
 230 126 230 126 344.076171875 198.979492188 c 0,15,16
 432 255 432 255 587.9609375 255.979492188 c 1,17,-1
 578.760742188 133.991210938 l 1,18,19
 352.562591781 127.988392114 352.562591781 127.988392114 336.499023438 1.380859375 c 2,20,-1
 335.178710938 -9.025390625 l 1,21,-1
 334.901367188 -11.2099609375 l 1,22,-1
 337.103515625 -11.2763671875 l 1,23,-1
 448.302734375 -14.599609375 l 2,24,25
 562 -18 562 -18 583.831054688 -114.668945312 c 0,26,27
 589 -138 589 -138 588.856445312 -160.2109375 c 0,28,29
 589 -260 589 -260 487 -344 c 0,30,31
 395 -420 395 -420 225.575195312 -418.185546875 c 0,32,33
 206 -418 206 -418 185.5 -417 c 128,-1,34
 165 -416 165 -416 143.540039062 -413.220703125 c 0,35,36
 122 -411 122 -411 100.736328125 -407.182617188 c 1,37,-1
 119.142578125 -285.494140625 l 1,0,1
EndSplineSet
EndChar

StartChar: uni060D
Encoding: 1549 1549 299
Width: 828
VWidth: 4038
Flags: W
LayerCount: 2
Fore
SplineSet
609.728515625 1461.15039062 m 1,0,-1
 757 1417.18457031 l 5,1,-1
 199 -211 l 5,2,-1
 52.16015625 -167.009765625 l 1,3,-1
 609.728515625 1461.15039062 l 1,0,-1
EndSplineSet
EndChar

StartChar: NameMe.65541
Encoding: 65541 -1 300
Width: 589
VWidth: 2950
Flags: W
AnchorPoint: "Anchor-10" 311.384 1351 basechar 0
AnchorPoint: "Anchor-7" 263.422 -225.625 basechar 0
LayerCount: 2
Fore
SplineSet
78.673828125 0 m 6,0,-1
 -6.9384765625 0 l 2,1,2
 -62.7783203125 0 -62.7783203125 0 -62.7783203125 86.3134765625 c 2,3,-1
 -62.7783203125 105.182617188 l 2,4,5
 -62.9999797455 179.993164062 -62.9999797455 179.993164062 -6.9384765625 179.993164062 c 2,6,-1
 88.6845703125 179.993164062 l 6,7,8
 320 180 320 180 320.032226562 459.203125 c 0,9,10
 320 565 320 565 292.33984375 685.633789062 c 1,11,-1
 455.419921875 715.629882812 l 1,12,13
 482 579 482 579 481.642578125 462.950195312 c 0,14,15
 482 0 482 0 78.673828125 0 c 6,0,-1
EndSplineSet
EndChar

StartChar: NameMe.65542
Encoding: 65542 -1 301
Width: 627
VWidth: 2950
Flags: W
AnchorPoint: "Anchor-10" 295.665 1295.09 basechar 0
AnchorPoint: "Anchor-7" 280.537 -179.742 basechar 0
LayerCount: 2
Fore
SplineSet
372.668945312 132.932617188 m 1,0,1
 279 0 279 0 75.759765625 0 c 2,2,-1
 -8.1171875 0 l 2,3,4
 -62.7783203125 0 -62.7783203125 0 -62.7783203125 86.3134765625 c 6,5,-1
 -62.7783203125 105.192382812 l 6,6,7
 -62.9999797429 179.993164062 -62.9999797429 179.993164062 -8.1171875 179.993164062 c 2,8,-1
 71.0126953125 179.993164062 l 2,9,10
 276.936114666 179.99999788 276.936114666 179.99999788 291.506835938 373.569335938 c 2,11,-1
 306.401367188 571.440429688 l 1,12,-1
 427.427734375 571.440429688 l 1,13,-1
 442.323242188 371.49609375 l 2,14,15
 457.000523924 179.993164062 457.000523924 179.993164062 626.57421875 179.993164062 c 2,16,-1
 634.65234375 179.993164062 l 2,17,18
 652.731445312 179.999899942 652.731445312 179.999899942 652.731445312 96.322265625 c 2,19,-1
 652.731445312 86.3408203125 l 2,20,21
 653 0 653 0 634.650390625 0 c 2,22,-1
 625.006835938 0 l 2,23,24
 443 0 443 0 372.668945312 132.932617188 c 1,0,1
EndSplineSet
EndChar
